<svg width="16" height="16" viewBox="0 0 16 16" fill="none" xmlns="http://www.w3.org/2000/svg">
<path d="M7.82047 3.9761C5.69425 3.9761 3.97924 5.6915 3.97924 7.81819C3.97924 9.94489 5.69425 11.6603 7.82047 11.6603C9.94669 11.6603 11.6617 9.94489 11.6617 7.81819C11.6617 5.6915 9.94669 3.9761 7.82047 3.9761ZM7.82047 10.3161C6.44645 10.3161 5.32317 9.19586 5.32317 7.81819C5.32317 6.44052 6.44311 5.32033 7.82047 5.32033C9.19784 5.32033 10.3178 6.44052 10.3178 7.81819C10.3178 9.19586 9.19449 10.3161 7.82047 10.3161ZM12.7148 3.81894C12.7148 4.31717 12.3136 4.71509 11.8188 4.71509C11.3207 4.71509 10.9229 4.31383 10.9229 3.81894C10.9229 3.32405 11.3241 2.92278 11.8188 2.92278C12.3136 2.92278 12.7148 3.32405 12.7148 3.81894ZM15.2589 4.72847C15.2021 3.52802 14.9279 2.46467 14.0487 1.58858C13.1728 0.712491 12.1097 0.438295 10.9095 0.378105C9.67256 0.307884 5.96505 0.307884 4.72809 0.378105C3.53126 0.434951 2.46815 0.709147 1.58891 1.58524C0.709672 2.46133 0.43888 3.52468 0.378704 4.72512C0.308498 5.96235 0.308498 9.67069 0.378704 10.9079C0.435537 12.1084 0.709672 13.1717 1.58891 14.0478C2.46815 14.9239 3.52792 15.1981 4.72809 15.2583C5.96505 15.3285 9.67256 15.3285 10.9095 15.2583C12.1097 15.2014 13.1728 14.9272 14.0487 14.0478C14.9246 13.1717 15.1987 12.1084 15.2589 10.9079C15.3291 9.67069 15.3291 5.96569 15.2589 4.72847ZM13.6609 12.2354C13.4001 12.8908 12.8953 13.3957 12.2367 13.6599C11.2505 14.0511 8.91033 13.9609 7.82047 13.9609C6.73062 13.9609 4.3871 14.0478 3.40422 13.6599C2.74897 13.3991 2.24416 12.8942 1.98006 12.2354C1.58891 11.249 1.67917 8.90829 1.67917 7.81819C1.67917 6.72809 1.59225 4.38405 1.98006 3.40095C2.24082 2.74556 2.74563 2.24063 3.40422 1.97647C4.39044 1.58524 6.73062 1.67552 7.82047 1.67552C8.91033 1.67552 11.2539 1.58858 12.2367 1.97647C12.892 2.23729 13.3968 2.74221 13.6609 3.40095C14.052 4.38739 13.9618 6.72809 13.9618 7.81819C13.9618 8.90829 14.052 11.2523 13.6609 12.2354Z" fill="white"/>
</svg>