<svg width="12" height="12" viewBox="0 0 12 12" fill="none" xmlns="http://www.w3.org/2000/svg">
<path d="M4.83884 0C6.17505 0 7.38458 0.528125 8.26024 1.38203C9.13589 2.23594 9.67747 3.41553 9.67747 4.71855C9.67747 5.96943 9.17836 7.10635 8.36389 7.95078C8.37871 7.96143 8.39303 7.97324 8.40655 7.98633L11.89 11.3786C12.036 11.5201 12.0368 11.7504 11.8914 11.8928C11.7463 12.0352 11.5102 12.0357 11.3643 11.8942L7.8808 8.50195C7.85866 8.48047 7.83994 8.45703 7.82442 8.43213C7.00194 9.06172 5.96535 9.43721 4.83874 9.43721C3.50252 9.43721 2.29279 8.90908 1.41713 8.05518C0.541576 7.20127 0 6.02158 0 4.71855C0 3.41553 0.541576 2.23594 1.41723 1.38203C2.29289 0.528223 3.50262 0 4.83884 0ZM7.71926 1.90967C6.98211 1.19082 5.96375 0.746191 4.83884 0.746191C3.71392 0.746191 2.69546 1.19082 1.95831 1.90967C1.22115 2.62852 0.765197 3.62158 0.765197 4.71855C0.765197 5.81553 1.22115 6.80869 1.95831 7.52754C2.69536 8.24639 3.71382 8.69102 4.83884 8.69102C5.96375 8.69102 6.98211 8.24639 7.71926 7.52754C8.45642 6.80879 8.91237 5.81563 8.91237 4.71855C8.91237 3.62158 8.45642 2.62852 7.71926 1.90967Z" fill="black"/>
</svg>
