<svg width="13" height="16" viewBox="0 0 13 16" fill="none" xmlns="http://www.w3.org/2000/svg">
<path fill-rule="evenodd" clip-rule="evenodd" d="M6.86468 5.29171L6.85602 10.5834L6.7867 10.8273C6.50938 11.8028 5.6753 12.4437 4.68334 12.4437C3.68631 12.4437 2.83216 11.7861 2.58766 10.8301C2.50225 10.4961 2.50353 10.0067 2.59066 9.69223C2.79943 8.93891 3.39451 8.35002 4.1396 8.15946C4.4264 8.08611 4.9309 8.07704 5.17083 8.14095L5.33004 8.18335L5.35055 7.27295C5.36183 6.77223 5.37109 6.18419 5.37112 5.96617L5.37118 5.56979L5.19337 5.54756C4.90604 5.51166 4.13634 5.55406 3.79227 5.62472C2.3643 5.91802 1.21835 6.78918 0.498024 8.12907C0.0949472 8.87882 -0.0886761 9.99728 0.041264 10.9115C0.225544 12.2082 0.87071 13.2973 1.92527 14.092C3.01578 14.9137 4.47908 15.1998 5.86674 14.8626C7.14204 14.5526 8.3589 13.5569 8.95144 12.3384C9.12966 11.972 9.22983 11.6759 9.33373 11.2087L9.41714 10.8335L9.42765 7.93366C9.43343 6.3387 9.44528 5.03377 9.45398 5.03377C9.4627 5.03377 9.57116 5.10152 9.69507 5.18434C10.5246 5.73881 11.5258 6.05806 12.7108 6.14595L13 6.1674V4.88147V3.59555H12.7676C12.6104 3.59555 12.4157 3.56475 12.1658 3.50035C10.7936 3.14679 9.74102 2.0403 9.48299 0.680028C9.45698 0.542959 9.43572 0.333886 9.43572 0.21542V0H8.15451H6.87334L6.86468 5.29171Z" fill="white"/>
</svg>