<svg width="19" height="13" viewBox="0 0 19 13" fill="none" xmlns="http://www.w3.org/2000/svg">
<path d="M17.6872 2.72315C17.4872 1.98165 16.8979 1.39766 16.1497 1.19948C14.7935 0.839355 9.35533 0.839355 9.35533 0.839355C9.35533 0.839355 3.91717 0.839355 2.56094 1.19948C1.81272 1.39769 1.22343 1.98165 1.02343 2.72315C0.660034 4.06717 0.660034 6.87134 0.660034 6.87134C0.660034 6.87134 0.660034 9.67551 1.02343 11.0195C1.22343 11.761 1.81272 12.3207 2.56094 12.5189C3.91717 12.879 9.35533 12.879 9.35533 12.879C9.35533 12.879 14.7935 12.879 16.1497 12.5189C16.8979 12.3207 17.4872 11.761 17.6872 11.0195C18.0506 9.67551 18.0506 6.87134 18.0506 6.87134C18.0506 6.87134 18.0506 4.06717 17.6872 2.72315ZM7.57673 9.41731V4.32536L12.122 6.8714L7.57673 9.41731Z" fill="white"/>
</svg>