<svg width="123" height="119" viewBox="0 0 123 119" fill="none" xmlns="http://www.w3.org/2000/svg">
<path d="M86.7493 73.1246H51.7391C45.5304 73.1246 40.529 68.1232 40.529 61.9145V55.3608H43.6333V61.9145C43.6333 66.3985 47.2551 70.0203 51.7391 70.0203H86.7493V73.1246Z" fill="#334142"/>
<path d="M25.8696 67.9508V64.8464C30.3536 64.8464 33.9754 61.2247 33.9754 56.7406V50.187H37.0797V56.7406C37.0797 62.9493 32.0783 67.9508 25.8696 67.9508Z" fill="#334142"/>
<path d="M62.9493 67.9508C56.7406 67.9508 51.7391 62.9493 51.7391 56.7406V50.187H54.8435V56.7406C54.8435 61.2247 58.4652 64.8464 62.9493 64.8464V67.9508Z" fill="#334142"/>
<path d="M99.5116 80.713V96.0623H96.5797V80.713C96.5797 78.9884 95.2 77.7811 93.6478 77.7811H81.7478C80.0232 77.7811 78.816 79.1608 78.816 80.713V96.0623H75.8841V80.713C75.8841 77.4362 78.6435 74.6768 81.9203 74.6768H93.8203C96.7522 74.6768 99.5116 77.4362 99.5116 80.713Z" fill="#334142"/>
<path d="M92.9579 47.9448H82.2651V83.4724H92.9579V47.9448Z" fill="#18979E"/>
<path opacity="0.5" d="M87.6115 47.9448H82.2651V83.4724H87.6115V47.9448Z" fill="white"/>
<path d="M87.4391 74.6768C88.4739 74.6768 89.3362 75.5391 89.3362 76.5739C89.3362 77.6086 88.4739 78.471 87.4391 78.471C86.4043 78.471 85.542 77.6086 85.542 76.5739C85.7145 75.5391 86.4043 74.6768 87.4391 74.6768Z" fill="white"/>
<path d="M38.1145 86.5764L31.2159 74.5039H17.0739L10.0029 86.5764L17.0739 98.8213H20.6956V95.372H18.971L13.9695 86.5764L18.971 77.7807H29.1463L34.3202 86.5764L29.1463 95.372H27.7666V98.8213H31.2159L38.1145 86.5764Z" fill="#334142"/>
<path d="M25.8695 59.3271H22.5927V73.2967H25.8695V59.3271Z" fill="#18979E"/>
<path d="M28.4565 71.7446H19.8333V80.3678H28.4565V71.7446Z" fill="#5D7A7F"/>
<path d="M25.5246 74.8486H22.9377V77.4356H25.5246V74.8486Z" fill="white"/>
<path d="M66.2261 56.3955H62.9493V84.3346H66.2261V56.3955Z" fill="#18979E"/>
<path d="M63.9598 82.1605L56.7648 89.3555L59.0819 91.6725L66.2769 84.4775L63.9598 82.1605Z" fill="#18979E"/>
<path d="M31.3884 55.3607C31.3884 59.3273 28.1116 62.6041 24.1449 62.6041C20.1783 62.6041 16.9014 59.3273 16.9014 55.3607C16.9014 51.394 20.1783 48.1172 24.1449 48.1172C28.1116 48.1172 31.3884 51.394 31.3884 55.3607Z" fill="#34595F"/>
<path d="M27.4217 55.3608C27.4217 57.0854 26.042 58.6376 24.1449 58.6376C22.4202 58.6376 20.8681 57.2579 20.8681 55.3608C20.8681 53.6362 22.2478 52.084 24.1449 52.084C25.8695 52.084 27.4217 53.4637 27.4217 55.3608Z" fill="#5D7A7F"/>
<g opacity="0.5">
<path d="M24.1449 62.6041C20.1783 62.6041 16.9014 59.3273 16.9014 55.3607C16.9014 51.394 20.1783 48.1172 24.1449 48.1172V62.6041Z" fill="white"/>
</g>
<path d="M71.9175 55.3607C71.9175 59.3273 68.6407 62.6041 64.674 62.6041C60.7073 62.6041 57.4305 59.3273 57.4305 55.3607C57.4305 51.394 60.7073 48.1172 64.674 48.1172C68.6407 48.1172 71.9175 51.394 71.9175 55.3607Z" fill="#34595F"/>
<path d="M67.9508 55.3608C67.9508 57.0854 66.5712 58.6376 64.674 58.6376C62.9494 58.6376 61.3972 57.2579 61.3972 55.3608C61.3972 53.6362 62.7769 52.084 64.674 52.084C66.3987 52.084 67.9508 53.4637 67.9508 55.3608Z" fill="#5D7A7F"/>
<g opacity="0.5">
<path d="M64.674 62.6041C60.7073 62.6041 57.4305 59.3273 57.4305 55.3607C57.4305 51.394 60.7073 48.1172 64.674 48.1172V62.6041Z" fill="white"/>
</g>
<path d="M94.855 55.3607C94.855 59.3273 91.5782 62.6041 87.6115 62.6041C83.6448 62.6041 80.368 59.3273 80.368 55.3607C80.368 51.394 83.6448 48.1172 87.6115 48.1172C91.5782 48.1172 94.855 51.394 94.855 55.3607Z" fill="#34595F"/>
<path d="M90.7159 55.3608C90.7159 57.0854 89.3362 58.6376 87.4391 58.6376C85.7144 58.6376 84.1622 57.2579 84.1622 55.3608C84.1622 53.6362 85.7144 52.084 87.4391 52.084C89.3362 52.084 90.7159 53.4637 90.7159 55.3608Z" fill="#5D7A7F"/>
<g opacity="0.5">
<path d="M87.4391 62.6041C83.4725 62.6041 80.1956 59.3273 80.1956 55.3607C80.1956 51.394 83.4725 48.1172 87.4391 48.1172V62.6041Z" fill="white"/>
</g>
<path d="M115.723 48.8072V37.0797L100.374 21.7304V17.2464L88.3015 5.17391H64.6739V0H41.9087L24.1449 17.7638V20.8681H17.5913V27.4217H10.8652L0 38.287V55.3609H27.0768V29.6638H64.6739V39.3217H100.374V55.3609H115.723H122.277V48.8072H115.723Z" fill="#8ADDFF"/>
<path d="M102.961 47.2552H100.374V39.3218H92.4405V28.974L86.7492 23.2827H75.5391V12.4175H64.6739V15.8668H38.4593L27.0768 27.4218V33.2856H17.5913V43.9783L6.20865 55.361H14.3144H43.1159V33.2856H64.6739V47.2552H89.8536V55.361H102.961H110.894L102.961 47.2552Z" fill="#24BFFF"/>
<path d="M82.4377 41.3912V33.8028H70.0203V30.526L64.8464 25.3521H41.9087V34.6651L34.6652 41.9086H27.0768V49.152H20.6956V55.3607H27.0768H48.8072H53.8087H89.8536V41.3912H82.4377Z" fill="#20A1D3"/>
<path d="M78.126 50.0144V41.3912L72.952 36.2173H53.8086V41.9086H48.4622V48.4622H41.9086L38.2869 52.084V55.3608H53.8086H62.7767H78.126H83.6448V50.0144H78.126Z" fill="#0076AA"/>
<path opacity="0.5" d="M17.5913 20.8682V27.4218V55.3609H20.6957H24.1449V20.8682H17.5913Z" fill="white"/>
<path opacity="0.5" d="M64.674 0H41.9088V55.3609H43.1161H48.8073H53.8088H62.7769H64.674V5.17391V0Z" fill="white"/>
<path d="M30.6985 119L29.3188 117.792L37.942 105.375L42.9435 110.376L30.6985 119Z" fill="#334142"/>
<path d="M53.6362 84.3345L37.942 105.375L40.529 107.79L58.8101 89.5084L53.6362 84.3345Z" fill="#FFAF00"/>
<path d="M64.1565 94.6822L58.8102 89.5083L40.529 107.789L42.9435 110.376L64.1565 94.6822Z" fill="#DE7300"/>
<path d="M67.4333 83.9896C67.4333 85.7142 66.0536 87.094 64.329 87.094C62.6043 87.094 61.2246 85.7142 61.2246 83.9896C61.2246 82.265 62.6043 80.8853 64.329 80.8853C66.0536 80.8853 67.4333 82.265 67.4333 83.9896Z" fill="#334142"/>
<path opacity="0.5" d="M24.1449 71.7451H19.8333V80.3683H24.1449V71.7451Z" fill="white"/>
<path opacity="0.5" d="M64.1565 94.6823L57.2579 99.8562L48.4623 91.233L53.6362 84.3345L64.1565 94.6823Z" fill="white"/>
</svg>