<svg width="115" height="117" viewBox="0 0 115 117" fill="none" xmlns="http://www.w3.org/2000/svg">
<path d="M62.1546 96.2141C62.1546 99.0393 64.9798 102.021 66.5494 102.492C67.4911 102.963 68.5898 103.277 69.8455 103.277C71.2581 103.277 72.9846 103.12 74.2403 102.492C77.5363 100.766 80.2046 97.7837 81.1463 94.1737C84.5994 93.5458 87.2676 90.4067 87.2676 86.7967C87.2676 86.6398 87.2676 86.4828 87.2676 86.3259C88.0524 86.6398 88.9941 86.7967 89.9359 86.7967C94.1737 86.7967 97.4698 83.3437 97.4698 79.2628C97.4698 77.0654 96.528 75.025 95.1154 73.7694V73.6124C99.1963 73.4554 102.335 70.1593 102.335 66.0785C102.335 62.6254 99.9811 59.8003 96.842 58.8585C97.9407 57.6029 98.5685 55.8763 98.5685 54.1498C98.5685 50.8537 96.3711 48.0285 93.3889 46.9298C94.1737 45.6742 94.8015 44.2615 94.8015 42.535C94.8015 38.2972 91.3485 35.0011 87.2676 35.0011C86.7968 35.0011 86.3259 35.0012 86.012 35.1581C86.1689 34.6872 86.1689 34.2164 86.1689 33.7455C86.1689 29.5077 82.7159 26.2116 78.635 26.2116C78.3211 26.2116 77.8503 26.2116 77.5363 26.3686C76.9085 22.9155 73.7694 20.2473 70.1594 20.2473C65.9216 20.2473 62.6255 23.7003 62.6255 27.7812V17.8929C62.6255 12.5564 67.0203 8.16162 72.3568 8.16162C77.0655 8.16162 81.1463 11.6147 81.9311 16.1664C82.402 16.1664 82.8729 16.0094 83.3437 16.0094C88.6802 16.0094 93.075 20.4042 93.075 25.7407C93.075 26.3686 93.075 26.9964 92.9181 27.6242C93.5459 27.4672 94.0167 27.4673 94.6446 27.4673C99.9811 27.4673 104.376 31.862 104.376 37.1985C104.376 39.239 103.748 41.2794 102.649 42.849C106.573 44.1046 109.398 47.8716 109.398 52.1094C109.398 54.4637 108.614 56.5041 107.201 58.2307C111.282 59.4863 114.264 63.0963 114.264 67.648C114.264 72.9845 110.026 77.2224 104.847 77.3793V77.5363C106.73 79.2628 107.986 81.9311 107.986 84.7563C107.986 90.0928 103.591 94.4876 98.2546 94.4876C96.9989 94.4876 95.9002 94.3306 94.8015 93.8597C94.8015 94.0167 94.8015 94.1736 94.8015 94.3306C94.8015 98.5684 91.9763 103.12 86.012 102.963C86.012 108.614 82.245 113.322 78.1642 115.049C77.0655 115.52 73.1416 116.461 70.7872 116.461C65.2938 116.461 62.6255 112.381 62.6255 110.183V98.7254V96.2141H62.1546Z" fill="#61E8CF"/>
<path d="M69.6885 19.6196C73.4555 19.6196 76.4376 22.2879 77.0655 25.7409C77.3794 25.7409 77.8502 25.5839 78.1641 25.5839C82.402 25.5839 85.698 29.037 85.698 33.1178C85.698 33.5887 85.698 34.0596 85.5411 34.5305C86.0119 34.3735 86.4828 34.3735 86.7967 34.3735C91.0346 34.3735 94.3306 37.8265 94.3306 41.9074C94.3306 43.4769 93.8598 45.0465 92.918 46.3022C95.9002 47.2439 98.0976 50.0691 98.0976 53.5221C98.0976 55.2487 97.4698 56.9752 96.3711 58.2308C99.5102 59.1726 101.865 61.9978 101.865 65.4508C101.865 69.5317 98.5685 72.8278 94.6445 72.9847V73.1417C96.0572 74.5543 96.9989 76.4377 96.9989 78.6351C96.9989 82.873 93.5458 86.1691 89.465 86.1691C88.5232 86.1691 87.5815 86.0121 86.7967 85.6982C86.7967 85.8551 86.7967 86.0121 86.7967 86.1691C86.7967 89.936 84.1285 92.9182 80.6754 93.546C79.7337 97.156 77.0654 100.138 73.7694 101.865C72.5137 102.493 70.9442 102.649 69.3746 102.649C68.2759 102.649 67.1772 102.336 66.0785 101.865C64.509 101.394 61.6837 98.4116 61.6837 95.5864V85.3843C61.9976 87.8956 64.195 89.936 66.8633 89.936C69.8455 89.936 72.1998 87.5817 72.1998 84.5995C72.1998 84.1286 72.1998 83.8147 72.0429 83.3438C72.5137 83.5008 73.1415 83.6578 73.7694 83.6578C76.7515 83.6578 79.1059 81.3034 79.1059 78.3213C79.1059 78.1643 79.1059 78.1643 79.1059 78.0073C79.7337 78.1643 80.3615 78.3213 80.9894 78.3213C83.9715 78.3213 86.3259 75.9669 86.3259 72.9847C86.3259 71.4152 85.698 70.0026 84.5994 69.0608C84.5994 69.0608 84.5994 69.0608 84.5994 68.9039C87.4246 68.7469 89.622 66.5495 89.622 63.5674C89.622 61.213 88.0524 59.1726 85.855 58.5448C86.6398 57.603 86.9537 56.5043 86.9537 55.2487C86.9537 52.8943 85.3841 50.8539 83.3437 50.2261C83.9715 49.4413 84.2854 48.3426 84.2854 47.2439C84.2854 44.2617 81.9311 41.9074 78.9489 41.9074C78.635 41.9074 78.3211 41.9074 78.0072 42.0644C78.0072 41.7504 78.1641 41.4365 78.1641 41.1226C78.1641 38.1404 75.8098 35.7861 72.8276 35.7861C72.5137 35.7861 72.3568 35.7861 72.0429 35.7861C71.572 33.2748 69.3746 31.5483 66.8633 31.5483C63.8811 31.5483 61.5268 33.9026 61.5268 36.8848V27.1535C62.1546 23.0726 65.4507 19.6196 69.6885 19.6196Z" fill="#18979E"/>
<path d="M90.0929 64.5088C90.0929 62.1545 88.5233 60.1141 86.3259 59.4862C87.1107 58.5445 87.4246 57.4458 87.4246 56.1901C87.4246 53.8358 85.855 51.7954 83.8146 51.1675C84.4424 50.3827 84.7563 49.2841 84.7563 48.1854C84.7563 45.2032 82.402 42.8489 79.4198 42.8489C79.1059 42.8489 78.792 42.8489 78.4781 43.0058C78.4781 42.6919 78.6351 42.378 78.6351 42.0641C78.6351 39.0819 76.2807 36.7276 73.2985 36.7276C72.9846 36.7276 72.8277 36.7276 72.5138 36.7276C72.0429 34.2163 69.8455 32.4897 67.3342 32.4897C64.352 32.4897 61.9977 34.8441 61.9977 37.8262V46.4588V77.5362V81.774V82.2449V86.3258C62.3116 88.8371 64.509 90.8775 67.1772 90.8775C70.1594 90.8775 72.5138 88.5231 72.5138 85.541C72.5138 85.0701 72.5138 84.7562 72.3568 84.2853C72.8277 84.4423 73.4555 84.5992 74.0833 84.5992C77.0655 84.5992 79.4198 82.2449 79.4198 79.2627C79.4198 79.1058 79.4198 79.1058 79.4198 78.9488C80.0477 79.1058 80.6755 79.2627 81.3033 79.2627C84.2855 79.2627 86.6398 76.9084 86.6398 73.9262C86.6398 72.3566 86.012 70.944 84.9133 70.0023C84.9133 70.0023 84.9133 70.0023 84.9133 69.8454C87.8955 69.5314 90.0929 67.334 90.0929 64.5088Z" fill="#127177"/>
<path d="M62.1547 10.6733H10.673V113.794H62.1547V10.6733Z" fill="#334142"/>
<path d="M0 0V103.12C0 108.928 4.70869 113.793 10.673 113.793V103.12V10.673C4.70869 10.673 0 5.80738 0 0Z" fill="#263132"/>
<path d="M62.1547 108.614H20.2474C17.5791 108.614 15.5387 106.416 15.5387 103.905V20.4045C15.5387 17.7362 17.7361 15.6958 20.2474 15.6958H62.1547V16.9514H20.2474C18.3639 16.9514 16.7944 18.521 16.7944 20.4045V103.905C16.7944 105.789 18.3639 107.358 20.2474 107.358H62.1547V108.614Z" fill="#1B8FBF"/>
<path d="M56.0335 61.8408C56.0335 59.0156 58.0739 56.5043 60.7422 55.8765L61.9978 55.5626V54.4639C57.9169 54.4639 54.6208 57.76 54.6208 61.8408C54.6208 65.9217 57.9169 69.2177 61.9978 69.2177V67.9621L60.7422 67.8051C58.0739 67.1773 56.0335 64.823 56.0335 61.8408Z" fill="#127177"/>
<path d="M62.1547 30.4497H58.2308L57.289 37.3558C54.7777 37.8266 52.4234 38.7684 50.383 39.8671L45.2034 35.1584L38.9252 40.4949L42.6921 46.4592C41.1226 48.3427 39.8669 50.5401 39.0821 52.8944L32.0191 52.5805L30.6065 60.7422L37.3556 62.9396C37.3556 65.4509 37.8265 67.9622 38.6113 70.1596L33.1178 74.3975L37.1987 81.4605L43.6338 78.7922C45.2034 80.6757 47.2439 82.2452 49.2843 83.5009L47.8717 90.407L55.5625 93.2322L58.8586 87.1109C59.9573 87.2679 61.213 87.4248 62.3117 87.4248V86.1692H61.056C60.4282 86.1692 59.6434 86.0122 59.0156 86.0122L58.0738 85.8552L57.603 86.64L54.9347 91.8196L49.2843 89.7791L50.5399 83.9718L50.6969 83.03L49.9121 82.5591C47.8717 81.3035 46.1452 79.8909 44.5756 78.0074L43.9478 77.3796L43.163 77.6935L37.6695 79.8909L34.6873 74.7113L39.396 71.1014L40.1808 70.4735L39.8669 69.5318C39.0821 67.3344 38.7682 64.9801 38.6113 62.6257V61.684L37.6695 61.3701L32.0191 59.6436L33.1178 53.6792L38.9252 53.8362H39.8669L40.1808 53.0514C41.1226 50.854 42.2212 48.8136 43.6338 46.9301L44.2617 46.1453L43.7908 45.3605L40.6517 40.3379L45.2034 36.414L49.5982 40.3379L50.226 40.9657L51.0108 40.4949C53.0512 39.3962 55.2486 38.6114 57.603 38.1406L58.5447 37.9836L58.7017 37.0418L59.4864 31.2345H61.056H62.3117V30.4497H62.1547Z" fill="#18979E"/>
<path d="M24.4852 62.3118C24.4852 82.5592 40.6517 99.1966 60.7421 99.8244H61.9977V98.5687C41.9073 98.5687 25.7409 82.2453 25.7409 62.3118C25.7409 42.2214 42.0643 26.0549 61.9977 26.0549V24.7993H60.7421C40.6517 25.4271 24.4852 42.0645 24.4852 62.3118Z" fill="#18979E"/>
<path d="M62.1547 22.1309C40.0238 22.1309 21.9738 40.1808 21.9738 62.3117C21.9738 84.4425 40.0238 102.492 62.1547 102.492V101.237H60.899C40.0238 100.609 23.3865 83.3438 23.3865 62.3117C23.3865 41.2795 40.1808 24.1713 60.899 23.3865H62.1547V22.1309Z" fill="#61E8CF"/>
<path d="M66.0786 54.4638V62.3116H62.1547V64.0382H66.0786V65.2938H62.1547V66.5495H66.0786V67.8051H62.1547V70.7873H70.6303C71.1012 70.7873 71.5721 70.4734 71.729 70.0025C71.729 69.8455 71.886 69.6886 71.886 69.5316V68.276V53.836V52.5804C71.886 52.2665 71.729 52.1095 71.5721 51.7956C71.4151 51.6386 71.2582 51.4817 71.1012 51.4817C70.9442 51.4817 70.7873 51.3247 70.6303 51.3247H62.1547V54.3069H66.0786V54.4638Z" fill="white"/>
<path d="M51.9526 74.0835H50.54V76.4378H51.9526V74.0835Z" fill="#FFAF00"/>
<path d="M54.6208 74.0835H53.2082V76.4378H54.6208V74.0835Z" fill="#FFAF00"/>
<path d="M57.446 74.0835H56.0334V76.4378H57.446V74.0835Z" fill="#FFAF00"/>
<path d="M60.1143 74.0835H58.7017V76.4378H60.1143V74.0835Z" fill="#FFAF00"/>
<path d="M61.3699 76.4378H62.7825V74.0835H62.1547H61.3699V76.4378Z" fill="#FFAF00"/>
<path d="M65.6077 74.0835H64.1951V76.4378H65.6077V74.0835Z" fill="#FFAF00"/>
<path d="M68.276 74.0835H66.8634V76.4378H68.276V74.0835Z" fill="#FFAF00"/>
<path d="M71.1011 74.0835H69.6885V76.4378H71.1011V74.0835Z" fill="#FFAF00"/>
<path d="M73.7694 74.0835H72.3568V76.4378H73.7694V74.0835Z" fill="#FFAF00"/>
<path d="M77.3794 71.415H75.0251V72.8276H77.3794V71.415Z" fill="#F68300"/>
<path d="M77.3794 68.7466H75.0251V70.1592H77.3794V68.7466Z" fill="#F68300"/>
<path d="M77.3794 65.9219H75.0251V67.3345H77.3794V65.9219Z" fill="#F68300"/>
<path d="M77.3794 63.2534H75.0251V64.666H77.3794V63.2534Z" fill="#F68300"/>
<path d="M77.3794 60.5854H75.0251V61.9981H77.3794V60.5854Z" fill="#F68300"/>
<path d="M77.3794 57.7598H75.0251V59.1724H77.3794V57.7598Z" fill="#F68300"/>
<path d="M75.0251 56.5044H77.3794V55.0918H75.0251V55.5627V56.5044Z" fill="#F68300"/>
<path d="M77.3794 52.4238H75.0251V53.8364H77.3794V52.4238Z" fill="#F68300"/>
<path d="M77.3794 49.5986H75.0251V51.0113H77.3794V49.5986Z" fill="#F68300"/>
<path d="M51.9526 45.9883H50.54V48.3426H51.9526V45.9883Z" fill="#FFAF00"/>
<path d="M54.6208 45.9883H53.2082V48.3426H54.6208V45.9883Z" fill="#FFAF00"/>
<path d="M57.446 45.9883H56.0334V48.3426H57.446V45.9883Z" fill="#FFAF00"/>
<path d="M60.1143 45.9883H58.7017V48.3426H60.1143V45.9883Z" fill="#FFAF00"/>
<path d="M62.7825 45.9883H61.3699V48.3426H62.7825V45.9883Z" fill="#FFAF00"/>
<path d="M65.6077 45.9883H64.1951V48.3426H65.6077V45.9883Z" fill="#FFAF00"/>
<path d="M68.276 45.9883H66.8634V48.3426H68.276V45.9883Z" fill="#FFAF00"/>
<path d="M71.1011 45.9883H69.6885V48.3426H71.1011V45.9883Z" fill="#FFAF00"/>
<path d="M73.7694 45.9883H72.3568V48.3426H73.7694V45.9883Z" fill="#FFAF00"/>
<path d="M71.4151 52.1099C71.5721 52.2668 71.729 52.5807 71.729 52.8946V54.1503V68.5903V69.8459C71.729 70.0029 71.729 70.1598 71.5721 70.3168C71.4151 70.7877 70.9443 71.1016 70.4734 71.1016H61.9977V74.3977H74.8682V73.142V71.7294V70.3168V68.9042V67.4916V66.079V64.6664V63.2538V61.8412V60.4286V59.0159V57.6033V56.1907V55.406L71.4151 52.1099Z" fill="#18979E"/>
<path d="M75.0251 49.5984V48.3428H73.7695H72.3569H70.9443H69.5317H68.1191H66.7065H65.2939H63.8813H62.4686H61.37H59.9574H58.5447H57.1321H55.7195H54.3069H52.8943H51.9526H50.54H49.2843H50.54H51.9526H53.3652H54.7778H56.1904H57.603H59.0156H60.4282H61.8408H62.4686V51.6389H70.9443C71.1013 51.6389 71.2582 51.6389 71.4151 51.7958C71.5721 51.9528 71.7291 51.9528 71.886 52.1097L75.496 55.7197V55.2488V53.8362V52.4236V51.011V49.5984H75.0251Z" fill="#18979E"/>
<path opacity="0.5" d="M55.5616 73.1406L54.9347 72.5137L55.0914 72.6704L55.5616 73.1406Z" fill="white"/>
<path opacity="0.5" d="M56.5043 74.0833L55.5626 73.1416L56.5043 74.0833Z" fill="white"/>
<path opacity="0.5" d="M52.4234 52.7374C52.4234 52.4235 52.5804 52.1096 52.7373 51.9526C52.5804 52.1096 52.4234 52.4235 52.4234 52.7374Z" fill="white"/>
<path opacity="0.5" d="M55.5618 73.1411L55.0916 72.6709L55.5618 73.1411Z" fill="white"/>
<path d="M53.2082 51.6392C53.0512 51.6392 52.8943 51.7961 52.8943 51.953C52.7373 52.11 52.5803 52.4239 52.5803 52.7378V53.9935V68.4334V69.6891C52.5803 70.16 52.7373 70.4739 53.0512 70.6309C53.2082 70.7878 53.5221 70.7878 53.679 70.7878H62.1547V67.9626H58.2308V66.707H62.1547V65.4513H58.2308V64.1957H62.1547V62.4691H58.2308V54.6213H62.1547V51.6392H53.679C53.5221 51.6392 53.3651 51.6392 53.2082 51.6392Z" fill="white"/>
<path opacity="0.5" d="M53.2082 51.6392C53.0512 51.6392 52.8943 51.7961 52.8943 51.953C52.7373 52.11 52.5803 52.4239 52.5803 52.7378V53.9935V68.4334V69.6891C52.5803 70.16 52.7373 70.4739 53.0512 70.6309C53.2082 70.7878 53.5221 70.7878 53.679 70.7878H62.1547V67.9626H58.2308V66.707H62.1547V65.4513H58.2308V64.1957H62.1547V62.4691H58.2308V54.6213H62.1547V51.6392H53.679C53.5221 51.6392 53.3651 51.6392 53.2082 51.6392Z" fill="white"/>
<path d="M53.679 70.7873C53.3651 70.7873 53.2082 70.6304 53.0512 70.6304L54.9347 72.5138L55.7195 73.2986L56.6612 74.2403H62.1547V70.9443H53.679V70.7873Z" fill="#18979E"/>
<path opacity="0.5" d="M53.679 70.7873C53.3651 70.7873 53.2082 70.6304 53.0512 70.6304L54.9347 72.5138L55.7195 73.2986L56.6612 74.2403H62.1547V70.9443H53.679V70.7873Z" fill="white"/>
<path d="M55.5626 73.1416L55.0917 72.6707L54.9347 72.5138L53.0513 70.6303C52.7374 70.4734 52.5804 70.0025 52.5804 69.6886V68.4329V53.9929V52.7373C52.5804 52.4234 52.7374 52.1094 52.8943 51.9525C53.0513 51.7955 53.0513 51.7956 53.2082 51.6386C53.3652 51.6386 53.5222 51.4816 53.6791 51.4816H62.1547V48.1855H61.37H59.9574H58.5447H57.1321H55.7195H54.3069H52.8943H51.9526H50.54H49.2843V49.4412V50.8538V52.2664V53.679V55.0916V56.5043V57.9169V59.3294V60.742V62.1546V63.5673V64.9799V66.3925V67.8051V69.2177V70.6303V72.0429V73.4555V74.7111H56.6613L55.5626 73.1416Z" fill="#18979E"/>
<path opacity="0.5" d="M55.5626 73.1416L55.0917 72.6707L54.9347 72.5138L53.0513 70.6303C52.7374 70.4734 52.5804 70.0025 52.5804 69.6886V68.4329V53.9929V52.7373C52.5804 52.4234 52.7374 52.1094 52.8943 51.9525C53.0513 51.7955 53.0513 51.7956 53.2082 51.6386C53.3652 51.6386 53.5222 51.4816 53.6791 51.4816H62.1547V48.1855H61.37H59.9574H58.5447H57.1321H55.7195H54.3069H52.8943H51.9526H50.54H49.2843V49.4412V50.8538V52.2664V53.679V55.0916V56.5043V57.9169V59.3294V60.742V62.1546V63.5673V64.9799V66.3925V67.8051V69.2177V70.6303V72.0429V73.4555V74.7111H56.6613L55.5626 73.1416Z" fill="white"/>
<path opacity="0.5" d="M62.1546 64.1958H58.2307V65.4514H62.1546V64.1958Z" fill="white"/>
<path d="M62.1546 64.1958H58.2307V65.4514H62.1546H66.0786V64.1958H62.1546Z" fill="#334142"/>
<path d="M58.2307 66.707V67.9627H62.1546H66.0786V66.707H62.1546H58.2307Z" fill="#334142"/>
<path d="M49.1274 71.4155H46.773V72.8281H49.1274V71.4155Z" fill="#FFAF00"/>
<path d="M49.1274 68.7471H46.773V70.1597H49.1274V68.7471Z" fill="#FFAF00"/>
<path d="M49.1274 65.9219H46.773V67.3345H49.1274V65.9219Z" fill="#FFAF00"/>
<path d="M49.1274 63.2539H46.773V64.6665H49.1274V63.2539Z" fill="#FFAF00"/>
<path d="M49.1274 60.5854H46.773V61.9981H49.1274V60.5854Z" fill="#FFAF00"/>
<path d="M49.1274 57.7603H46.773V59.1729H49.1274V57.7603Z" fill="#FFAF00"/>
<path d="M49.1274 55.0918H46.773V56.5044H49.1274V55.0918Z" fill="#FFAF00"/>
<path d="M49.1274 52.4238H46.773V53.8364H49.1274V52.4238Z" fill="#FFAF00"/>
<path d="M49.1274 49.5986H46.773V51.0113H49.1274V49.5986Z" fill="#FFAF00"/>
<path d="M62.1547 54.4644H58.2308V62.3122H62.1547H66.0786V54.4644H62.1547Z" fill="#FFAF00"/>
<path d="M55.5619 73.1411L55.0917 72.6709L55.5619 73.1411Z" fill="#FFAF00"/>
<path opacity="0.5" d="M62.1546 54.4639H58.2307V62.3117H62.1546V54.4639Z" fill="white"/>
<path opacity="0.5" d="M54.7778 10.5161H35.943V113.636H54.7778V10.5161Z" fill="white"/>
<path opacity="0.5" d="M62.1547 17.4223V27.3105V37.6697V46.3022V77.3796V81.6174V82.0883V86.1691V96.3713V98.0978V109.556C62.1547 111.753 64.666 115.52 69.5316 115.834V8.00488C65.2938 8.94662 62.1547 12.8705 62.1547 17.4223Z" fill="white"/>
</svg>