<svg width="121" height="105" viewBox="0 0 121 105" fill="none" xmlns="http://www.w3.org/2000/svg">
<path d="M32.6449 97.2754V98.7592H28.0285L34.6234 104.035H35.2829V97.2754H32.6449Z" fill="#18979E"/>
<path d="M19.9496 20.939V15.1685L14.1791 20.7741V20.939H19.9496Z" fill="#18979E"/>
<path d="M43.8564 58.5299V54.7378H37.4263C36.9316 57.046 34.7883 58.8596 32.3152 58.8596C29.8421 58.8596 27.6987 57.046 27.2041 54.7378H23.9067V58.5299H18.4658V54.7378H15.663V58.5299H14.1791V66.7736C16.8171 67.4331 18.7956 70.2359 18.1361 73.2036C17.6415 75.1821 16.1576 76.666 14.1791 77.1606C11.2114 77.8201 8.40852 76.0065 7.74903 73.2036H0.164892C-0.164855 74.6875 0.329745 76.3362 1.48386 77.3255L21.2687 93.1533H32.48V94.6372H35.118V88.2071H32.48V89.691H21.2687V84.2502H32.6449V85.734H37.9209V88.2071V94.6372V97.1103V103.87H40.394V80.9527L35.4478 76.0065C34.2937 76.8309 32.9747 77.1606 31.4908 76.9957C29.1826 76.666 27.369 74.8524 27.0392 72.5442C26.3798 68.7521 29.6772 65.6194 33.4693 66.4438C35.118 66.7736 36.6019 68.0926 37.2614 69.7413C37.9209 71.39 37.5912 72.709 37.0965 74.028L42.8671 79.7986V103.705H45.3402V58.2001H43.8564V58.5299Z" fill="#18979E"/>
<path d="M32.3153 56.2219C33.8632 56.2219 35.1181 54.9671 35.1181 53.4191C35.1181 51.8711 33.8632 50.6162 32.3153 50.6162C30.7673 50.6162 29.5124 51.8711 29.5124 53.4191C29.5124 54.9671 30.7673 56.2219 32.3153 56.2219Z" fill="#18979E"/>
<path d="M11.7061 66.7736V58.5299H10.2222V54.7378H4.78138L0.659546 70.7305H7.74908C8.2437 68.7521 9.7276 67.2682 11.7061 66.7736Z" fill="#18979E"/>
<path d="M10.2221 47.154H11.706V27.8638L5.4408 52.265H10.2221V47.154Z" fill="#18979E"/>
<path d="M15.6629 52.2649H18.4657V47.1539H19.9496V23.4121H14.1791V47.1539H15.6629V52.2649Z" fill="#18979E"/>
<path d="M52.9243 104.035C56.0569 104.035 58.6949 101.397 58.6949 98.2644V54.7378H52.9243V104.035Z" fill="#18979E"/>
<path d="M30.8312 15.0035C30.8312 16.4874 32.1502 17.8064 33.6341 17.8064C35.118 17.8064 36.437 16.4874 36.437 15.0035C36.437 13.5197 35.118 12.2007 33.6341 12.2007C31.9854 12.2007 30.8312 13.5197 30.8312 15.0035Z" fill="#18979E"/>
<path d="M47.8133 20.1148V42.043H58.695V16.3228H51.7702C51.2756 18.1364 49.7918 19.7851 47.8133 20.1148Z" fill="#18979E"/>
<path d="M45.3402 44.6808V42.2077V20.2795C43.3617 19.7849 41.8778 18.301 41.3832 16.3225H38.7452C38.2506 18.301 36.7667 19.7849 34.7883 20.2795V33.4694H36.2721V44.8456H30.8313V33.4694H32.3152V20.2795C30.0069 19.7849 28.1933 17.6415 28.1933 15.1684C28.1933 12.6953 30.0069 10.552 32.3152 10.0573V2.96777L22.4228 12.8602V21.1039H25.5553H28.0284V23.577V33.4694H29.5123V44.8456H24.0715V33.4694H25.5553V23.577H22.4228V47.3187H23.9066V52.2649H27.2041C27.6987 49.9567 29.8421 48.1431 32.3152 48.1431C34.7883 48.1431 36.9316 49.9567 37.4262 52.2649H43.8563V47.3187H49.2971V58.695H47.8133V104.2H50.2864V54.9029V52.4298H52.7595H58.53V44.8456H47.6484H45.3402V44.6808Z" fill="#18979E"/>
<path d="M34.9531 0.494629V9.89243C36.9316 10.3871 38.4155 11.8709 38.9101 13.8494H41.548C42.0427 11.5412 44.186 9.72755 46.6591 9.72755C49.1322 9.72755 51.2756 11.5412 51.7702 13.8494H58.6949V6.2652C58.6949 3.1326 56.0569 0.494629 52.9243 0.494629H34.9531Z" fill="#18979E"/>
<path d="M51.7702 16.3225H58.6949V13.8494H51.7702C51.2756 11.5412 49.1322 9.72755 46.6591 9.72755C44.186 9.72755 42.0426 11.5412 41.548 13.8494H38.9101C38.4155 11.8709 36.9316 10.3871 34.9531 9.89243V0.494629H34.7883L32.48 2.80287V9.89243C30.1718 10.3871 28.3582 12.5304 28.3582 15.0035C28.3582 17.4766 30.1718 19.62 32.48 20.1146V33.3044H30.9961V44.6807H36.437V33.3044H34.9531V20.1146C36.9316 19.62 38.4155 18.1361 38.9101 16.1576H41.548C42.0426 18.1361 43.5266 19.62 45.505 20.1146V42.0428V44.5159H47.9781H58.8597V42.0428H47.9781V20.1146C49.7917 19.7848 51.2756 18.1361 51.7702 16.3225ZM33.6341 17.8063C32.1503 17.8063 30.8313 16.4874 30.8313 15.0035C30.8313 13.5196 32.1503 12.2007 33.6341 12.2007C35.118 12.2007 36.437 13.5196 36.437 15.0035C36.437 16.4874 35.118 17.8063 33.6341 17.8063ZM43.6914 15.0035C43.6914 13.5196 45.0104 12.2007 46.4942 12.2007C47.9781 12.2007 49.2971 13.5196 49.2971 15.0035C49.2971 16.4874 47.9781 17.8063 46.4942 17.8063C45.0104 17.8063 43.6914 16.4874 43.6914 15.0035Z" fill="#FFAF00"/>
<path d="M36.9317 74.3581C37.2614 73.6986 37.5912 72.8742 37.5912 72.0498C37.5912 69.0821 35.1181 66.7739 32.3152 66.7739C29.3475 66.7739 27.0393 69.247 27.0393 72.0498C27.0393 75.0176 29.5124 77.3258 32.3152 77.3258C33.4694 77.3258 34.6235 76.9961 35.4478 76.3366L40.394 81.2828V104.2H42.8671V80.2935L36.9317 74.3581ZM32.3152 74.8527C30.8314 74.8527 29.5124 73.5337 29.5124 72.0498C29.5124 70.566 30.8314 69.247 32.3152 69.247C33.7991 69.247 35.1181 70.566 35.1181 72.0498C35.1181 73.5337 33.7991 74.8527 32.3152 74.8527Z" fill="#FFAF00"/>
<path d="M50.2864 52.2646V54.7377V104.035H52.9244V54.7377H58.695V52.2646H52.9244H50.2864Z" fill="#FFAF00"/>
<path d="M32.645 84.415H21.2687V89.8559H32.645V88.372H35.2829V94.8021H32.645V93.3182H21.2687L28.0285 98.759H32.645V97.2752H35.2829V104.035H37.7561V97.2752V94.8021V88.372V85.8989H32.645V84.415Z" fill="#FFAF00"/>
<path d="M43.8563 52.2651H37.4262C36.9316 49.9569 34.7883 48.1433 32.3152 48.1433C29.8421 48.1433 27.6987 49.9569 27.2041 52.2651H23.9066V47.3189H22.4228V23.5771H25.5554V33.4695H24.0715V44.8458H29.5123V33.4695H28.0285V23.5771V21.104H25.5554H22.4228V12.8604L19.9497 15.3335V21.104H14.344V20.9392L14.1791 21.104L13.5196 21.7635L13.3548 21.9284L11.706 28.0287V47.3189H10.2221V52.2651H5.4408L4.78132 54.7382H10.2221V58.5303H11.706V66.774C9.72754 67.2686 8.24364 68.7525 7.74902 70.7309H0.659484L0 73.204H7.58419C8.07881 75.5123 10.2221 77.3259 12.6952 77.3259C15.6629 77.3259 17.9712 74.8528 17.9712 72.0499C17.9712 69.5768 16.1576 67.4335 13.8494 66.9389V58.6952H15.3332V54.9031H18.1361V58.6952H23.5769V54.9031H26.8743C27.369 57.2113 29.5123 59.0249 31.9854 59.0249C34.4585 59.0249 36.6019 57.2113 37.0965 54.9031H43.5266V58.6952H45.0104V104.2H47.4835V58.6952H48.9674V47.3189H43.5266V52.2651H43.8563ZM15.8279 72.0499C15.8279 73.5338 14.5089 74.8528 13.025 74.8528C11.5411 74.8528 10.2221 73.5338 10.2221 72.0499C10.2221 70.566 11.5411 69.2471 13.025 69.2471C14.5089 69.2471 15.8279 70.4012 15.8279 72.0499ZM15.663 52.2651V47.3189H14.1791V23.5771H19.7848V47.3189H18.301V52.2651H15.663ZM32.3152 56.3869C30.8313 56.3869 29.5123 55.068 29.5123 53.5841C29.5123 52.1002 30.8313 50.7812 32.3152 50.7812C33.7991 50.7812 35.118 52.1002 35.118 53.5841C35.118 55.068 33.7991 56.3869 32.3152 56.3869Z" fill="#FFAF00"/>
<path d="M46.4943 17.8064C47.9781 17.8064 49.2972 16.4874 49.2972 15.0035C49.2972 13.5197 47.9781 12.2007 46.4943 12.2007C45.0104 12.2007 43.6915 13.5197 43.6915 15.0035C43.6915 16.4874 45.0104 17.8064 46.4943 17.8064Z" fill="white"/>
<path d="M46.4942 17.8063C47.9781 17.8063 49.2971 16.4873 49.2971 15.0034C49.462 16.4873 48.143 17.8063 46.4942 17.8063Z" fill="white"/>
<path d="M46.4943 17.8063C45.0104 17.8063 43.6915 16.4873 43.6915 15.0034C43.6915 16.4873 45.0104 17.8063 46.4943 17.8063Z" fill="white"/>
<path d="M49.462 15.0035C49.462 13.5197 48.143 12.2007 46.6591 12.2007C48.143 12.2007 49.462 13.5197 49.462 15.0035Z" fill="white"/>
<path d="M46.4943 12.2007C45.0104 12.2007 43.6915 13.5197 43.6915 15.0035C43.6915 13.5197 45.0104 12.2007 46.4943 12.2007Z" fill="white"/>
<path d="M35.1181 72.0499C35.1181 70.566 33.7991 69.2471 32.3153 69.2471C30.8314 69.2471 29.5124 70.566 29.5124 72.0499C29.5124 73.5337 30.8314 74.8528 32.3153 74.8528C33.7991 74.8528 35.1181 73.5337 35.1181 72.0499Z" fill="white"/>
<path d="M29.3474 72.0498C29.3474 73.5337 30.6665 74.8527 32.1503 74.8527C30.6665 74.8527 29.3474 73.5337 29.3474 72.0498Z" fill="white"/>
<path d="M32.3152 69.2471C30.8314 69.2471 29.5124 70.566 29.5124 72.0499C29.3475 70.4012 30.6665 69.2471 32.3152 69.2471Z" fill="white"/>
<path d="M35.118 72.0499C35.118 70.566 33.799 69.2471 32.3152 69.2471C33.799 69.2471 35.118 70.4012 35.118 72.0499Z" fill="white"/>
<path d="M32.3152 74.8527C33.799 74.8527 35.118 73.5337 35.118 72.0498C35.118 73.5337 33.799 74.8527 32.3152 74.8527Z" fill="white"/>
<path d="M13.0249 69.2471C11.5411 69.2471 10.2221 70.566 10.2221 72.0499C10.2221 73.5337 11.5411 74.8528 13.0249 74.8528C14.5088 74.8528 15.8278 73.5337 15.8278 72.0499C15.8278 70.566 14.5088 69.2471 13.0249 69.2471Z" fill="white"/>
<path d="M13.0251 74.8527C14.5089 74.8527 15.8279 73.5337 15.8279 72.0498C15.8279 73.5337 14.5089 74.8527 13.0251 74.8527Z" fill="white"/>
<path d="M13.0249 69.2471C11.5411 69.2471 10.2221 70.566 10.2221 72.0499C10.2221 70.4012 11.3762 69.2471 13.0249 69.2471Z" fill="white"/>
<path d="M10.2221 72.0498C10.2221 73.5337 11.5411 74.8527 13.0249 74.8527C11.3762 74.8527 10.2221 73.5337 10.2221 72.0498Z" fill="white"/>
<path d="M15.8279 72.0499C15.8279 70.566 14.5089 69.2471 13.0251 69.2471C14.5089 69.2471 15.8279 70.4012 15.8279 72.0499Z" fill="white"/>
<path d="M88.537 97.2754V98.7592H92.9886L86.3937 104.035H85.8991V97.2754H88.537Z" fill="#037777"/>
<path d="M101.232 20.939V15.1685L106.838 20.7741V20.939H101.232Z" fill="#037777"/>
<path d="M77.1607 58.5299V54.7378H83.5908C84.0854 57.046 86.2288 58.8596 88.7019 58.8596C91.175 58.8596 93.3183 57.046 93.813 54.7378H97.1104V58.5299H102.551V54.7378H105.354V58.5299H106.838V66.7736C104.2 67.4331 102.222 70.2359 102.881 73.2036C103.376 75.1821 104.859 76.666 106.838 77.1606C109.806 77.8201 112.609 76.0065 113.268 73.2036H120.852C121.182 74.6875 120.687 76.3362 119.533 77.3255L99.7484 93.1533H88.537V94.6372H85.8991V88.2071H88.537V89.691H99.9133V84.2502H88.537V85.734H83.2611V88.2071V94.6372V97.1103V103.87H80.788V80.9527L85.7342 76.0065C86.8883 76.8309 88.2073 77.1606 89.6911 76.9957C91.9994 76.666 93.813 74.8524 94.1427 72.5442C94.8022 68.7521 91.5047 65.6194 87.7126 66.4438C86.0639 66.7736 84.58 68.0926 83.9206 69.7413C83.2611 71.39 83.5908 72.709 84.0854 74.028L78.3149 79.7986V103.705H75.8418V58.2001H77.1607V58.5299Z" fill="#036969"/>
<path d="M88.8668 56.3869C87.383 56.3869 86.064 55.068 86.064 53.5841C86.064 52.1003 87.383 50.7812 88.8668 50.7812C90.3507 50.7812 91.6697 52.1003 91.6697 53.5841C91.6697 55.068 90.3507 56.3869 88.8668 56.3869Z" fill="#8ADDFF"/>
<path d="M109.311 66.7736V58.5299H110.795V54.7378H116.236L120.358 70.7305H113.268C112.773 68.7521 111.29 67.2682 109.311 66.7736Z" fill="#037777"/>
<path d="M110.795 47.154H109.311V27.8638L115.576 52.265H110.795V47.154Z" fill="#037777"/>
<path d="M105.354 52.2649H102.716V47.1539H101.232V23.4121H106.838V47.1539H105.354V52.2649Z" fill="#037777"/>
<path d="M68.2576 104.035C65.125 104.035 62.4871 101.397 62.4871 98.2644V54.7378H68.2576V104.035Z" fill="#037777"/>
<path d="M90.3507 15.0035C90.3507 16.4874 89.0317 17.8064 87.5479 17.8064C86.064 17.8064 84.745 16.4874 84.745 15.0035C84.745 13.5197 86.064 12.2007 87.5479 12.2007C89.0317 12.2007 90.3507 13.5197 90.3507 15.0035Z" fill="#8ADDFF"/>
<path d="M73.2038 20.1148V42.043H62.4871V16.3228H69.4118C69.7415 18.1364 71.3902 19.7851 73.2038 20.1148Z" fill="#037777"/>
<path d="M75.8418 44.6808V42.2077V20.2795C77.8203 19.7849 79.3042 18.301 79.7988 16.3225H82.4368C82.9314 18.301 84.4152 19.7849 86.3937 20.2795V33.4694H84.9099V44.8456H90.3507V33.4694H88.8668V20.2795C91.175 19.7849 92.9886 17.6415 92.9886 15.1684C92.9886 12.6953 91.175 10.552 88.8668 10.0573V2.96777L98.7592 12.8602V21.1039H95.6266H93.1535V23.577V33.4694H91.6697V44.8456H97.1105V33.4694H95.6266V23.577H98.7592V47.3187H97.2754V52.2649H93.9779C93.4833 49.9567 91.3399 48.1431 88.8668 48.1431C86.3937 48.1431 84.2503 49.9567 83.7557 52.2649H77.3257V47.3187H71.8849V58.695H73.3687V104.2H70.7307V54.9029V52.4298H68.2576H62.4871V44.8456H73.3687H75.8418V44.6808Z" fill="#037777"/>
<path d="M86.2288 0.494629V9.89243C84.2503 10.3871 82.7665 11.8709 82.2719 13.8494H79.6339C79.1393 11.5412 76.9959 9.72755 74.5228 9.72755C72.0497 9.72755 69.9064 11.5412 69.4118 13.8494H62.4871V6.2652C62.4871 3.1326 65.125 0.494629 68.2576 0.494629H86.2288Z" fill="#037777"/>
<path d="M73.2038 20.1146V42.0428H62.4871V44.5159H73.3687H75.8418V42.0428V20.1146C77.8203 19.62 79.3042 18.1361 79.7988 16.1576H82.4368C82.9314 18.1361 84.4152 19.62 86.3937 20.1146V33.3044H84.9099V44.6807H90.3507V33.3044H88.8668V20.1146C91.175 19.62 92.9886 17.4766 92.9886 15.0035C92.9886 12.5304 91.175 10.3871 88.8668 9.89243V2.80287L86.5586 0.494629H86.3937V9.89243C84.4152 10.3871 82.9314 11.8709 82.4368 13.8494H79.7988C79.3042 11.5412 77.1608 9.72755 74.6877 9.72755C72.2146 9.72755 70.0712 11.5412 69.5766 13.8494H62.4871V16.3225H69.4118C69.7415 18.1361 71.3902 19.7848 73.2038 20.1146ZM84.5801 15.0035C84.5801 13.5196 85.8991 12.2007 87.383 12.2007C88.8668 12.2007 90.1858 13.5196 90.1858 15.0035C90.1858 16.4874 88.8668 17.8063 87.383 17.8063C85.8991 17.8063 84.5801 16.4874 84.5801 15.0035ZM74.5228 17.8063C73.0389 17.8063 71.72 16.4874 71.72 15.0035C71.72 13.5196 73.0389 12.2007 74.5228 12.2007C76.0067 12.2007 77.3257 13.5196 77.3257 15.0035C77.3257 16.4874 76.0067 17.8063 74.5228 17.8063Z" fill="#F68300"/>
<path d="M78.3149 80.1285V104.035H80.788V81.1177L85.7342 76.1715C86.5586 76.831 87.7127 77.1608 88.8668 77.1608C91.8345 77.1608 94.1427 74.6877 94.1427 71.8849C94.1427 68.9171 91.6696 66.6089 88.8668 66.6089C85.899 66.6089 83.5908 69.082 83.5908 71.8849C83.5908 72.7092 83.7557 73.5336 84.2503 74.1931L78.3149 80.1285ZM86.0639 72.0497C86.0639 70.5658 87.3829 69.2469 88.8668 69.2469C90.3506 69.2469 91.6696 70.5658 91.6696 72.0497C91.6696 73.5336 90.3506 74.8526 88.8668 74.8526C87.3829 74.8526 86.0639 73.5336 86.0639 72.0497Z" fill="#F68300"/>
<path d="M70.7307 52.2646V54.7377V104.035H68.2576V54.7377H62.4871V52.2646H68.2576H70.7307Z" fill="#F68300"/>
<path d="M88.537 84.415H99.7484V89.8559H88.537V88.372H85.8991V94.8021H88.537V93.3182H99.7484L92.9886 98.759H88.537V97.2752H85.8991V104.035H83.2611V97.2752V94.8021V88.372V85.8989H88.537V84.415Z" fill="#F68300"/>
<path d="M77.1607 47.1539H71.7199V58.5301H73.2038V104.035H75.6769V58.5301H77.1607V54.738H83.5908C84.0854 57.0462 86.2288 58.8598 88.7019 58.8598C91.175 58.8598 93.3183 57.0462 93.813 54.738H97.1104V58.5301H102.551V54.738H105.354V58.5301H106.838V66.7738C104.53 67.2684 102.716 69.4118 102.716 71.8849C102.716 74.8526 105.189 77.1608 107.992 77.1608C110.465 77.1608 112.609 75.3472 113.103 73.039H120.687L120.028 70.5659H112.938C112.444 68.5874 110.96 67.1035 108.981 66.6089V58.3652H110.465V54.5732H115.906L115.247 52.1001H110.465V47.1539H108.981V27.8637L107.333 21.7634L107.168 21.5985L106.508 20.939L106.343 20.7741V20.939H100.738V15.1684L98.2646 12.6953V20.939H95.1319H92.6588V23.4121V33.3045H91.175V44.6808H96.6158V33.3045H95.1319V23.4121H98.2646V47.1539H96.7807V52.1001H93.4832C92.9886 49.7919 90.8453 47.9782 88.3722 47.9782C85.8991 47.9782 83.7557 49.7919 83.2611 52.1001H76.831V47.1539H77.1607ZM108.157 69.2469C109.641 69.2469 110.96 70.5659 110.96 72.0497C110.96 73.5336 109.641 74.8526 108.157 74.8526C106.673 74.8526 105.354 73.5336 105.354 72.0497C105.354 70.401 106.508 69.2469 108.157 69.2469ZM102.716 52.2649V47.3187H101.232V23.5769H106.838V47.3187H105.354V52.2649H102.716ZM86.0639 53.419C86.0639 51.9352 87.3829 50.6162 88.8668 50.6162C90.3506 50.6162 91.6696 51.9352 91.6696 53.419C91.6696 54.9029 90.3506 56.2219 88.8668 56.2219C87.218 56.3868 86.0639 55.0678 86.0639 53.419Z" fill="#F68300"/>
<path d="M74.5228 17.8064C73.0389 17.8064 71.7199 16.4874 71.7199 15.0035C71.7199 13.5197 73.0389 12.2007 74.5228 12.2007C76.0066 12.2007 77.3256 13.5197 77.3256 15.0035C77.3256 16.4874 76.0066 17.8064 74.5228 17.8064Z" fill="#037777"/>
<path d="M74.5228 17.8063C73.0389 17.8063 71.7199 16.4873 71.7199 15.0034C71.7199 16.4873 73.0389 17.8063 74.5228 17.8063Z" fill="white"/>
<path d="M74.5228 17.8063C76.0067 17.8063 77.3257 16.4873 77.3257 15.0034C77.3257 16.4873 76.0067 17.8063 74.5228 17.8063Z" fill="white"/>
<path d="M71.7199 15.0035C71.7199 13.5197 73.0389 12.2007 74.5228 12.2007C73.0389 12.2007 71.7199 13.5197 71.7199 15.0035Z" fill="white"/>
<path d="M74.5228 12.2007C76.0067 12.2007 77.3257 13.5197 77.3257 15.0035C77.3257 13.5197 76.0067 12.2007 74.5228 12.2007Z" fill="white"/>
<path d="M86.064 72.0499C86.064 70.566 87.383 69.2471 88.8668 69.2471C90.3507 69.2471 91.6697 70.566 91.6697 72.0499C91.6697 73.5337 90.3507 74.8528 88.8668 74.8528C87.2181 74.8528 86.064 73.5337 86.064 72.0499Z" fill="#037777"/>
<path d="M91.6697 72.0498C91.6697 73.5337 90.3507 74.8527 88.8668 74.8527C90.3507 74.8527 91.6697 73.5337 91.6697 72.0498Z" fill="white"/>
<path d="M88.8668 69.2471C90.3507 69.2471 91.6697 70.566 91.6697 72.0499C91.6697 70.4012 90.3507 69.2471 88.8668 69.2471Z" fill="white"/>
<path d="M86.064 72.0499C86.064 70.566 87.383 69.2471 88.8668 69.2471C87.2181 69.2471 86.064 70.4012 86.064 72.0499Z" fill="white"/>
<path d="M88.8668 74.8527C87.383 74.8527 86.064 73.5337 86.064 72.0498C86.064 73.5337 87.2181 74.8527 88.8668 74.8527Z" fill="white"/>
<path d="M108.157 69.2471C109.641 69.2471 110.96 70.566 110.96 72.0499C110.96 73.5337 109.641 74.8528 108.157 74.8528C106.673 74.8528 105.354 73.5337 105.354 72.0499C105.354 70.566 106.508 69.2471 108.157 69.2471Z" fill="#037777"/>
<path d="M108.157 74.8527C106.673 74.8527 105.354 73.5337 105.354 72.0498C105.354 73.5337 106.508 74.8527 108.157 74.8527Z" fill="white"/>
<path d="M108.157 69.2471C109.641 69.2471 110.96 70.566 110.96 72.0499C110.96 70.4012 109.641 69.2471 108.157 69.2471Z" fill="white"/>
<path d="M110.96 72.0498C110.96 73.5337 109.641 74.8527 108.157 74.8527C109.641 74.8527 110.96 73.5337 110.96 72.0498Z" fill="white"/>
<path d="M105.354 72.0499C105.354 70.566 106.673 69.2471 108.157 69.2471C106.508 69.2471 105.354 70.4012 105.354 72.0499Z" fill="white"/>
<path opacity="0.7" d="M32.48 2.63796L22.5876 12.5304L20.1145 15.0035L14.5089 20.6092L14.344 20.774L13.6845 21.4335L13.5196 21.5984L11.8709 27.6987L5.6057 51.9351L4.94621 54.4082L0.824376 70.4009L0.164892 72.874C-0.164855 74.3579 0.329745 76.0066 1.48386 76.9959L21.2687 92.8237L28.0285 98.2646L34.6234 103.54V0L32.48 2.63796Z" fill="#57F7FF"/>
<path opacity="0.7" d="M68.2576 0.494629H86.2288H86.3937V104.035H85.7342H83.2611H80.788H78.3149H75.8418H73.3687H70.7307H68.2576C65.125 104.035 62.4871 101.397 62.4871 98.2646V54.738V52.2649V44.6807V42.2076V16.3225V13.8494V6.2652C62.4871 2.96773 64.9602 0.494629 68.2576 0.494629Z" fill="white"/>
<path opacity="0.4" d="M96.2861 53.4188C96.2861 57.5407 92.9887 60.8381 88.8668 60.8381C84.745 60.8381 81.4475 57.5407 81.4475 53.4188C81.4475 49.297 84.745 45.9995 88.8668 45.9995C92.9887 45.9995 96.2861 49.4619 96.2861 53.4188Z" fill="white"/>
<path d="M92.6588 53.419C92.6588 55.5624 91.0101 57.2111 88.8667 57.2111C86.7234 57.2111 85.0746 55.5624 85.0746 53.419C85.0746 51.2757 86.7234 49.627 88.8667 49.627C91.0101 49.627 92.6588 51.4405 92.6588 53.419Z" fill="white"/>
<path opacity="0.4" d="M94.9671 15.0038C94.9671 19.1256 91.6696 22.4231 87.5478 22.4231C83.4259 22.4231 80.1284 19.1256 80.1284 15.0038C80.1284 10.8819 83.4259 7.58447 87.5478 7.58447C91.5047 7.58447 94.9671 10.8819 94.9671 15.0038Z" fill="white"/>
<path d="M91.3399 15.0035C91.3399 17.1469 89.6911 18.7956 87.5478 18.7956C85.4044 18.7956 83.7557 17.1469 83.7557 15.0035C83.7557 12.8602 85.4044 11.2114 87.5478 11.2114C89.5263 11.2114 91.3399 12.8602 91.3399 15.0035Z" fill="white"/>
<path opacity="0.4" d="M53.9135 15.0038C53.9135 19.1256 50.6161 22.4231 46.4942 22.4231C42.3724 22.4231 39.0749 19.1256 39.0749 15.0038C39.0749 10.8819 42.3724 7.58447 46.4942 7.58447C50.6161 7.58447 53.9135 10.8819 53.9135 15.0038Z" fill="white"/>
<path d="M50.4513 15.0035C50.4513 17.1469 48.8025 18.7956 46.6592 18.7956C44.5158 18.7956 42.8671 17.1469 42.8671 15.0035C42.8671 12.8602 44.5158 11.2114 46.6592 11.2114C48.8025 11.2114 50.4513 12.8602 50.4513 15.0035Z" fill="white"/>
<path opacity="0.4" d="M39.7345 72.0497C39.7345 76.1715 36.437 79.469 32.3151 79.469C28.1933 79.469 24.8958 76.1715 24.8958 72.0497C24.8958 67.9278 28.1933 64.6304 32.3151 64.6304C36.437 64.6304 39.7345 67.9278 39.7345 72.0497Z" fill="white"/>
<path d="M36.1073 72.0494C36.1073 74.1927 34.4585 75.8415 32.3152 75.8415C30.1718 75.8415 28.5231 74.1927 28.5231 72.0494C28.5231 69.906 30.1718 68.2573 32.3152 68.2573C34.4585 68.2573 36.1073 69.906 36.1073 72.0494Z" fill="white"/>
<path opacity="0.4" d="M20.4444 72.0497C20.4444 76.1715 17.1469 79.469 13.025 79.469C8.90321 79.469 5.60574 76.1715 5.60574 72.0497C5.60574 67.9278 8.90321 64.6304 13.025 64.6304C17.1469 64.6304 20.4444 67.9278 20.4444 72.0497Z" fill="white"/>
<path d="M16.817 72.0496C16.817 74.1929 15.1683 75.8417 13.0249 75.8417C10.8816 75.8417 9.23288 74.1929 9.23288 72.0496C9.23288 69.9062 10.8816 68.2575 13.0249 68.2575C15.1683 68.0926 16.817 69.9062 16.817 72.0496Z" fill="white"/>
</svg>