<svg width="122" height="126" viewBox="0 0 122 126" fill="none" xmlns="http://www.w3.org/2000/svg">
<path d="M60.6949 0C58.4145 0 56.4849 1.92961 56.4849 4.21006C56.4849 6.31508 57.8882 7.89386 59.8178 8.24469V29.9966H61.3966V8.24469C63.3262 7.89386 64.7296 6.13966 64.7296 4.21006C64.7296 1.92961 62.9754 0 60.6949 0ZM60.6949 6.66592C59.2916 6.66592 58.0636 5.43799 58.0636 4.03464C58.0636 2.63128 59.2916 1.40335 60.6949 1.40335C62.0983 1.40335 63.3262 2.63128 63.3262 4.03464C63.1508 5.61341 62.0983 6.66592 60.6949 6.66592Z" fill="#18979E"/>
<path d="M66.3084 12.6299H64.7296V28.9438H66.3084V12.6299Z" fill="#18979E"/>
<path d="M52.6258 20.8751H54.2045V14.3846H55.0816V5.78906H51.7487V14.3846H52.6258V20.8751Z" fill="#18979E"/>
<path d="M47.7139 14.3846H48.591V5.78906H45.4335V14.3846H46.1351V18.9455L46.3106 19.2963L54.2044 27.3656L55.4323 26.3131L47.7139 18.5947V14.3846Z" fill="#18979E"/>
<path d="M41.2235 14.3846H42.1006V5.78906H38.7676V14.3846H39.6447V20.8751V21.2259L48.4156 29.9969L49.6436 28.9444L41.2235 20.5243V14.3846Z" fill="#18979E"/>
<path d="M61.7475 29.9968C61.7475 29.4706 61.2212 28.9443 60.6949 28.9443H28.5932C28.4178 28.9443 28.2424 28.9443 28.2424 28.9443C28.067 28.9443 28.067 29.1198 27.8916 29.1198L23.3307 33.6807C23.1553 33.8561 23.1553 33.8561 23.1553 34.0315C23.1553 34.2069 23.1553 34.2069 23.1553 34.3823V45.7846C23.1553 46.3108 23.6815 46.8371 24.2078 46.8371C24.734 46.8371 25.2603 46.3108 25.2603 45.7846V35.084L29.2949 31.0494H59.1162C58.9408 31.0494 58.5899 31.2248 58.4145 31.4002L42.8022 47.0125C42.4514 47.3633 42.4514 48.065 42.8022 48.4158C42.9776 48.5913 43.3284 48.7667 43.5039 48.7667C43.6793 48.7667 44.0301 48.5913 44.2056 48.4158L59.8178 32.8036C59.8178 32.8036 59.8178 32.8036 59.8178 32.6281V47.5387C59.8178 48.065 60.3441 48.5913 60.8704 48.5913C61.3966 48.5913 61.9229 48.065 61.9229 47.5387V32.4527C61.9229 31.9265 61.3966 31.4002 60.8704 31.4002C60.5195 31.4002 60.1687 31.5756 59.9933 31.9265C59.9933 31.751 59.8178 31.4002 59.6424 31.2248C59.467 31.0494 59.2916 30.8739 58.9407 30.8739H60.6949C61.2212 31.0494 61.7475 30.5231 61.7475 29.9968Z" fill="#18979E"/>
<path d="M75.6056 37.1889H69.9922L63.8525 31.0493C63.5017 30.6984 62.8 30.6984 62.4492 31.0493C62.0983 31.4001 62.0983 32.1018 62.4492 32.4526L68.9397 38.9431C69.1151 39.1185 69.1151 39.1185 69.2905 39.1185C69.4659 39.1185 69.4659 39.1185 69.6414 39.1185H74.7285V48.0649C74.7285 48.5912 75.2548 49.1174 75.781 49.1174C76.3073 49.1174 76.8335 48.5912 76.8335 48.0649V38.2414C76.6581 37.7152 76.1318 37.1889 75.6056 37.1889Z" fill="#18979E"/>
<path d="M106.83 48.2402L86.6569 28.067C86.4815 27.8916 86.4815 27.8916 86.3061 27.8916C86.1307 27.8916 86.1307 27.8916 85.9553 27.8916H62.7999C62.2737 27.8916 61.7474 28.4179 61.7474 28.9441C61.7474 29.4704 62.2737 29.9966 62.7999 29.9966H74.553L83.4994 38.943V47.7139C83.4994 48.2402 84.0257 48.7665 84.5519 48.7665C85.0782 48.7665 85.6044 48.2402 85.6044 47.7139V38.4167C85.6044 38.2413 85.6044 38.0659 85.6044 38.0659C85.6044 37.8905 85.429 37.8905 85.429 37.7151L77.7105 29.9966H85.7798L105.602 49.819C105.778 49.9944 106.128 50.1698 106.304 50.1698C106.479 50.1698 106.83 49.9944 107.006 49.819C107.181 49.2927 107.181 48.7665 106.83 48.2402Z" fill="#18979E"/>
<path d="M32.9788 89.2881H31.0492V92.2702H32.9788V89.2881Z" fill="#7D9599"/>
<path d="M95.7788 89.2881H93.8492V92.2702H95.7788V89.2881Z" fill="#7D9599"/>
<path d="M95.7788 78.4121H93.8492V81.9205H95.7788V78.4121Z" fill="#7D9599"/>
<path d="M27.0145 89.2881H25.0848V92.2702H27.0145V89.2881Z" fill="#7D9599"/>
<path d="M37.0134 92.0948H38.943V89.2881H37.0134V92.0948Z" fill="#7D9599"/>
<path d="M100.164 75.4302L99.4626 74.7285C99.638 75.0794 99.8134 75.4302 99.8134 75.781V92.2704H101.743V89.2883H100.164V82.0961H101.743V78.5877H100.164V75.4302Z" fill="#7D9599"/>
<path d="M89.2883 76.3075L87.3586 74.3779L87.5341 74.5533L89.2883 76.3075Z" fill="#9EAFB2"/>
<path d="M100.164 75.4303L99.2871 74.5532C99.2871 74.5532 99.2871 74.7286 99.4625 74.7286L100.164 75.4303Z" fill="#9EAFB2"/>
<path d="M89.2882 76.4827L87.5341 74.7285C87.7095 75.0794 87.8849 75.4302 87.8849 75.781V92.2704H89.8145V89.2883H89.2882V82.0961H89.8145V78.5877H89.2882V76.4827Z" fill="#7D9599"/>
<path d="M118.057 89.2884H110.865V82.0962H112.619L107.356 76.6582V78.4124H105.602V82.0962H107.356V89.2884H105.602V92.0951H121.39V90.6917L118.057 87.3588V89.2884Z" fill="#7D9599"/>
<path d="M78.0615 82.0961C78.2369 82.0961 78.4123 82.0961 78.5877 82.0961H84.0257V78.5878H78.5877V71.3956H85.7799V73.8515H85.9553C86.4816 73.8515 87.0078 74.2023 87.5341 74.5531L89.4637 76.4827V71.3956H96.6559V74.3777C97.0067 74.0269 97.3575 73.8515 97.8838 73.8515C98.5855 73.8515 99.1117 74.2023 99.4626 74.5531L100.34 75.4302V71.3956H107.532V76.6582L112.97 82.0961H118.232V87.3587L121.565 90.6917V46.1353H0.175415V92.2704H15.6123V89.2883H14.2089V82.0961H15.6123V78.5878H3.50839V71.3956H21.4011V77.009V75.7811C21.4011 74.7286 22.2782 73.8515 23.3307 73.8515C24.0324 73.8515 24.5587 74.2023 24.9095 74.7285V71.3956H32.1017V75.9565L33.1542 77.009V75.7811C33.1542 74.7286 34.0313 73.8515 35.0838 73.8515C35.2592 73.8515 35.4346 73.8515 35.61 74.0269V71.3956H42.8022V78.5878H40.5218L44.0302 82.0961H64.2033V89.2883H51.2224L54.2045 92.2704H78.2369V82.0961H78.0615ZM110.865 49.8191H118.057V57.0112H110.865V49.8191ZM110.865 60.5196H118.057V78.4123H110.865V60.5196ZM100.164 49.8191H107.356V57.0112H100.164V49.8191ZM100.164 60.5196H107.356V67.7118H100.164V60.5196ZM89.2883 49.8191H96.4805V57.0112H89.2883V49.8191ZM89.2883 60.5196H96.4805V67.7118H89.2883V60.5196ZM78.5877 49.8191H85.7799V57.0112H78.5877V49.8191ZM78.5877 60.5196H85.7799V67.7118H78.5877V60.5196ZM10.3497 82.0961V89.2883H3.15753V82.0961H10.3497ZM10.3497 67.7118H3.15753V60.5196H10.3497V67.7118ZM10.3497 56.8358H3.15753V49.6436H10.3497V56.8358ZM21.2257 67.7118H14.0335V60.5196H21.2257V67.7118ZM21.2257 56.8358H14.0335V49.6436H21.2257V56.8358ZM31.9263 67.7118H24.7341V60.5196H31.9263V67.7118ZM31.9263 56.8358H24.7341V49.6436H31.9263V56.8358ZM42.6268 67.7118H35.4346V60.5196H42.6268V67.7118ZM42.6268 56.8358H35.4346V49.6436H42.6268V56.8358ZM53.5028 78.4123H46.3106V71.2202H53.5028V78.4123ZM53.5028 67.7118H46.3106V60.5196H53.5028V67.7118ZM53.5028 56.8358H46.3106V49.6436H53.5028V56.8358ZM64.2033 78.4123H57.0112V71.2202H64.2033V78.4123ZM64.2033 67.7118H57.0112V60.5196H64.2033V67.7118ZM64.2033 56.8358H57.0112V49.6436H64.2033V56.8358ZM74.9039 89.2883H67.7117V82.0961H74.9039V89.2883ZM74.9039 78.4123H67.7117V71.2202H74.9039V78.4123ZM74.9039 67.7118H67.7117V60.5196H74.9039V67.7118ZM74.9039 56.8358H67.7117V49.6436H74.9039V56.8358Z" fill="#9EAFB2"/>
<path d="M31.0492 78.412V82.0958H32.9788V76.8333L31.9263 75.7808V78.412H31.0492Z" fill="#7D9599"/>
<path d="M19.2961 78.4123V82.0961H21.2257V89.2882H19.2961V92.0949H21.2257V77.0089V76.8335V78.4123H19.2961Z" fill="#7D9599"/>
<path d="M37.0134 82.0959H44.0302L40.3464 78.4121H37.0134V82.0959Z" fill="#7D9599"/>
<path d="M42.8022 89.2881V92.0948H54.2045L51.2224 89.2881H42.8022Z" fill="#7D9599"/>
<path d="M27.0145 78.4121H25.0848V81.9205H27.0145V78.4121Z" fill="#7D9599"/>
<path d="M82.0961 92.0948H84.0257V89.2881H82.0961V92.0948Z" fill="#7D9599"/>
<path d="M10.3497 49.8188H3.15747V57.011H10.3497V49.8188Z" fill="#D8DFE0"/>
<path d="M21.2257 49.8188H14.0336V57.011H21.2257V49.8188Z" fill="#D8DFE0"/>
<path d="M31.9262 49.8188H24.734V57.011H31.9262V49.8188Z" fill="#D8DFE0"/>
<path d="M42.6269 49.8188H35.4347V57.011H42.6269V49.8188Z" fill="#D8DFE0"/>
<path d="M53.5027 49.8188H46.3105V57.011H53.5027V49.8188Z" fill="#D8DFE0"/>
<path d="M64.2034 49.8188H57.0112V57.011H64.2034V49.8188Z" fill="#D8DFE0"/>
<path d="M75.0794 49.8188H67.8872V57.011H75.0794V49.8188Z" fill="#D8DFE0"/>
<path d="M85.7799 49.8188H78.5877V57.011H85.7799V49.8188Z" fill="#D8DFE0"/>
<path d="M96.4805 49.8188H89.2883V57.011H96.4805V49.8188Z" fill="#D8DFE0"/>
<path d="M107.356 49.8188H100.164V57.011H107.356V49.8188Z" fill="#D8DFE0"/>
<path d="M118.057 49.8188H110.865V57.011H118.057V49.8188Z" fill="#D8DFE0"/>
<path d="M10.3497 60.5195H3.15747V67.7117H10.3497V60.5195Z" fill="#D8DFE0"/>
<path d="M21.2257 60.5195H14.0336V67.7117H21.2257V60.5195Z" fill="#D8DFE0"/>
<path d="M31.9262 60.5195H24.734V67.7117H31.9262V60.5195Z" fill="#D8DFE0"/>
<path d="M42.6269 60.5195H35.4347V67.7117H42.6269V60.5195Z" fill="#D8DFE0"/>
<path d="M53.5027 60.5195H46.3105V67.7117H53.5027V60.5195Z" fill="#D8DFE0"/>
<path d="M64.2034 60.5195H57.0112V67.7117H64.2034V60.5195Z" fill="#D8DFE0"/>
<path d="M75.0794 60.5195H67.8872V67.7117H75.0794V60.5195Z" fill="#D8DFE0"/>
<path d="M85.7799 60.5195H78.5877V67.7117H85.7799V60.5195Z" fill="#D8DFE0"/>
<path d="M96.4805 60.5195H89.2883V67.7117H96.4805V60.5195Z" fill="#D8DFE0"/>
<path d="M107.356 60.5195H100.164V67.7117H107.356V60.5195Z" fill="#D8DFE0"/>
<path d="M118.057 60.5195H110.865V78.4123H118.057V60.5195Z" fill="#D8DFE0"/>
<path d="M17.3665 73.6761C18.0682 73.6761 18.5944 74.0269 18.9453 74.5532L21.2257 76.8336V71.2202H3.33301V78.4124H15.4369V75.6057C15.2615 74.5532 16.314 73.6761 17.3665 73.6761Z" fill="#D8DFE0"/>
<path d="M19.296 75.781V78.5877H21.2256V77.009L18.9452 74.7285C19.1206 74.9039 19.296 75.2548 19.296 75.781Z" fill="#9EAFB2"/>
<path d="M31.0492 75.7812V78.5879H31.9263V75.9566L30.5229 74.5532C30.8738 74.7286 31.0492 75.2549 31.0492 75.7812Z" fill="#9EAFB2"/>
<path d="M27.1899 77.0089V75.781C27.1899 74.7285 28.067 73.8514 29.1195 73.8514C29.6457 73.8514 30.172 74.2022 30.5228 74.553L30.3474 74.3776L30.5228 74.553L31.9262 75.9564V71.3955H24.734V74.7285C24.734 74.7285 24.734 74.7285 24.734 74.9039L27.1899 77.0089Z" fill="#D8DFE0"/>
<path d="M25.0848 75.7809V78.5876H27.0145V77.1843L24.734 74.9038C25.0848 74.9038 25.0848 75.2546 25.0848 75.7809Z" fill="#9EAFB2"/>
<path d="M37.0134 75.781V78.5877H40.5218L36.6626 74.7285C36.838 74.9039 37.0134 75.2548 37.0134 75.781Z" fill="#9EAFB2"/>
<path d="M36.6625 74.5532L40.5217 78.4124H42.8022V71.2202H35.61V73.8515C35.9608 74.0269 36.3117 74.2023 36.6625 74.5532Z" fill="#D8DFE0"/>
<path d="M53.5027 71.2202H46.3105V78.4124H53.5027V71.2202Z" fill="#D8DFE0"/>
<path d="M64.2034 71.2202H57.0112V78.4124H64.2034V71.2202Z" fill="#D8DFE0"/>
<path d="M75.0794 71.2202H67.8872V78.4124H75.0794V71.2202Z" fill="#D8DFE0"/>
<path d="M78.5877 71.2202V78.4124H84.0257V75.6057C84.0257 74.5532 84.7274 73.8515 85.7799 73.6761V71.2202H78.5877Z" fill="#D8DFE0"/>
<path d="M93.8492 75.7809V78.5876H95.7787V77.1843L93.4983 74.9038C93.6737 75.0792 93.8492 75.4301 93.8492 75.7809Z" fill="#5D7A7F"/>
<path d="M93.4983 74.7285L95.7787 77.009L93.4983 74.7285Z" fill="#D8DFE0"/>
<path d="M89.2883 71.2203V76.3075L89.8145 76.8337V75.6058C89.8145 74.5533 90.6916 73.6762 91.7441 73.6762C92.4458 73.6762 92.9721 74.027 93.3229 74.5533L95.6034 76.8337V75.6058C95.6034 75.0796 95.9542 74.5533 96.305 74.027V71.0449H89.2883V71.2203Z" fill="#D8DFE0"/>
<path d="M89.2883 76.4825L89.8145 77.0088V76.8334L89.2883 76.3071V76.4825Z" fill="#D8DFE0"/>
<path d="M89.2883 78.412H89.8145V77.0087L89.2883 76.4824V78.412Z" fill="#5D7A7F"/>
<path d="M107.356 71.2202H100.164V75.4303L101.743 77.009V75.7811C101.743 74.7286 102.62 73.8515 103.673 73.8515C104.199 73.8515 104.725 74.0269 105.076 74.5532L107.356 76.8336V71.2202Z" fill="#D8DFE0"/>
<path d="M107.356 76.6584L105.076 74.3779C105.427 74.7288 105.602 75.255 105.602 75.6059V78.4126H107.356V76.6584Z" fill="#5D7A7F"/>
<path d="M100.164 78.4123H101.743V77.0089L100.164 75.4302V78.4123Z" fill="#5D7A7F"/>
<path d="M100.164 75.4302L101.743 77.0089V76.8335L100.164 75.4302Z" fill="#D8DFE0"/>
<path d="M10.3497 82.0962H3.15747V89.2884H10.3497V82.0962Z" fill="#D8DFE0"/>
<path d="M15.4369 82.0962H14.0336V89.2884H15.4369V82.0962Z" fill="#D8DFE0"/>
<path d="M21.2257 82.0962H19.2961V89.2884H21.2257V82.0962Z" fill="#9EAFB2"/>
<path d="M32.9788 82.0962H31.0492V89.2884H32.9788V82.0962Z" fill="#9EAFB2"/>
<path d="M64.2033 89.2884V82.0962H44.0302L51.2223 89.2884H64.2033Z" fill="#D8DFE0"/>
<path d="M37.0134 89.2884H38.943V85.9554C38.943 83.8504 40.6972 82.0962 42.8023 82.0962V89.2884H51.2224L44.0302 82.0962H37.0134V89.2884Z" fill="#9EAFB2"/>
<path d="M27.0145 82.0962H25.0848V89.2884H27.0145V82.0962Z" fill="#9EAFB2"/>
<path d="M75.0794 82.0962H67.8872V89.2884H75.0794V82.0962Z" fill="#D8DFE0"/>
<path d="M81.219 83.6749L83.8503 86.3062L81.0436 83.4995C81.219 83.4995 81.219 83.6749 81.219 83.6749Z" fill="#D8DFE0"/>
<path d="M78.5877 82.0958C79.6402 82.2712 80.5173 82.7975 81.219 83.4992L84.0257 86.3059V81.9204L78.5877 82.0958Z" fill="#D8DFE0"/>
<path d="M82.0961 85.9556V89.2886H84.0257V86.4819L81.3944 83.8506C81.7452 84.3768 82.0961 85.0785 82.0961 85.9556Z" fill="#5D7A7F"/>
<path d="M95.7788 82.0962H93.8492V89.2884H95.7788V82.0962Z" fill="#5D7A7F"/>
<path d="M89.8145 82.0962H89.2883V89.2884H89.8145V82.0962Z" fill="#5D7A7F"/>
<path d="M101.743 82.0962H100.164V89.2884H101.743V82.0962Z" fill="#5D7A7F"/>
<path d="M107.356 82.0962H105.602V89.2884H107.356V82.0962Z" fill="#5D7A7F"/>
<path d="M118.057 82.0962H112.619L118.057 87.3588V82.0962Z" fill="#D8DFE0"/>
<path d="M110.865 89.2884H118.057V87.3588L112.619 82.0962H110.865V89.2884Z" fill="#5D7A7F"/>
<path d="M105.076 74.3777C104.725 74.0269 104.199 73.676 103.673 73.676C102.62 73.676 101.743 74.5531 101.743 75.6056V76.8336V78.2369V81.7453V88.9375V91.9196H99.8134V75.4302C99.8134 75.0794 99.638 74.7286 99.4626 74.3777C99.4626 74.3777 99.4626 74.2023 99.2871 74.2023C98.9363 73.676 98.4101 73.5006 97.7084 73.5006C97.1821 73.5006 96.8313 73.676 96.4805 74.0269C96.1296 74.3777 95.7788 74.904 95.7788 75.6056V76.8336V78.2369V81.7453V88.9375V91.9196H93.8492V88.9375V81.7453V78.2369V75.4302C93.8492 75.0794 93.6737 74.7286 93.4983 74.3777C93.1475 73.8515 92.6212 73.5006 91.9196 73.5006C90.867 73.5006 89.9899 74.3777 89.9899 75.4302V76.6582V78.0615V81.5699V88.7621V91.7442H88.0603V75.2548C88.0603 74.904 87.8849 74.5531 87.7095 74.2023L87.5341 74.0269C87.1832 73.676 86.657 73.3252 85.9553 73.3252H85.7799C84.7274 73.5006 84.0257 74.2023 84.0257 75.2548V78.0615V81.5699V85.9554V88.7621V91.7442V94.7263H82.0961V92.095V89.1129V85.9554C82.0961 85.0783 81.7453 84.3766 81.3944 83.6749L81.219 83.4995C80.5173 82.7978 79.6402 82.2716 78.5877 82.0961C78.4123 82.0961 78.2369 82.0961 78.0615 82.0961V92.2704V102.971C78.0615 103.848 78.4123 104.725 79.114 105.251L80.6927 106.83C81.5698 107.707 82.0961 108.935 82.0961 110.163C82.0961 110.514 82.0961 110.689 82.0961 111.04H93.4983H105.602C105.602 110.689 105.602 110.163 105.602 109.812V94.7263V92.095V89.1129V81.9207V78.4123V75.6056C105.602 75.2548 105.427 74.7286 105.076 74.3777ZM85.9553 97.7084C85.0782 97.7084 84.3765 97.0068 84.3765 96.1297C84.3765 95.2526 85.0782 94.5509 85.9553 94.5509C86.8324 94.5509 87.5341 95.2526 87.5341 96.1297C87.5341 97.0068 86.8324 97.7084 85.9553 97.7084ZM91.9196 97.7084C91.0425 97.7084 90.3408 97.0068 90.3408 96.1297C90.3408 95.2526 91.0425 94.5509 91.9196 94.5509C92.7966 94.5509 93.4983 95.2526 93.4983 96.1297C93.3229 97.0068 92.6212 97.7084 91.9196 97.7084ZM97.7084 97.7084C96.8313 97.7084 96.1296 97.0068 96.1296 96.1297C96.1296 95.2526 96.8313 94.5509 97.7084 94.5509C98.5855 94.5509 99.2871 95.2526 99.2871 96.1297C99.2871 97.0068 98.5855 97.7084 97.7084 97.7084ZM103.673 97.7084C102.796 97.7084 102.094 97.0068 102.094 96.1297C102.094 95.2526 102.796 94.5509 103.673 94.5509C104.55 94.5509 105.251 95.2526 105.251 96.1297C105.076 97.0068 104.374 97.7084 103.673 97.7084Z" fill="#EAAF9B"/>
<path d="M103.673 94.7261C102.796 94.7261 102.094 95.4278 102.094 96.3048C102.094 97.1819 102.796 97.8836 103.673 97.8836C104.55 97.8836 105.251 97.1819 105.251 96.3048C105.076 95.4278 104.374 94.7261 103.673 94.7261Z" fill="#CC9185"/>
<path d="M97.7084 94.7261C96.8313 94.7261 96.1296 95.4278 96.1296 96.3048C96.1296 97.1819 96.8313 97.8836 97.7084 97.8836C98.5855 97.8836 99.2871 97.1819 99.2871 96.3048C99.2871 95.4278 98.5855 94.7261 97.7084 94.7261Z" fill="#CC9185"/>
<path d="M91.9195 94.7261C91.0424 94.7261 90.3408 95.4278 90.3408 96.3048C90.3408 97.1819 91.0424 97.8836 91.9195 97.8836C92.7966 97.8836 93.4983 97.1819 93.4983 96.3048C93.3229 95.4278 92.6212 94.7261 91.9195 94.7261Z" fill="#CC9185"/>
<path d="M85.9553 94.7261C85.0782 94.7261 84.3765 95.4278 84.3765 96.3048C84.3765 97.1819 85.0782 97.8836 85.9553 97.8836C86.8323 97.8836 87.534 97.1819 87.534 96.3048C87.534 95.4278 86.8323 94.7261 85.9553 94.7261Z" fill="#CC9185"/>
<path d="M93.4983 125.6H94.2C102.269 125.6 108.76 119.11 108.76 111.041H105.602H93.4983V125.6Z" fill="#334142"/>
<path d="M82.096 111.041H78.2368C78.2368 119.11 84.7273 125.6 92.7966 125.6H93.4983V111.041H82.096Z" fill="#34595F"/>
<path d="M60.695 40.697C66.6048 40.697 71.3956 35.9062 71.3956 29.9965C71.3956 24.0867 66.6048 19.2959 60.695 19.2959C54.7853 19.2959 49.9945 24.0867 49.9945 29.9965C49.9945 35.9062 54.7853 40.697 60.695 40.697Z" fill="#34595F"/>
<path d="M60.695 17.7173C53.8536 17.7173 48.4156 23.1553 48.4156 29.9966C48.4156 36.838 53.8536 42.2759 60.695 42.2759C67.5363 42.2759 72.9743 36.838 72.9743 29.9966C72.9743 23.3307 67.3609 17.7173 60.695 17.7173ZM60.695 40.6972C54.7307 40.6972 49.9944 35.9609 49.9944 29.9966C49.9944 24.0324 54.7307 19.2961 60.695 19.2961C66.6592 19.2961 71.3955 24.0324 71.3955 29.9966C71.3955 35.9609 66.4838 40.6972 60.695 40.6972Z" fill="#18979E"/>
<path d="M65.6067 29.9967C65.6067 32.8034 63.3262 34.9084 60.6949 34.9084C57.8882 34.9084 55.7832 32.628 55.7832 29.9967C55.7832 27.19 58.0637 25.085 60.6949 25.085C63.3262 25.085 65.6067 27.3654 65.6067 29.9967Z" fill="#8ADDFF"/>
<path d="M60.6949 32.9784C59.1161 32.9784 57.7128 31.5751 57.7128 29.9963C57.7128 28.4175 59.1161 27.0142 60.6949 27.0142C62.2737 27.0142 63.677 28.4175 63.677 29.9963C63.677 31.5751 62.2737 32.9784 60.6949 32.9784Z" fill="#D0F1FF"/>
<path opacity="0.4" d="M68.5887 29.9964C68.5887 34.3819 65.0804 37.8902 60.6949 37.8902C56.3094 37.8902 52.801 34.3819 52.801 29.9964C52.801 25.6109 56.3094 22.1025 60.6949 22.1025C65.0804 22.1025 68.5887 25.6109 68.5887 29.9964Z" fill="white"/>
<path d="M64.7296 29.9961C64.7296 32.2765 62.9754 34.0307 60.6949 34.0307C58.4145 34.0307 56.6603 32.2765 56.6603 29.9961C56.6603 27.7156 58.4145 25.9614 60.6949 25.9614C62.7999 25.9614 64.7296 27.7156 64.7296 29.9961Z" fill="white"/>
<path opacity="0.65" d="M57.0112 46.1353H0V92.2704H57.0112V46.1353Z" fill="white"/>
<path d="M42.8022 82.0961C40.6972 82.0961 38.943 83.8503 38.943 85.9554V89.2883V92.2704V94.7263H37.0134V92.095V89.1129V81.9207V78.4123V75.6056C37.0134 75.2548 36.838 74.904 36.6626 74.5531C36.4872 74.2023 35.9609 73.8515 35.61 73.8515C35.4346 73.8515 35.2592 73.676 35.0838 73.676C34.0313 73.676 33.1542 74.5531 33.1542 75.6056V76.8336V81.9207V89.1129V92.095H31.2246V89.1129V81.9207V78.4123V75.6056C31.2246 75.0794 31.0492 74.7286 30.6983 74.3777C30.3475 74.0269 29.8212 73.676 29.295 73.676C28.2425 73.676 27.3654 74.5531 27.3654 75.6056V76.8336V78.2369V81.7453V88.9375V91.9196H25.4358V88.9375V81.7453V78.2369V75.4302C25.4358 75.0794 25.2603 74.7286 25.0849 74.3777C25.0849 74.3777 25.0849 74.3777 25.0849 74.2023C24.7341 73.676 24.2078 73.3252 23.5061 73.3252C22.4536 73.3252 21.5765 74.2023 21.5765 75.2548V76.4827V91.7442H19.6469V88.7621V81.5699V78.0615V75.2548C19.6469 74.904 19.4715 74.5531 19.2961 74.2023C18.9453 73.676 18.419 73.3252 17.7173 73.3252C16.6648 73.3252 15.7877 74.2023 15.7877 75.2548V78.0615V81.5699V88.7621V91.7442V94.7263V109.812C15.7877 110.163 15.7877 110.689 15.7877 111.04H27.8916H39.2939C39.2939 110.689 39.2939 110.514 39.2939 110.163C39.2939 108.935 39.8201 107.707 40.6972 106.83L42.276 105.251C42.9776 104.55 43.3285 103.848 43.3285 102.971V92.2704V89.2883V82.0961H42.8022ZM17.3665 97.7084C16.4894 97.7084 15.7877 97.0068 15.7877 96.1297C15.7877 95.2526 16.4894 94.5509 17.3665 94.5509C18.2436 94.5509 18.9452 95.2526 18.9452 96.1297C18.7698 97.0068 18.0682 97.7084 17.3665 97.7084ZM23.1553 97.7084C22.2782 97.7084 21.5765 97.0068 21.5765 96.1297C21.5765 95.2526 22.2782 94.5509 23.1553 94.5509C24.0324 94.5509 24.7341 95.2526 24.7341 96.1297C24.7341 97.0068 24.0324 97.7084 23.1553 97.7084ZM29.1195 97.7084C28.2425 97.7084 27.5408 97.0068 27.5408 96.1297C27.5408 95.2526 28.2425 94.5509 29.1195 94.5509C29.9966 94.5509 30.6983 95.2526 30.6983 96.1297C30.5229 97.0068 29.9966 97.7084 29.1195 97.7084ZM34.9084 97.7084C34.0313 97.7084 33.3296 97.0068 33.3296 96.1297C33.3296 95.2526 34.0313 94.5509 34.9084 94.5509C35.7855 94.5509 36.4871 95.2526 36.4871 96.1297C36.4871 97.0068 35.7855 97.7084 34.9084 97.7084Z" fill="#EAAF9B"/>
<path d="M17.3665 94.7261C16.4894 94.7261 15.7877 95.4278 15.7877 96.3048C15.7877 97.1819 16.4894 97.8836 17.3665 97.8836C18.2436 97.8836 18.9452 97.1819 18.9452 96.3048C18.7698 95.4278 18.0682 94.7261 17.3665 94.7261Z" fill="#CC9185"/>
<path d="M23.1553 94.7261C22.2782 94.7261 21.5765 95.4278 21.5765 96.3048C21.5765 97.1819 22.2782 97.8836 23.1553 97.8836C24.0324 97.8836 24.7341 97.1819 24.7341 96.3048C24.7341 95.4278 24.0324 94.7261 23.1553 94.7261Z" fill="#CC9185"/>
<path d="M29.1195 94.7261C28.2424 94.7261 27.5408 95.4278 27.5408 96.3048C27.5408 97.1819 28.2424 97.8836 29.1195 97.8836C29.9966 97.8836 30.6983 97.1819 30.6983 96.3048C30.5229 95.4278 29.9966 94.7261 29.1195 94.7261Z" fill="#CC9185"/>
<path d="M34.9084 94.7261C34.0313 94.7261 33.3296 95.4278 33.3296 96.3048C33.3296 97.1819 34.0313 97.8836 34.9084 97.8836C35.7854 97.8836 36.4871 97.1819 36.4871 96.3048C36.4871 95.4278 35.7854 94.7261 34.9084 94.7261Z" fill="#CC9185"/>
<path d="M15.4368 111.041H12.2793C12.2793 119.11 18.7698 125.6 26.8391 125.6H27.5407V111.041H15.4368Z" fill="#34595F"/>
<path d="M27.3654 125.6H28.067C36.1363 125.6 42.6268 119.11 42.6268 111.041H38.7676H27.3654V125.6Z" fill="#334142"/>
</svg>