<svg width="127" height="88" viewBox="0 0 127 88" fill="none" xmlns="http://www.w3.org/2000/svg">
<path d="M116.247 74.3162H9.7157V8.35202C9.7157 3.74987 13.4656 0.17041 17.8973 0.17041H108.065C112.668 0.17041 116.247 3.92032 116.247 8.35202V74.3162V74.3162Z" fill="#34595F"/>
<path d="M113.179 87.1002H12.7838C5.62485 87.1002 0 81.3049 0 74.3164H126.133C126.133 81.3049 120.338 87.1002 113.179 87.1002Z" fill="#334142"/>
<path opacity="0.49" d="M17.8973 0C13.2952 0 9.7157 3.74991 9.7157 8.18161V74.3162H63.0666V0.17046H17.8973V0Z" fill="white"/>
<path d="M111.304 5.28418H14.8292V69.0325H111.304V5.28418Z" fill="#8ADDFF"/>
<path d="M89.6568 38.1806C89.6568 53.0097 77.7253 64.9412 62.8962 64.9412C48.067 64.9412 36.1355 53.0097 36.1355 38.1806C36.1355 23.3514 48.067 11.4199 62.8962 11.4199C77.7253 11.5904 89.6568 23.5218 89.6568 38.1806Z" fill="#34595F"/>
<path d="M71.2483 48.0667L92.2137 69.032H94.2591L72.271 46.8735L71.2483 48.0667Z" fill="#1B8FBF"/>
<path d="M67.1575 52.158L84.032 69.0326H86.2479L68.1802 50.9648L67.1575 52.158Z" fill="#1B8FBF"/>
<path d="M99.0315 53.5214C97.1566 53.5214 95.6225 54.8851 95.2816 56.5896H89.4863L76.0208 43.124L74.998 44.1467L88.8045 57.9531L88.9749 58.1236H89.3159H95.2816C95.6225 59.8281 97.1566 61.1917 99.0315 61.1917C101.077 61.1917 102.781 59.4872 102.781 57.4418C102.781 55.226 101.077 53.5214 99.0315 53.5214ZM99.0315 59.6576C97.8384 59.6576 96.8157 58.635 96.8157 57.4418C96.8157 56.2487 97.8384 55.2259 99.0315 55.2259C100.225 55.2259 101.247 56.2487 101.247 57.4418C101.247 58.635 100.225 59.6576 99.0315 59.6576Z" fill="#1B8FBF"/>
<path d="M29.488 13.1244C29.488 11.079 27.7835 9.37451 25.7381 9.37451C23.6927 9.37451 21.9882 11.079 21.9882 13.1244C21.9882 15.1698 23.6927 16.8743 25.7381 16.8743C26.4199 16.8743 26.9312 16.7039 27.4426 16.363L49.4306 38.351L50.4533 37.3283L28.6357 15.5107C29.1471 14.8289 29.488 13.9767 29.488 13.1244ZM23.5222 13.1244C23.5222 11.9313 24.5449 10.9086 25.7381 10.9086C26.9312 10.9086 27.9539 11.9313 27.9539 13.1244C27.9539 14.3176 26.9312 15.3403 25.7381 15.3403C24.5449 15.3403 23.5222 14.3176 23.5222 13.1244Z" fill="#1B8FBF"/>
<path d="M99.0316 43.2944C96.9862 43.2944 95.2817 44.999 95.2817 47.0444C95.2817 49.0898 96.9862 50.7943 99.0316 50.7943C100.907 50.7943 102.441 49.4306 102.781 47.7261H111.304V46.1921H102.781C102.27 44.6581 100.736 43.2944 99.0316 43.2944ZM99.0316 49.4306C97.8384 49.4306 96.8157 48.408 96.8157 47.2148C96.8157 46.0217 97.8384 44.9989 99.0316 44.9989C100.225 44.9989 101.247 46.0217 101.247 47.2148C101.247 48.408 100.225 49.4306 99.0316 49.4306Z" fill="#1B8FBF"/>
<path d="M99.0316 33.749C96.9862 33.749 95.2817 35.4535 95.2817 37.4989C95.2817 39.5443 96.9862 41.2488 99.0316 41.2488C100.907 41.2488 102.441 39.8852 102.781 38.1807H111.304V36.8171H102.781C102.27 35.1126 100.736 33.749 99.0316 33.749ZM99.0316 39.8852C97.8384 39.8852 96.8157 38.8625 96.8157 37.6694C96.8157 36.4762 97.8384 35.4535 99.0316 35.4535C100.225 35.4535 101.247 36.4762 101.247 37.6694C101.247 38.8625 100.225 39.8852 99.0316 39.8852Z" fill="#1B8FBF"/>
<path d="M49.4306 47.8967V46.3627H47.2148L28.6357 27.954C29.1471 27.2722 29.488 26.42 29.488 25.5677C29.488 23.5223 27.7835 21.8179 25.7381 21.8179C23.6927 21.8179 21.9882 23.5223 21.9882 25.5677C21.9882 27.6131 23.6927 29.3177 25.7381 29.3177C26.4199 29.3177 26.9312 29.1472 27.4426 28.8063L44.9989 46.3627H26.079H25.3972V47.2149V69.0325H26.9312V47.8967H32.0447V59.6578C30.3402 59.9987 28.9766 61.5327 28.9766 63.4077C28.9766 65.4531 30.6811 67.1576 32.7265 67.1576C34.7719 67.1576 36.4764 65.4531 36.4764 63.4077C36.4764 61.5327 35.1128 59.9987 33.4083 59.6578V47.8967H46.3625L49.2602 50.7944L50.2829 49.7717L48.4079 47.8967H49.4306ZM23.5222 25.3973C23.5222 24.2041 24.5449 23.1815 25.7381 23.1815C26.9312 23.1815 27.9539 24.2041 27.9539 25.3973C27.9539 26.5904 26.9312 27.6132 25.7381 27.6132C24.5449 27.7836 23.5222 26.7609 23.5222 25.3973ZM35.1128 63.5781C35.1128 64.7713 34.0901 65.794 32.897 65.794C31.7038 65.794 30.6811 64.7713 30.6811 63.5781C30.6811 62.385 31.7038 61.3623 32.897 61.3623C34.0901 61.1918 35.1128 62.2145 35.1128 63.5781Z" fill="#1B8FBF"/>
<path d="M103.122 30.8513V27.7832H94.7704V28.465H77.7253V29.999H94.7704V30.8513H103.122Z" fill="#1B8FBF"/>
<path d="M103.122 21.6475H94.7703V22.3293H70.7368V23.8633H94.7703V24.7155H103.122V21.6475Z" fill="#1B8FBF"/>
<path d="M103.122 10.7386V10.0568H94.7704V10.7386H91.7023V10.0568H83.3502V10.7386H63.7485V5.28418H62.2144V23.011L51.9874 12.784V5.28418H50.4534V12.9544V13.4658L50.6238 13.6362L62.2144 25.2269V28.6359H63.7485V26.7609L64.4303 27.4427L65.453 26.42L63.7485 24.545V12.2726H83.3502V13.1249H91.7023V12.2726H94.7704V13.1249H103.122V12.2726H111.134V10.7386H103.122Z" fill="#1B8FBF"/>
<path d="M31.022 43.6355V40.5674H22.6699V41.4196H14.8292V42.9537H22.6699V43.6355H31.022Z" fill="#1B8FBF"/>
<path d="M18.92 54.7148H19.7723V69.0326H21.3063V54.7148H21.9882V46.3628H18.92V54.7148Z" fill="#1B8FBF"/>
<path d="M22.6699 37.4992H31.022V34.4312H22.6699V35.2834H14.8292V36.8174H22.6699V37.4992Z" fill="#1B8FBF"/>
<path d="M68.0097 54.374H66.4756V69.0327H68.0097V54.374Z" fill="#1B8FBF"/>
<path d="M53.8623 45.5107H52.3282V68.8624H53.8623V45.5107Z" fill="#1B8FBF"/>
<path d="M45.1694 5.28418H43.6354V15.3407V15.8521L43.9763 16.193L57.6123 29.829L58.8054 28.8063L45.1694 15.1703V5.28418Z" fill="#1B8FBF"/>
<path opacity="0.49" d="M14.8292 69.0325V5.28418H111.134L14.8292 69.0325Z" fill="white"/>
<path d="M65.2825 58.1235H69.5438L75.1686 52.4987H76.7027L80.9639 48.2374V39.7149H82.8389V31.5333L76.5322 25.2267H75.3391V22.8403H72.9528V20.454L69.0324 16.5337H64.0894C63.578 17.045 63.4076 17.2155 62.8962 17.7268V26.2493H72.1005V39.7149H68.6915V52.4987H62.8962V58.1235V60.5098H63.578C64.2598 59.828 64.6007 59.4871 65.2825 58.8053V58.1235Z" fill="#18979E"/>
<path d="M65.9643 53.5213V52.4987H68.6915V49.7714H72.4414L74.4868 47.726V43.6352H78.4072V39.7149H77.214V30.3401L72.9528 26.2493H70.9074V22.8403H66.987L63.0667 18.7495V21.6472V32.0447H70.9074V39.7149H65.9643V48.7487H63.0667V53.5213V56.419L65.9643 53.5213Z" fill="#127177"/>
<path d="M68.0097 46.1917H70.7369V41.5895H71.93L73.805 39.7146V31.533H70.396L67.8393 28.9762V26.249H65.2825V24.0332H63.0667V26.249V34.0897V35.7942V48.7485H68.0097V46.1917Z" fill="#0E5559"/>
<path d="M64.9416 44.6581H68.0097L69.8847 42.7832V35.7947H67.8393V33.9197H65.453V31.5335L64.0894 30.3403H63.0667V35.7947V39.0332V44.6581V46.5331H64.9416V44.6581Z" fill="#0B4043"/>
<path d="M60.6803 58.1235H56.419L50.7942 52.4987H49.2601L44.9989 48.2374V39.7149H43.1239V31.5333L49.4305 25.2267H50.6237V22.8403H53.01V20.454L56.9304 16.5337H61.8734C62.3848 17.045 62.5552 17.2155 63.0666 17.7268V26.2493H53.8623V39.7149H57.2713V52.4987H63.0666V58.1235V60.5098H62.3848C61.703 59.828 61.3621 59.4871 60.6803 58.8053V58.1235V58.1235Z" fill="#18979E"/>
<path d="M60.169 53.5213V52.4987H57.2713V49.7714H53.5214L51.476 47.726V43.6352H47.5557V39.7149H48.9192V30.3401L53.0101 26.2493H55.0555V22.8403H58.9758L63.0666 18.7495V21.6472V32.0447H55.0555V39.7149H60.169V48.7487H63.0666V53.5213V56.419L60.169 53.5213Z" fill="#18979E"/>
<path d="M57.953 46.1917H55.2258V41.5895H54.0327L52.1577 39.7146V31.533H55.5667L58.1235 28.9762V26.249H60.6802V24.0332H63.0665V26.249V34.0897V35.7942V48.7485H57.953V46.1917Z" fill="#127177"/>
<path d="M61.0212 44.6581H57.9531L56.0781 42.7832V35.7947H58.1235V33.9197H60.5098V31.5335L61.8734 30.3403H63.0666V35.7947V39.0332V44.6581V46.5331H61.0212V44.6581Z" fill="#0E5559"/>
<path opacity="0.4" d="M61.8734 16.5337H56.9304L53.01 20.454V22.8403H50.6237V25.2267H49.4305L43.1239 31.5333V39.7149H44.9989V48.2374L49.2601 52.4987H50.7942L56.419 58.1235H60.6803V58.8053C61.3621 59.4871 61.703 59.828 62.3848 60.5098H63.0666V58.1235V56.419V53.5213V52.6691V48.7487V46.5329V44.658V39.0331V35.7945V34.09V32.0447V30.3402V26.2493V24.0335V21.6472V18.7495V17.5564C62.5552 17.2155 62.3848 17.045 61.8734 16.5337Z" fill="white"/>
<path d="M99.0315 78.0664H77.7252V83.5208H99.0315V78.0664Z" fill="#263132"/>
<path d="M48.2374 78.0664H26.9312V83.5208H48.2374V78.0664Z" fill="#263132"/>
<path opacity="0.28" d="M0 74.3164C0 81.4753 5.7953 87.1002 12.7838 87.1002H63.0665V74.3164H0Z" fill="white"/>
</svg>