<svg width="103" height="116" viewBox="0 0 103 116" fill="none" xmlns="http://www.w3.org/2000/svg">
<path d="M19.0249 79.2637V22.9835C19.0249 20.7794 20.7883 19.016 22.9925 19.016H79.2726C80.5951 19.016 81.6237 19.6038 82.3585 20.4855L94.2611 32.3881V7.99512H8.004V94.2521H32.5439L20.6413 82.3496C19.6127 81.7618 19.0249 80.5862 19.0249 79.2637Z" fill="#18979E"/>
<path d="M82.3585 20.4854C82.9463 21.2201 83.2402 21.9548 83.2402 22.9834V79.2636C83.2402 81.4678 81.4768 83.2311 79.2727 83.2311H22.9925C22.1109 83.2311 21.3761 82.9372 20.6414 82.4964L24.6089 86.4639H80.8891C82.2116 86.4639 83.2402 87.4925 83.2402 88.815C83.2402 90.1376 82.2116 91.1662 80.8891 91.1662H29.3112L32.544 94.399H94.2611V32.5349L82.3585 20.4854Z" fill="#18979E"/>
<path d="M21.2291 86.4639C19.9066 86.4639 18.878 87.4925 18.878 88.815C18.878 90.1375 19.9066 91.1661 21.2291 91.1661H29.3111L24.6089 86.4639H21.2291Z" fill="#FFAF00"/>
<path d="M83.2402 88.815C83.2402 87.4925 82.2116 86.4639 80.8891 86.4639H24.6089L29.3112 91.1661H80.8891C82.2116 91.1661 83.2402 90.1375 83.2402 88.815Z" fill="#F68300"/>
<path d="M79.2726 19.0161H22.9925C20.7883 19.0161 19.0249 20.7794 19.0249 22.9836V79.2638C19.0249 80.5863 19.6127 81.7618 20.6413 82.4966L20.2004 82.0557L20.6413 82.4966C21.2291 82.9374 22.1108 83.2313 22.9925 83.2313H79.2726C81.4768 83.2313 83.2401 81.468 83.2401 79.2638V22.9836C83.2401 22.1019 82.9462 21.2203 82.3585 20.4856L82.0645 20.1917L82.3585 20.4856C81.6237 19.6039 80.4482 19.0161 79.2726 19.0161Z" fill="#D0F1FF"/>
<path d="M12.4224 94.1733V102.108H16.9777V94.1733H12.4224Z" fill="#F68300"/>
<path d="M21.5301 94.3174V102.252H26.0854V94.3174H21.5301Z" fill="#F68300"/>
<path d="M30.6385 94.3154V102.25H35.1938V94.3154H30.6385Z" fill="#F68300"/>
<path d="M39.7469 94.3125V102.248H44.3022V94.3125H39.7469Z" fill="#F68300"/>
<path d="M48.8553 94.311V102.246H53.4106V94.311H48.8553Z" fill="#F68300"/>
<path d="M57.9637 94.3086V102.244H62.5191V94.3086H57.9637Z" fill="#F68300"/>
<path d="M67.0721 94.3062V102.241H71.6275V94.3062H67.0721Z" fill="#F68300"/>
<path d="M76.1806 94.3042V102.239H80.736V94.3042H76.1806Z" fill="#F68300"/>
<path d="M85.2889 94.3018V102.237H89.8442V94.3018H85.2889Z" fill="#F68300"/>
<path d="M94.1542 89.9014H102.089V85.3461H94.1542V89.9014Z" fill="#F68300"/>
<path d="M94.1542 80.7964H102.089V76.2411H94.1542V80.7964Z" fill="#F68300"/>
<path d="M94.1542 71.689H102.089V67.1336H94.1542V71.689Z" fill="#F68300"/>
<path d="M94.1542 62.5845H102.089V58.0292H94.1542V62.5845Z" fill="#F68300"/>
<path d="M94.1542 53.4771H102.089V48.9217H94.1542V53.4771Z" fill="#F68300"/>
<path d="M94.1542 44.3721H102.089V39.8168H94.1542V44.3721Z" fill="#F68300"/>
<path d="M94.1542 35.2646H102.089V30.7093H94.1542V35.2646Z" fill="#F68300"/>
<path d="M94.1542 26.1597H102.089V21.6043H94.1542V26.1597Z" fill="#F68300"/>
<path d="M94.1542 17.0518H102.089V12.4964H94.1542V17.0518Z" fill="#F68300"/>
<path d="M6.81877e-05 89.9014H7.93512L7.93512 85.3461H6.81877e-05L6.81877e-05 89.9014Z" fill="#FFAF00"/>
<path d="M6.81877e-05 80.7964H7.93512L7.93512 76.2411H6.81877e-05L6.81877e-05 80.7964Z" fill="#FFAF00"/>
<path d="M6.81877e-05 71.689H7.93512L7.93512 67.1336H6.81877e-05L6.81877e-05 71.689Z" fill="#FFAF00"/>
<path d="M6.81877e-05 62.5845H7.93512L7.93512 58.0292H6.81877e-05L6.81877e-05 62.5845Z" fill="#FFAF00"/>
<path d="M6.81877e-05 53.4771H7.93512L7.93512 48.9217H6.81877e-05L6.81877e-05 53.4771Z" fill="#FFAF00"/>
<path d="M6.81877e-05 44.3721H7.93512L7.93512 39.8168H6.81877e-05L6.81877e-05 44.3721Z" fill="#FFAF00"/>
<path d="M6.81877e-05 35.2646H7.93512L7.93512 30.7093H6.81877e-05L6.81877e-05 35.2646Z" fill="#FFAF00"/>
<path d="M6.81877e-05 26.1597H7.93512L7.93512 21.6043H6.81877e-05L6.81877e-05 26.1597Z" fill="#FFAF00"/>
<path d="M6.81877e-05 17.0518H7.93512L7.93512 12.4964H6.81877e-05L6.81877e-05 17.0518Z" fill="#FFAF00"/>
<path d="M12.4036 7.15256e-06V7.93506H16.9589V7.15256e-06H12.4036Z" fill="#F68300"/>
<path d="M21.5113 0.14405V8.0791H26.0666V0.14405H21.5113Z" fill="#F68300"/>
<path d="M30.6196 0.141609V8.07666H35.175V0.141609H30.6196Z" fill="#F68300"/>
<path d="M39.728 0.139656V8.07471H44.2833V0.139656H39.728Z" fill="#F68300"/>
<path d="M48.8365 0.137214V8.07227H53.3918V0.137214H48.8365Z" fill="#F68300"/>
<path d="M57.9449 0.135216V8.07031H62.5003V0.135216H57.9449Z" fill="#F68300"/>
<path d="M67.0533 0.13282V8.06787H71.6086V0.13282H67.0533Z" fill="#F68300"/>
<path d="M76.1618 0.130867V8.06592H80.7171V0.130867H76.1618Z" fill="#F68300"/>
<path d="M85.2701 0.128425V8.06348H89.8254V0.128425H85.2701Z" fill="#F68300"/>
<path d="M83.2401 75.2958V27.0977C86.179 27.0977 88.5301 29.4488 88.5301 32.3877V70.0057C88.5301 72.9446 86.179 75.2958 83.2401 75.2958Z" fill="#8ADDFF"/>
<path d="M19.0249 75.2958V27.0977C16.086 27.0977 13.7349 29.4488 13.7349 32.3877V70.0057C13.7349 72.9446 16.086 75.2958 19.0249 75.2958Z" fill="#8ADDFF"/>
<path d="M80.889 11.0811H21.2291C19.9066 11.0811 18.878 12.1096 18.878 13.4321C18.878 14.7547 19.9066 15.7833 21.2291 15.7833H80.889C82.2116 15.7833 83.2402 14.7547 83.2402 13.4321C83.2402 12.1096 82.2116 11.0811 80.889 11.0811Z" fill="#FFAF00"/>
<path d="M88.9709 86.4639C87.6484 86.4639 86.6198 87.4925 86.6198 88.815C86.6198 90.1375 87.6484 91.1661 88.9709 91.1661C90.2935 91.1661 91.3221 90.1375 91.3221 88.815C91.3221 87.4925 90.2935 86.4639 88.9709 86.4639Z" fill="#F68300"/>
<path d="M13.1471 86.4639C11.8246 86.4639 10.796 87.4925 10.796 88.815C10.796 90.1375 11.8246 91.1661 13.1471 91.1661C14.4696 91.1661 15.4983 90.1375 15.4983 88.815C15.4983 87.4925 14.4696 86.4639 13.1471 86.4639Z" fill="#FFAF00"/>
<path d="M88.9709 11.0811C87.6484 11.0811 86.6198 12.1096 86.6198 13.4321C86.6198 14.7547 87.6484 15.7833 88.9709 15.7833C90.2935 15.7833 91.3221 14.7547 91.3221 13.4321C91.3221 12.1096 90.2935 11.0811 88.9709 11.0811Z" fill="#FFAF00"/>
<path d="M13.1471 11.0811C11.8246 11.0811 10.796 12.1096 10.796 13.4321C10.796 14.7547 11.8246 15.7833 13.1471 15.7833C14.4696 15.7833 15.4983 14.7547 15.4983 13.4321C15.4983 12.1096 14.4696 11.0811 13.1471 11.0811Z" fill="#FFAF00"/>
<path d="M64.2842 28.7144H37.9809V55.0176H64.2842V28.7144Z" fill="#8ADDFF"/>
<path d="M64.2842 60.8955H37.9809V65.1569H64.2842V60.8955Z" fill="#18979E"/>
<path d="M64.2842 69.2715H37.9809V73.5329H64.2842V69.2715Z" fill="#18979E"/>
<path opacity="0.5" d="M51.206 7.99512H8.004V94.2521H51.206V7.99512Z" fill="#59F7FF"/>
<path d="M55.1735 116H46.9445C44.1526 116 41.9484 113.796 41.9484 111.004V56.1929H60.3166V111.004C60.3166 113.796 57.9655 116 55.1735 116Z" fill="#334142"/>
<path d="M54.5858 41.9397C54.5858 43.85 53.1163 45.3194 51.206 45.3194V46.2011C53.5572 46.2011 55.4674 44.2908 55.4674 41.9397C55.4674 39.5886 53.5572 37.6782 51.206 37.6782V38.5599C52.9694 38.5599 54.5858 40.0294 54.5858 41.9397Z" fill="#FFAF00"/>
<path d="M46.7976 41.9398C46.7976 44.2909 48.7079 46.2012 51.059 46.2012V45.3195C49.1487 45.3195 47.6793 43.8501 47.6793 41.9398C47.6793 40.0295 49.1487 38.56 51.059 38.56V37.6783C48.7079 37.5314 46.7976 39.5886 46.7976 41.9398Z" fill="#F68300"/>
<path d="M57.8185 42.0867L59.5819 41.4989L59.141 39.2947H57.2308C56.9369 38.7069 56.643 38.1192 56.2021 37.5314L57.2308 35.915L55.6143 34.4455L54.2918 35.6211C53.7041 35.3272 53.1163 35.0333 52.3816 34.8863L52.0877 32.9761H51.059V37.0905C53.4102 37.0905 55.3205 39.0008 55.3205 41.3519C55.3205 43.7031 53.4102 45.6134 51.059 45.6134V47.9645C51.3529 47.9645 51.6468 47.9645 52.0877 47.9645L52.9693 49.5809L55.0266 48.8462L54.5858 47.0829C55.1735 46.789 55.6144 46.3481 56.0552 45.7603L57.8185 46.495L58.8472 44.5848L57.3777 43.4092C57.6716 43.4092 57.8185 42.6745 57.8185 42.0867Z" fill="#F68300"/>
<path d="M51.059 46.2008C48.7079 46.2008 46.7976 44.2905 46.7976 41.9394C46.7976 39.5883 48.7079 37.6779 51.059 37.6779V33.5635H50.0304L49.7365 35.4738C49.1487 35.6207 48.414 35.7676 47.8262 36.2085L46.5037 35.0329L44.8873 36.5024L45.9159 38.1188C45.4751 38.5596 45.1812 39.1474 44.8873 39.8821H42.977L42.5362 42.0863L44.2996 42.6741C44.2996 43.4088 44.4465 43.9966 44.5934 44.5844L43.124 45.7599L44.1526 47.6703L45.9159 46.9355C46.3568 47.3764 46.7976 47.8172 47.3854 48.258L46.9446 50.0214L49.0018 50.7561L49.8835 49.1397C50.1774 49.1397 50.4713 49.1397 50.9121 49.1397V46.2008H51.059Z" fill="#FFAF00"/>
<path d="M54.5857 41.9398C54.5857 43.8501 53.1162 45.3196 51.2059 45.3196C49.2956 45.3196 47.8262 43.8501 47.8262 41.9398C47.8262 40.0295 49.2956 38.5601 51.2059 38.5601C52.9693 38.5601 54.5857 40.0295 54.5857 41.9398Z" fill="#B9720A"/>
<path d="M60.3167 33.4165V44.4374C60.3167 49.5805 56.2022 53.695 51.0591 53.695C45.916 53.695 41.8015 49.5805 41.8015 44.4374V33.4165C38.5687 33.4165 38.5687 35.6207 37.6871 39.1474C37.2462 41.0577 36.2176 44.8783 35.9237 46.7886C35.042 54.4297 42.2424 60.7484 49.8835 60.7484H51.9408C59.7289 60.7484 66.9292 54.4297 65.9006 46.7886C65.6067 44.8783 64.725 41.2046 64.2842 39.4413C63.6964 35.4738 63.5495 33.4165 60.3167 33.4165Z" fill="#127177"/>
<path opacity="0.5" d="M41.9484 44.5844V33.5635C38.7156 33.5635 38.7156 35.7677 37.8339 39.2943C37.393 41.2046 36.3644 45.0252 36.0706 46.9355C35.4828 51.6378 37.9809 55.8992 41.9484 58.3973V111.004C41.9484 113.796 44.1526 116 46.9445 116H47.6792H51.059V53.695C46.0628 53.695 41.9484 49.5805 41.9484 44.5844Z" fill="white"/>
<path d="M54.4388 60.8955H47.6793V116H54.4388V60.8955Z" fill="#5D7A7F"/>
</svg>