<svg width="106" height="121" viewBox="0 0 106 121" fill="none" xmlns="http://www.w3.org/2000/svg">
<path d="M77.1051 113.852H28.4236C22.1422 113.852 16.96 108.669 16.96 102.388C16.96 96.1065 22.1422 90.9243 28.4236 90.9243H77.1051C83.3866 90.9243 88.5688 96.1065 88.5688 102.388C88.5688 108.669 83.5436 113.852 77.1051 113.852Z" fill="#24BFFF"/>
<path opacity="0.72" d="M32.5066 113.852H81.1881C87.4695 113.852 92.6518 108.67 92.6518 102.388H21.0429C20.8859 108.67 26.0681 113.852 32.5066 113.852Z" fill="#24BFFF"/>
<path d="M96.4207 20.2578H93.7511V28.4237H96.4207V20.2578Z" fill="#334142"/>
<path d="M105.529 20.2578H102.859V28.4237H105.529V20.2578Z" fill="#334142"/>
<path d="M83.5436 53.7066H77.7333V48.0532H83.5436C90.7673 48.0532 96.7347 42.0858 96.7347 34.8621V26.2251H102.388V34.8621C102.388 45.2266 94.0651 53.7066 83.5436 53.7066Z" fill="#334142"/>
<path d="M58.8888 76.791H47.2681V90.9243H58.8888V76.791Z" fill="#1B8FBF"/>
<path opacity="0.36" d="M53.0785 76.791H47.2681V90.9243H53.0785V76.791Z" fill="white"/>
<path d="M66.5837 83.858H39.5734C36.9037 83.858 34.7052 81.6594 34.7052 78.9898V55.5913H71.4519V78.9898C71.4519 81.6594 69.2534 83.858 66.5837 83.858Z" fill="#24BFFF"/>
<path d="M58.8888 31.4072H47.2681V45.5406H58.8888V31.4072Z" fill="#334142"/>
<path opacity="0.36" d="M53.0785 31.4072H47.2681V45.5406H53.0785V31.4072Z" fill="white"/>
<path d="M81.5022 16.4886C80.717 10.5211 75.5348 5.81006 69.2533 5.81006H36.2755C29.9941 5.81006 24.8119 10.5211 24.0267 16.4886C24.0267 16.9597 23.8696 17.4308 23.8696 18.0589C23.8696 18.53 23.8696 19.1582 24.0267 19.6293C24.8119 25.5967 29.9941 30.3078 36.2755 30.3078H69.2533C75.5348 30.3078 80.717 25.5967 81.5022 19.6293C81.5022 19.1582 81.6593 18.6871 81.6593 18.0589C81.5022 17.4308 81.5022 16.9597 81.5022 16.4886Z" fill="#334142"/>
<path opacity="0.5" d="M80.717 17.9023H24.1837V19.4727C24.9689 25.4401 30.1511 30.1512 36.4326 30.1512H69.4104C75.6918 30.1512 80.8741 25.4401 81.6593 19.4727H80.8741V17.9023H80.717Z" fill="#334142"/>
<path d="M36.2755 5.65334H69.2533C75.5347 5.65334 80.717 10.3645 81.5022 16.3319H87.1555C86.3703 7.22374 78.6755 0 69.2533 0H36.2755C26.8533 0 19.1585 7.22374 18.3733 16.3319H24.0266C24.9689 10.3645 30.1511 5.65334 36.2755 5.65334Z" fill="#8ADDFF"/>
<path opacity="0.65" d="M36.2755 5.65334H69.2533C75.5347 5.65334 80.717 10.3645 81.5022 16.3319H87.1555C86.3703 7.22374 78.6755 0 69.2533 0H36.2755C26.8533 0 19.1585 7.22374 18.3733 16.3319H24.0266C24.9689 10.3645 30.1511 5.65334 36.2755 5.65334Z" fill="white"/>
<path d="M69.2533 30.3079H36.2756C29.9941 30.3079 24.8119 25.5968 24.0267 19.6294H18.5304C19.3156 28.7375 27.0104 35.9613 36.4326 35.9613H69.4104C78.8326 35.9613 86.5274 28.7375 87.3126 19.6294H81.6593C80.7171 25.5968 75.5348 30.3079 69.2533 30.3079Z" fill="#8ADDFF"/>
<path d="M24.0266 18.0591C24.0266 17.588 24.0266 16.9599 24.1837 16.4888H18.5303C18.5303 16.9599 18.3733 17.588 18.3733 18.0591C18.3733 18.5303 18.3733 19.1584 18.5303 19.6295H24.1837C24.1837 19.0014 24.0266 18.5303 24.0266 18.0591Z" fill="#334142"/>
<path d="M87.1556 16.4888H81.5023C81.5023 16.9599 81.6593 17.431 81.6593 18.0591C81.6593 18.5303 81.6593 19.1584 81.5023 19.6295H87.1556C87.1556 19.1584 87.1556 18.5303 87.1556 18.0591C87.1556 17.431 87.1556 16.9599 87.1556 16.4888Z" fill="#334142"/>
<path d="M36.5896 11.9351C33.2919 11.9351 30.4652 14.6047 30.4652 18.0595C30.4652 21.3573 33.1348 24.184 36.5896 24.184C39.8874 24.184 42.7141 21.5143 42.7141 18.0595C42.7141 14.6047 39.8874 11.9351 36.5896 11.9351Z" fill="#24BFFF"/>
<path d="M36.5897 9.1084C31.7215 9.1084 27.6385 13.1913 27.6385 18.0595C27.6385 22.9276 31.7215 27.0106 36.5897 27.0106C41.4578 27.0106 45.5408 22.9276 45.5408 18.0595C45.5408 13.0343 41.4578 9.1084 36.5897 9.1084ZM36.5897 24.0269C33.2919 24.0269 30.4652 21.3573 30.4652 17.9025C30.4652 14.6047 33.1349 11.778 36.5897 11.778C39.8875 11.778 42.7141 14.4477 42.7141 17.9025C42.7141 21.3573 39.8875 24.0269 36.5897 24.0269Z" fill="#0D1111"/>
<path opacity="0.65" d="M36.5896 7.38086C30.7793 7.38086 25.9111 12.092 25.9111 18.0594C25.9111 23.8697 30.6222 28.7379 36.5896 28.7379C42.4 28.7379 47.2681 24.0268 47.2681 18.0594C47.2681 12.092 42.4 7.38086 36.5896 7.38086Z" fill="white"/>
<path d="M36.5896 13.6621C34.2341 13.6621 32.3496 15.5466 32.3496 17.9021C32.3496 20.2577 34.2341 22.1421 36.5896 22.1421C38.9452 22.1421 40.8296 20.2577 40.8296 17.9021C40.8296 15.5466 38.9452 13.6621 36.5896 13.6621Z" fill="white"/>
<path d="M69.4105 11.9351C66.1127 11.9351 63.2861 14.6047 63.2861 18.0595C63.2861 21.3573 65.9557 24.184 69.4105 24.184C72.7083 24.184 75.5349 21.5143 75.5349 18.0595C75.5349 14.6047 72.8653 11.9351 69.4105 11.9351Z" fill="#24BFFF"/>
<path d="M69.4104 9.1084C64.5423 9.1084 60.4594 13.1913 60.4594 18.0595C60.4594 22.9276 64.5423 27.0106 69.4104 27.0106C74.2786 27.0106 78.3616 22.9276 78.3616 18.0595C78.3616 13.0343 74.4356 9.1084 69.4104 9.1084ZM69.4104 24.0269C66.1127 24.0269 63.286 21.3573 63.286 17.9025C63.286 14.6047 65.9556 11.778 69.4104 11.778C72.7082 11.778 75.5349 14.4477 75.5349 17.9025C75.5349 21.3573 72.8652 24.0269 69.4104 24.0269Z" fill="#0D1111"/>
<path opacity="0.65" d="M69.4104 7.38086C63.6001 7.38086 58.7319 12.092 58.7319 18.0594C58.7319 23.8697 63.443 28.7379 69.4104 28.7379C75.2208 28.7379 80.089 24.0268 80.089 18.0594C80.089 12.092 75.3778 7.38086 69.4104 7.38086Z" fill="white"/>
<path d="M69.4104 13.6621C67.0549 13.6621 65.1705 15.5466 65.1705 17.9021C65.1705 20.2577 67.0549 22.1421 69.4104 22.1421C71.766 22.1421 73.6505 20.2577 73.6505 17.9021C73.8075 15.5466 71.766 13.6621 69.4104 13.6621Z" fill="white"/>
<path d="M30.4652 44.2842V54.1775L34.7052 64.0709H71.4519L75.5348 54.1775V44.2842H30.4652Z" fill="#8ADDFF"/>
<path d="M75.5348 44.2842H30.4652V47.4249H75.5348V44.2842Z" fill="#334142"/>
<path opacity="0.56" d="M30.4652 44.2842V54.1775L34.7052 64.0709V78.8323C34.7052 81.5019 36.9037 83.7005 39.5733 83.7005H53.0785V44.2842H30.4652Z" fill="white"/>
<path d="M42.557 106.314V98.3051H40.5155C40.5155 97.991 40.3585 97.834 40.3585 97.5199L42.0859 96.5777L38.0029 89.6681L36.2755 90.6103C36.1185 90.4533 35.9614 90.2962 35.6474 89.9822L36.5896 88.2547L29.68 84.1718L28.7377 85.8992C28.4237 85.8992 28.2666 85.7421 27.9526 85.7421V83.7007H19.9437V85.7421C19.6296 85.7421 19.4725 85.8992 19.1585 85.8992L18.2162 84.1718L11.3066 88.2547L12.2489 89.9822C12.0918 90.1392 11.9348 90.2962 11.6207 90.6103L9.8933 89.6681L5.81033 96.5777L7.53774 97.5199C7.53774 97.834 7.3807 97.991 7.3807 98.3051H5.33923V106.314H7.3807C7.3807 106.628 7.53774 106.785 7.53774 107.099L5.81033 108.041L9.8933 114.951L11.6207 114.009C11.7778 114.166 11.9348 114.323 12.2489 114.637L11.3066 116.364L18.2162 120.447L19.1585 118.72C19.4725 118.72 19.6296 118.877 19.9437 118.877V120.918H27.9526V118.877C28.2666 118.877 28.4237 118.72 28.7377 118.72L29.68 120.447L36.5896 116.364L35.6474 114.637C35.8044 114.48 35.9614 114.323 36.2755 114.009L38.0029 114.951L42.0859 108.041L40.3585 107.099C40.3585 106.785 40.5155 106.628 40.5155 106.314H42.557Z" fill="#334142"/>
<path d="M37.2178 102.231C37.2178 109.612 31.2504 115.579 23.8696 115.579C16.4889 115.579 10.5215 109.612 10.5215 102.231C10.5215 94.8502 16.4889 88.8828 23.8696 88.8828C31.4074 88.8828 37.2178 94.8502 37.2178 102.231Z" fill="#34595F"/>
<path d="M33.4489 102.231C33.4489 107.414 29.2089 111.654 24.0267 111.654C18.8445 111.654 14.6045 107.414 14.6045 102.231C14.6045 97.0491 18.8445 92.8091 24.0267 92.8091C29.2089 92.8091 33.4489 97.0491 33.4489 102.231Z" fill="#24BFFF"/>
<path d="M27.9525 101.132H19.9436V103.487H27.9525V101.132Z" fill="#334142"/>
<path opacity="0.65" d="M19.9437 83.7007V85.7421C19.6296 85.7421 19.4725 85.8992 19.1585 85.8992L18.2162 84.1718L11.3066 88.2547L12.2489 89.9822C12.0918 90.1392 11.9348 90.2962 11.6207 90.6103L9.8933 89.6681L5.81033 96.5777L7.53774 97.5199C7.53774 97.834 7.3807 97.991 7.3807 98.3051H5.33923V106.314H7.3807C7.3807 106.628 7.53774 106.785 7.53774 107.099L5.81033 108.041L9.8933 114.951L11.6207 114.009C11.7778 114.166 11.9348 114.323 12.2489 114.637L11.3066 116.364L18.2162 120.447L19.1585 118.72C19.4725 118.72 19.6296 118.877 19.9437 118.877V120.918H24.0266V83.7007H19.9437Z" fill="white"/>
<path d="M100.19 106.314V98.3051H98.1481C98.1481 97.991 97.9911 97.834 97.9911 97.5199L99.7185 96.5777L95.6355 89.6681L93.9081 90.6103C93.7511 90.4533 93.594 90.2962 93.28 89.9822L94.2222 88.2547L87.3125 84.1718L86.3704 85.8992C86.0563 85.8992 85.8992 85.7421 85.5852 85.7421V83.7007H77.5763V85.7421C77.2622 85.7421 77.1052 85.8992 76.7911 85.8992L75.8489 84.1718L68.9392 88.2547L69.8815 89.9822C69.7244 90.1392 69.5674 90.2962 69.2533 90.6103L67.5259 89.6681L63.4429 96.5777L65.1704 97.5199C65.1704 97.834 65.0133 97.991 65.0133 98.3051H62.9718V106.314H65.0133C65.0133 106.628 65.1704 106.785 65.1704 107.099L63.4429 108.041L67.5259 114.951L69.2533 114.009C69.4103 114.166 69.5674 114.323 69.8815 114.637L68.9392 116.364L75.8489 120.447L76.7911 118.72C77.1052 118.72 77.2622 118.877 77.5763 118.877V120.918H85.5852V118.877C85.8992 118.877 86.0563 118.72 86.3704 118.72L87.3125 120.447L94.2222 116.364L93.28 114.637C93.437 114.48 93.594 114.323 93.9081 114.009L95.6355 114.951L99.7185 108.041L97.9911 107.099C97.9911 106.785 98.1481 106.628 98.1481 106.314H100.19Z" fill="#334142"/>
<path d="M94.8504 102.231C94.8504 109.612 88.883 115.579 81.5023 115.579C74.1215 115.579 68.1541 109.612 68.1541 102.231C68.1541 94.8502 74.1215 88.8828 81.5023 88.8828C88.883 88.8828 94.8504 94.8502 94.8504 102.231Z" fill="#34595F"/>
<path d="M90.9245 102.231C90.9245 107.414 86.6845 111.654 81.5022 111.654C76.32 111.654 72.08 107.414 72.08 102.231C72.08 97.0491 76.32 92.8091 81.5022 92.8091C86.6845 92.8091 90.9245 97.0491 90.9245 102.231Z" fill="#24BFFF"/>
<path d="M85.5852 101.132H77.5763V103.487H85.5852V101.132Z" fill="#334142"/>
<path opacity="0.65" d="M77.5763 83.7007V85.7421C77.2622 85.7421 77.1052 85.8992 76.7911 85.8992L75.8489 84.1718L68.9392 88.2547L69.8815 89.9822C69.7244 90.1392 69.5674 90.2962 69.2533 90.6103L67.5259 89.6681L63.4429 96.5777L65.1704 97.5199C65.1704 97.834 65.0133 97.991 65.0133 98.3051H62.9718V106.314H65.0133C65.0133 106.628 65.1704 106.785 65.1704 107.099L63.4429 108.041L67.5259 114.951L69.2533 114.009C69.4103 114.166 69.5674 114.323 69.8815 114.637L68.9392 116.364L75.8489 120.447L76.7911 118.72C77.1052 118.72 77.2622 118.877 77.5763 118.877V120.918H81.6592V83.7007H77.5763Z" fill="white"/>
<path d="M80.0889 47.4253H75.5348V54.1779H80.0889V47.4253Z" fill="#24BFFF"/>
<path d="M106 31.4075H93.1229V29.9942C93.1229 26.3823 95.9496 23.5557 99.5615 23.5557C103.173 23.5557 106 26.3823 106 29.9942V31.4075Z" fill="#263132"/>
<path d="M9.55411 81.3262H12.2238L12.2238 73.1602H9.55411V81.3262Z" fill="#334142"/>
<path d="M0.46563 81.3262H3.13525L3.13525 73.1602H0.46563L0.46563 81.3262Z" fill="#334142"/>
<path d="M22.4563 48.0532H28.2666V53.7066H22.4563C15.2326 53.7066 9.26516 59.674 9.26516 66.8977V75.5347H3.61182V66.8977C3.61182 56.5332 12.0918 48.0532 22.4563 48.0532Z" fill="#334142"/>
<path d="M25.9949 54.2607H30.549V47.5082H25.9949V54.2607Z" fill="#24BFFF"/>
<path d="M0 70.3525H12.877V71.7659C12.877 75.3777 10.0504 78.2044 6.43853 78.2044C2.82668 78.2044 0 75.3777 0 71.7659V70.3525Z" fill="#263132"/>
</svg>