<svg width="143" height="124" viewBox="0 0 143 124" fill="none" xmlns="http://www.w3.org/2000/svg">
<path d="M120.737 18.8057H30.6537V108.889H120.737V18.8057Z" fill="#334142"/>
<path d="M57.9423 28.2637H40.1117V46.0943H57.9423V28.2637Z" fill="#5D7A7F"/>
<path d="M75.773 28.2637H57.9424V46.0943H75.773V28.2637Z" fill="white"/>
<path d="M93.4487 28.2637H75.618V46.0943H93.4487V28.2637Z" fill="#5D7A7F"/>
<path d="M111.279 28.2637H93.4486V46.0943H111.279V28.2637Z" fill="white"/>
<path d="M57.9423 46.0947H40.1117V63.9254H57.9423V46.0947Z" fill="white"/>
<path d="M75.773 46.0947H57.9424V63.9254H75.773V46.0947Z" fill="#5D7A7F"/>
<path d="M93.4487 46.0947H75.618V63.9254H93.4487V46.0947Z" fill="white"/>
<path d="M111.279 46.0947H93.4486V63.9254H111.279V46.0947Z" fill="#5D7A7F"/>
<path d="M57.9423 63.77H40.1117V81.6007H57.9423V63.77Z" fill="#5D7A7F"/>
<path d="M75.773 63.77H57.9424V81.6007H75.773V63.77Z" fill="white"/>
<path d="M93.4487 63.77H75.618V81.6007H93.4487V63.77Z" fill="#5D7A7F"/>
<path d="M111.279 63.77H93.4486V81.6007H111.279V63.77Z" fill="white"/>
<path d="M57.9423 81.6006H40.1117V99.4312H57.9423V81.6006Z" fill="white"/>
<path d="M75.773 81.6006H57.9424V99.4312H75.773V81.6006Z" fill="#5D7A7F"/>
<path d="M93.4487 81.6006H75.618V99.4312H93.4487V81.6006Z" fill="white"/>
<path d="M111.279 81.6006H93.4486V99.4312H111.279V81.6006Z" fill="#5D7A7F"/>
<path d="M89.5723 90.5934C89.5723 93.3843 87.4016 95.555 84.6107 95.555C81.8199 95.555 79.6492 93.3843 79.6492 90.5934C79.6492 87.8025 81.8199 85.6318 84.6107 85.6318C87.2466 85.4768 89.5723 87.8025 89.5723 90.5934Z" fill="#334142"/>
<path d="M71.7416 90.5934C71.7416 93.3843 69.5709 95.555 66.7801 95.555C63.9892 95.555 61.8185 93.3843 61.8185 90.5934C61.8185 87.8025 63.9892 85.6318 66.7801 85.6318C69.5709 85.4768 71.7416 87.8025 71.7416 90.5934Z" fill="#334142"/>
<path d="M53.9111 90.5934C53.9111 93.3843 51.7404 95.555 48.9495 95.555C46.1586 95.555 43.9879 93.3843 43.9879 90.5934C43.9879 87.8025 46.1586 85.6318 48.9495 85.6318C51.7404 85.4768 53.9111 87.8025 53.9111 90.5934Z" fill="#334142"/>
<path d="M53.9111 37.1012C53.9111 39.8921 51.7404 42.0628 48.9495 42.0628C46.1586 42.0628 43.9879 39.8921 43.9879 37.1012C43.9879 34.3103 46.1586 32.1396 48.9495 32.1396C51.7404 32.1396 53.9111 34.4654 53.9111 37.1012Z" fill="#D0F1FF"/>
<path d="M71.7416 37.1012C71.7416 39.8921 69.5709 42.0628 66.7801 42.0628C63.9892 42.0628 61.8185 39.8921 61.8185 37.1012C61.8185 34.3103 63.9892 32.1396 66.7801 32.1396C69.5709 32.1396 71.7416 34.4654 71.7416 37.1012Z" fill="#8ADDFF"/>
<path d="M89.5723 37.1012C89.5723 39.8921 87.4016 42.0628 84.6107 42.0628C81.8199 42.0628 79.6492 39.8921 79.6492 37.1012C79.6492 34.3103 81.8199 32.1396 84.6107 32.1396C87.2466 32.1396 89.5723 34.4654 89.5723 37.1012Z" fill="#D0F1FF"/>
<path d="M107.403 37.1012C107.403 39.8921 105.232 42.0628 102.441 42.0628C99.6505 42.0628 97.4798 39.8921 97.4798 37.1012C97.4798 34.3103 99.6505 32.1396 102.441 32.1396C105.077 32.1396 107.403 34.4654 107.403 37.1012Z" fill="#D0F1FF"/>
<path opacity="0.6" d="M75.6179 18.8057H30.6537V108.889H75.6179V18.8057Z" fill="white"/>
<path opacity="0.6" d="M120.737 18.8057H30.6537V28.2637H120.737V18.8057Z" fill="white"/>
<path opacity="0.6" d="M40.1117 28.2637H30.6537V108.889H40.1117V28.2637Z" fill="white"/>
<path d="M94.0688 60.0483L83.0603 66.4054V67.9559C83.5254 67.8008 83.9906 67.8008 84.4557 67.8008C85.0759 67.8008 85.6961 67.9558 86.3163 68.1109L94.0688 63.6145L101.976 68.1109V77.2588L94.0688 81.7552L86.3163 77.2588C85.6961 77.4138 85.231 77.5689 84.6108 77.5689C84.1456 77.5689 83.6805 77.4138 83.2154 77.4138V78.9643L94.2238 85.3213L105.232 78.9643V66.4054L94.0688 60.0483Z" fill="#24BFFF"/>
<path d="M86.3163 68.1114C85.6961 67.9563 85.231 67.8013 84.4557 67.8013C83.9906 67.8013 83.5254 67.9563 83.0603 67.9563C81.0446 68.5765 79.4941 70.4371 79.4941 72.7628C79.4941 75.0886 81.0446 76.9492 83.0603 77.5694C83.5254 77.7244 83.9906 77.7244 84.4557 77.7244C85.0759 77.7244 85.6961 77.5694 86.1612 77.4143C88.0218 76.6391 89.4173 74.9335 89.4173 72.7628C89.5723 70.5921 88.1769 68.7316 86.3163 68.1114Z" fill="#334142"/>
<path d="M136.397 74.0034H103.682V77.2595H136.397V74.0034Z" fill="#7CD9FF"/>
<path d="M136.397 68.1113H103.682V71.3674H136.397V68.1113Z" fill="#A7E5FF"/>
<path d="M132.599 69.9477V123.905H135.855V69.9477H132.599Z" fill="#24BFFF"/>
<path d="M126.806 69.8911V123.848H130.062V69.8911H126.806Z" fill="#A7E5FF"/>
<path d="M140.118 72.6078C140.118 77.4144 136.087 81.4456 131.28 81.4456C126.474 81.4456 122.443 77.4144 122.443 72.6078C122.443 67.8013 126.474 63.77 131.28 63.77C136.242 63.77 140.118 67.8013 140.118 72.6078Z" fill="#0076AA"/>
<path d="M135.777 72.6075C135.777 75.0883 133.761 77.1039 131.436 77.1039C128.955 77.1039 126.939 75.0883 126.939 72.6075C126.939 70.1267 128.955 68.2661 131.436 68.2661C133.761 68.2661 135.777 70.2818 135.777 72.6075Z" fill="#8ADDFF"/>
<path d="M131.281 92.7642C126.474 92.7642 122.598 96.6404 122.598 101.447V123.929H139.963V101.447C139.963 96.6404 136.087 92.7642 131.281 92.7642Z" fill="#0076AA"/>
<path opacity="0.6" d="M122.443 72.6078C122.443 77.4144 126.474 81.4456 131.28 81.4456V63.77C126.474 63.77 122.443 67.8013 122.443 72.6078Z" fill="white"/>
<path opacity="0.6" d="M122.753 101.447V123.929H131.436V92.7642C126.629 92.7642 122.753 96.6404 122.753 101.447Z" fill="white"/>
<path d="M127.404 100.671C128.432 100.671 129.265 99.8384 129.265 98.8108C129.265 97.7832 128.432 96.9502 127.404 96.9502C126.377 96.9502 125.544 97.7832 125.544 98.8108C125.544 99.8384 126.377 100.671 127.404 100.671Z" fill="white"/>
<path d="M142.909 116.487H119.807V123.774H142.909V116.487Z" fill="#24BFFF"/>
<path opacity="0.6" d="M131.436 116.487H119.807V123.774H131.436V116.487Z" fill="white"/>
<path opacity="0.6" d="M105.077 66.4054L94.0688 60.0483L83.0603 66.4054V67.9559C83.5254 67.8008 83.9906 67.8008 84.4557 67.8008C85.0759 67.8008 85.6961 67.9558 86.3163 68.1109L94.0688 63.6145L101.976 68.1109V72.7624H104.922V66.4054H105.077Z" fill="white"/>
<path d="M108.953 72.7629C108.953 75.8639 106.473 78.3447 103.372 78.3447C100.271 78.3447 97.7899 75.8639 97.7899 72.7629C97.7899 69.6619 100.271 67.1812 103.372 67.1812C106.473 67.1812 108.953 69.6619 108.953 72.7629Z" fill="#0076AA"/>
<path d="M106.163 72.7627C106.163 74.3132 104.922 75.3985 103.527 75.3985C101.976 75.3985 100.891 74.1582 100.891 72.7627C100.891 71.2122 102.131 70.1269 103.527 70.1269C104.922 69.9718 106.163 71.2122 106.163 72.7627Z" fill="#24BFFF"/>
<path opacity="0.6" d="M97.9449 72.7629C97.9449 75.8639 100.426 78.3447 103.527 78.3447V67.1812C100.426 67.1812 97.9449 69.6619 97.9449 72.7629Z" fill="white"/>
<path d="M6.15588 0.0444336H18.7149V21.1311C18.7149 26.5578 23.0562 30.8992 28.4829 30.8992H41.6621L40.7318 43.4582H28.4829C16.2341 43.4582 6.15588 33.38 6.15588 21.1311V0.0444336Z" fill="#E59880"/>
<path d="M57.9423 34.4653V42.0627H54.0661V38.3416C53.911 36.1709 55.7716 34.4653 57.9423 34.4653Z" fill="#E59880"/>
<path d="M55.7716 28.2637H46.9338V32.1399H51.7404C53.911 32.1399 55.7716 30.4344 55.7716 28.2637Z" fill="#E59880"/>
<path d="M57.9423 42.063C57.9423 44.2337 56.2367 45.9392 54.066 45.9392H45.5383V42.063H57.9423Z" fill="#E59880"/>
<path d="M46.3136 28.2637H46.9338V32.1399H46.3136C43.5227 32.1399 41.3521 34.3106 41.3521 37.1015C41.3521 39.8923 43.5227 42.063 46.3136 42.063H46.9338V45.9393H46.3136C41.3521 45.9393 37.4758 41.908 37.4758 37.1015C37.4758 32.2949 41.3521 28.2637 46.3136 28.2637Z" fill="#E59880"/>
<path d="M2.63588 21.2417L21.7069 21.2417L21.7069 -1.52588e-05L2.63588 -1.52588e-05L2.63588 21.2417Z" fill="#18979E"/>
<path opacity="0.6" d="M2.55798 21.2417H12.171L12.171 -1.52588e-05H2.55798L2.55798 21.2417Z" fill="white"/>
<path d="M-4.76837e-05 21.1836L24.3427 21.1836V13.4311L-4.76837e-05 13.4311V21.1836Z" fill="#0D787D"/>
<path opacity="0.36" d="M0.038744 21.1836H12.1326L12.1326 13.4311L0.038744 13.4311L0.038744 21.1836Z" fill="white"/>
<path d="M57.7872 40.2026C56.7019 40.2026 55.9266 39.2723 55.9266 38.342C55.9266 37.2567 56.8569 36.4814 57.7872 36.4814V40.2026Z" fill="#F9B59D"/>
<path d="M53.911 28.2637C53.911 29.349 52.9807 30.1243 52.0504 30.1243C50.9651 30.1243 50.1898 29.194 50.1898 28.2637H53.911Z" fill="#F9B59D"/>
</svg>