<svg width="531" height="418" viewBox="0 0 531 418" fill="none" xmlns="http://www.w3.org/2000/svg">
<path d="M480.6 379.6C480.6 391.3 387.4 400.7 272.3 400.7C157.3 400.7 64 391.2 64 379.6C64 367.9 157.2 358.5 272.3 358.5C387.3 358.4 480.6 367.9 480.6 379.6Z" fill="#D6E3FE"/>
<path d="M173.8 301.8C171.2 302.1 168.6 303.1 166 303C162.8 303 163.1 292.7 162.8 290.1C161.8 283.7 159.2 277 153.5 273.5C148.1 270.2 140.9 270.8 136.2 274.9C133.1 277.7 131.2 281.4 129.4 285.2C127.9 283.7 126.4 282.3 125.5 281.5C120.3 276.4 114.6 271.6 108.6 267.4C104 264.2 97.7 260.2 91.8 260.5C85.2 260.9 84.8 268.3 85.5 273.4C85.6 273.8 85.6 274.3 85.7 274.7C83.9 273.3 82 271.9 80.1 270.5C74.4 266.5 66.3 265.6 61.8 271.6C61.7 271.8 61.6 272 61.5 272.1C61.4 272.2 61.2 272.4 61.1 272.6C57.2 278.9 60.6 286 66.3 289.9C68.3 291.3 70.3 292.5 72.4 293.8C67.7 294.6 62.9 296.4 61.5 300.6C59.7 306 65.3 310.6 68.8 313.8C74.2 318.8 80.9 322.4 87.4 325.7C90.8 327.5 94.4 329.4 98.2 330.8C95.6 333.7 93 336.6 91.2 340.2C88.4 345.9 90.5 352.9 95.1 357C100.2 361.6 107.3 361.6 113.7 360.5C116.1 360.1 126.3 356 127.6 358.3C128.8 360.4 128.9 363.3 129.3 365.6C129.9 369 131.4 372.2 133.8 374.7C138.4 379.5 145.4 379.8 151.6 379.1C158.7 378.3 165.8 375.6 172.2 372.6C175.7 371 179.2 369.1 182.7 367.4C184.3 366.6 187.6 363.6 189.6 364C190.6 364.4 191.7 364.2 192.6 363.5C192.8 363.3 193.1 363.1 193.3 362.9C193.3 362.8 193.4 362.8 193.4 362.7C193.4 362.7 193.4 362.6 193.5 362.6C193.5 362.6 193.5 362.5 193.6 362.5C193.6 362.4 193.7 362.4 193.7 362.3C193.8 362 194 361.8 194 361.5C194.3 360.5 194.1 359.4 193.4 358.5C192.4 357 193.7 353.5 194 351.9C194.6 348.1 194.9 344.1 195.2 340.3C195.8 333.1 195.6 325.7 194.1 318.5C192.8 312.4 190 305.9 184.2 303C180.6 301.7 177.3 301.5 173.8 301.8Z" fill="#BC74E1"/>
<path d="M123.9 289.6C124 288.8 123.4 288 122.5 287.9C121.7 287.8 120.9 288.4 120.8 289.3L118.8 310C112.8 305.9 106.8 301.8 100.9 297.7L103.1 275.3C103.2 274.5 102.6 273.7 101.7 273.6C100.9 273.5 100.1 274.1 100 275L98 295.7C91.4 291.1 84.7 286.6 78.1 282C78.1 282 78 282 78 281.9C76.4 280.8 74.7 283.3 76.3 284.4C76.3 284.4 76.3 284.4 76.4 284.5C83 289.1 89.7 293.6 96.3 298.2L77.7 307.5C77 307.9 76.6 308.8 77 309.5C77.4 310.2 78.3 310.6 79 310.2L99.1 300.2C105.1 304.3 111.1 308.4 117 312.5L98.4 321.8C97.7 322.2 97.3 323.1 97.7 323.8C98.1 324.6 99 324.9 99.7 324.5L119.8 314.5C126.2 318.9 132.7 323.3 139.1 327.8L120.8 337C120.1 337.4 119.7 338.3 120.1 339C120.5 339.7 121.4 340.1 122.1 339.7L142.2 329.7C149.2 334.5 156.2 339.3 163.2 344.2L144.6 353.5C143.9 353.9 143.5 354.8 143.9 355.5C144.3 356.2 145.2 356.6 145.9 356.2L166 346.2C172.3 350.5 178.5 354.8 184.8 359.1C186.4 360.2 188.1 357.7 186.5 356.6C180.2 352.3 174 348 167.7 343.7L169.9 321.3C170 320.5 169.4 319.7 168.5 319.6C167.7 319.5 166.9 320.1 166.9 321L164.9 341.7C157.9 336.9 150.9 332.1 143.9 327.2L146.1 304.8C146.2 304 145.6 303.2 144.7 303.1C143.9 303 143.1 303.6 143 304.5L141 325.2C134.6 320.8 128.1 316.4 121.7 311.9L123.9 289.6Z" fill="#A364C8"/>
<path d="M224.1 278.8C220.8 278 217.2 278.1 214 277C210.1 275.6 214.9 263.2 215.5 259.9C217.1 251.7 216.6 242.4 211.2 235.7C206 229.4 196.9 227 189.5 230.1C184.5 232.1 180.6 235.9 176.8 239.7C175.7 237.2 174.3 234.9 173.6 233.5C169.4 225 164.6 216.8 159 209.1C154.7 203.2 148.8 195.7 141.5 193.6C133.3 191.3 129.6 200.2 128.3 206.6C128.2 207.1 128.1 207.7 128 208.3C126.4 205.8 124.7 203.3 122.9 200.8C117.6 193.5 108.2 189 100 194.4C99.8 194.6 99.6 194.7 99.4 194.9C99.2 195 99 195.1 98.7 195.3C91.2 201.3 92.5 211.4 97.7 218.6C99.5 221.1 101.5 223.5 103.5 225.9C97.4 224.9 90.8 225 87.3 229.6C82.8 235.5 87.7 243.4 90.6 248.8C95.1 257.1 101.7 264.5 108.2 271.3C111.6 274.9 115.2 278.8 119.2 282.1C114.7 284.5 110.4 287 106.7 290.6C100.9 296.3 100.5 305.8 104.3 312.7C108.6 320.4 117.2 323.5 125.5 324.9C128.7 325.4 142.8 324.7 143.4 328.1C143.9 331.2 142.8 334.7 142.4 337.7C141.7 342.1 142.1 346.6 144 350.7C147.6 358.5 156 361.9 163.9 363.7C173 365.7 182.7 365.5 191.8 364.6C196.8 364.1 201.8 363.3 206.8 362.6C209.2 362.3 214.4 360.1 216.6 361.4C217.7 362.3 219.2 362.5 220.5 362.1C220.9 362 221.2 361.8 221.6 361.6C221.7 361.6 221.8 361.5 221.8 361.4L221.9 361.3L222 361.2C222.1 361.1 222.2 361.1 222.2 361C222.5 360.7 222.7 360.5 223 360.1C223.8 359 224 357.6 223.5 356.2C222.9 353.9 226 350.3 227 348.4C229.4 344 231.3 339.3 233.4 334.7C237.2 326.1 240.1 317 241.3 307.7C242.4 299.7 241.7 290.6 235.8 284.5C232.4 281.6 228.5 279.9 224.1 278.8Z" fill="#08E1B6"/>
<path d="M168.4 242.7C168.9 241.7 168.4 240.6 167.4 240.1C166.4 239.6 165.3 240.1 164.8 241.1L153.6 265.5C148.1 257.9 142.5 250.4 137 242.8L149.1 216.4C149.6 215.4 149.1 214.3 148.1 213.8C147.1 213.3 146 213.8 145.5 214.8L134.3 239.2C128.1 230.8 122 222.4 115.8 214.1C115.8 214.1 115.8 214 115.7 214C114.2 212 111.1 214.3 112.5 216.3C112.5 216.3 112.5 216.4 112.6 216.4C118.8 224.8 124.9 233.2 131.1 241.5L104.4 244.9C103.3 245 102.6 246 102.7 247.1C102.8 248.2 103.8 248.9 104.9 248.8L133.7 245.1C139.2 252.7 144.8 260.2 150.3 267.8L123.6 271.2C122.5 271.3 121.8 272.3 121.9 273.4C122 274.5 123 275.2 124.1 275.1L152.9 271.4C158.9 279.5 164.9 287.7 170.8 295.8L144.1 299.2C143 299.3 142.3 300.3 142.4 301.4C142.5 302.5 143.5 303.2 144.6 303.1L173.4 299.4C179.9 308.3 186.4 317.1 192.9 326L166.2 329.4C165.1 329.5 164.4 330.5 164.5 331.6C164.6 332.7 165.6 333.4 166.7 333.3L195.5 329.6C201.3 337.5 207.1 345.4 212.9 353.3C214.4 355.3 217.5 353 216.1 351C210.3 343.1 204.5 335.2 198.7 327.3L210.8 300.9C211.3 299.9 210.8 298.8 209.8 298.3C208.8 297.8 207.7 298.3 207.2 299.3L196 323.7C189.5 314.8 183 306 176.5 297.1L188.6 270.7C189.1 269.7 188.6 268.6 187.6 268.1C186.6 267.6 185.5 268.1 185 269.1L173.8 293.5C167.8 285.4 161.8 277.2 155.9 269.1L168.4 242.7Z" fill="#04C89B"/>
<path d="M363.3 308.5C359 311.4 357.5 316.7 357.1 321.6C356.7 327.3 357.2 333.1 358.4 338.7C359 341.7 359.6 344.7 360.5 347.7C360.9 348.9 362.2 351.5 361.6 352.8C361.1 353.5 361.1 354.4 361.4 355.2C361.5 355.4 361.6 355.6 361.7 355.8L361.8 355.9C361.8 355.9 361.8 355.9 361.9 356C361.9 356 361.9 356 362 356.1L362.1 356.2C362.3 356.4 362.5 356.5 362.7 356.6C363.4 357 364.3 357.1 365.1 356.7C366.6 356.2 369.4 358.2 370.8 358.6C373.7 359.6 376.6 360.7 379.5 361.7C384.9 363.4 390.6 364.8 396.3 364.7C401.2 364.7 406.7 363.7 409.8 359.5C411.4 357.3 412.2 354.7 412.4 351.9C412.5 350 412.3 347.8 413 346C413.8 344 422.1 346.3 424.1 346.4C429.2 346.6 434.8 345.9 438.3 341.8C441.5 338.2 442.4 332.4 439.7 328.3C437.9 325.6 435.6 323.6 433.3 321.6C436.1 320.2 438.7 318.3 441.2 316.6C446 313.4 450.8 309.8 454.6 305.4C457 302.6 460.9 298.4 459 294.4C457.5 291.2 453.6 290.3 449.8 290.1C451.3 288.9 452.8 287.7 454.2 286.5C458.2 282.9 460.2 277 456.5 272.4C456.4 272.3 456.3 272.2 456.2 272.1C456.1 272 456 271.8 455.9 271.7C451.7 267.4 445.5 268.9 441.4 272.6C440 273.8 438.7 275.1 437.4 276.4C437.4 276.1 437.4 275.7 437.4 275.4C437.4 271.4 436.4 265.6 431.2 266C426.5 266.3 422.1 270.1 418.8 273C414.5 276.9 410.6 281.2 407 285.7C406.4 286.4 405.3 287.6 404.3 289C402.5 286.3 400.7 283.5 397.9 281.6C393.8 278.8 388.1 279.1 384.2 282.2C380.1 285.5 378.7 291 378.6 296.1C378.6 298.2 379.9 306.2 377.3 306.5C375.2 306.8 373.1 306.2 371 306.3C368.2 306.5 365.6 307 363.3 308.5Z" fill="#08E1B6"/>
<path d="M408.8 291.8C408.7 291.2 409.1 290.5 409.7 290.4C410.3 290.3 411 290.7 411.1 291.3L414.7 307.3C419 303.5 423.2 299.7 427.5 295.9L423.6 278.6C423.5 278 423.9 277.3 424.5 277.2C425.1 277.1 425.8 277.5 425.9 278.1L429.5 294.1C434.2 289.9 439 285.7 443.7 281.4C443.7 281.4 443.7 281.4 443.8 281.4C444.9 280.4 446.5 282.2 445.4 283.2C445.4 283.2 445.4 283.2 445.3 283.2C440.6 287.4 435.8 291.6 431.1 295.9L446.6 301.3C447.2 301.5 447.6 302.2 447.3 302.8C447.1 303.4 446.4 303.8 445.8 303.5L429.1 297.6C424.8 301.4 420.6 305.2 416.3 309L431.8 314.4C432.4 314.6 432.8 315.3 432.5 315.9C432.3 316.5 431.6 316.9 431 316.6L414.3 310.7C409.7 314.8 405.1 318.9 400.5 323L416 328.4C416.6 328.6 417 329.3 416.7 329.9C416.5 330.5 415.8 330.9 415.2 330.6L398.5 324.7C393.5 329.2 388.5 333.6 383.5 338.1L399 343.5C399.6 343.7 400 344.4 399.7 345C399.5 345.6 398.8 346 398.2 345.7L381.5 339.8C377 343.8 372.6 347.8 368.1 351.8C366.9 352.8 365.4 351 366.5 350C371 346 375.4 342 379.9 338L376 320.7C375.9 320.1 376.3 319.4 376.9 319.3C377.5 319.2 378.2 319.6 378.3 320.2L381.9 336.2C386.9 331.7 391.9 327.3 396.9 322.8L393 305.5C392.9 304.9 393.3 304.2 393.9 304.1C394.5 304 395.2 304.4 395.3 305L398.9 321C403.5 316.9 408.1 312.8 412.7 308.7L408.8 291.8Z" fill="#04C89B"/>
<path d="M376.5 170.3C374.6 172.9 374.8 176.4 375.6 179.3C376.5 182.8 378.1 186.1 380 189.1C381 190.7 382 192.4 383.1 193.9C383.6 194.6 384.9 195.8 384.8 196.7C384.7 197.2 384.8 197.8 385.2 198.1C385.3 198.2 385.4 198.3 385.5 198.4C385.5 198.4 385.6 198.4 385.6 198.5H385.7C385.8 198.6 386 198.6 386.1 198.6C386.6 198.7 387.1 198.5 387.5 198.1C388.3 197.5 390.4 198 391.3 198.1C393.2 198.1 395.1 198.2 397.1 198.1C400.6 198 404.3 197.6 407.6 196.4C410.5 195.3 413.5 193.6 414.5 190.5C415 188.9 414.9 187.1 414.4 185.5C414.1 184.4 413.5 183.1 413.5 181.9C413.5 180.6 418.9 180.1 420.1 179.8C423.2 178.9 426.3 177.3 427.5 174.1C428.6 171.3 428 167.7 425.5 165.9C423.9 164.7 422.1 164 420.3 163.3C421.6 161.9 422.8 160.2 423.9 158.7C426 155.8 428.2 152.7 429.4 149.3C430.2 147.1 431.7 143.9 429.7 141.9C428.1 140.3 425.7 140.6 423.4 141.3C424 140.3 424.7 139.3 425.2 138.2C426.8 135.2 426.8 131.3 423.6 129.4C423.5 129.3 423.4 129.3 423.3 129.3C423.2 129.2 423.2 129.2 423 129.1C419.6 127.5 416.3 129.6 414.7 132.7C414.2 133.7 413.6 134.7 413.2 135.8C413.1 135.6 413.1 135.4 413 135.2C412.2 132.8 410.4 129.7 407.4 130.9C404.7 132 402.9 135.2 401.5 137.6C399.8 140.8 398.4 144.1 397.2 147.6C397 148.2 396.6 149.1 396.3 150.1C394.7 148.9 393 147.6 391 147.1C388 146.3 384.7 147.7 383.1 150.3C381.4 153.1 381.7 156.6 382.7 159.7C383.1 160.9 385.5 165.4 384.1 166.1C382.9 166.7 381.6 166.8 380.4 167.3C379 168.1 377.6 168.9 376.5 170.3Z" fill="#BC74E1"/>
<path d="M399.8 151C399.6 150.6 399.7 150.2 400 150C400.3 149.8 400.8 149.9 401 150.2L406.5 158.9C408.2 155.8 409.9 152.6 411.7 149.5L405.8 140.1C405.6 139.8 405.7 139.3 406 139.1C406.3 138.9 406.8 139 407 139.3L412.5 148C414.4 144.5 416.3 141 418.2 137.6C418.7 136.8 420 137.5 419.5 138.3C417.6 141.8 415.7 145.3 413.8 148.7L424.1 148.6C424.5 148.6 424.8 148.9 424.9 149.3C424.9 149.7 424.6 150 424.2 150.1L413.1 150.2C411.4 153.3 409.7 156.5 407.9 159.6L418.2 159.5C418.6 159.5 418.9 159.8 419 160.2C419 160.6 418.7 160.9 418.3 161L407.2 161.1C405.3 164.5 403.5 167.9 401.6 171.2L411.9 171.1C412.3 171.1 412.6 171.4 412.7 171.8C412.7 172.2 412.4 172.5 412 172.6L400.9 172.7C398.9 176.4 396.9 180.1 394.9 183.7L405.2 183.6C405.6 183.6 405.9 183.9 406 184.3C406 184.7 405.7 185 405.3 185.1L394.2 185.2C392.4 188.5 390.6 191.8 388.8 195C388.3 195.8 387 195.1 387.5 194.3C389.3 191 391.1 187.7 392.9 184.5L387 175.1C386.8 174.8 386.9 174.3 387.2 174.1C387.5 173.9 388 174 388.2 174.3L393.7 183C395.7 179.3 397.7 175.6 399.7 172L393.8 162.6C393.6 162.3 393.7 161.8 394 161.6C394.3 161.4 394.8 161.5 395 161.8L400.5 170.5C402.4 167.1 404.2 163.7 406.1 160.4L399.8 151Z" fill="#A364C8"/>
<path d="M157.7 55.2002H148.8L156.5 37.2002H165.4L157.7 55.2002Z" fill="#6833A3"/>
<path d="M170.5 55.2002H161.6L169.3 37.2002H178.2L170.5 55.2002Z" fill="#6833A3"/>
<path d="M183.3 55.2002H174.5L182.2 37.2002H191L183.3 55.2002Z" fill="#6833A3"/>
<path opacity="0.4" d="M196.1 55.2002H187.3L195 37.2002H203.8L196.1 55.2002Z" fill="#6833A3"/>
<path opacity="0.4" d="M208.9 55.2002H200.1L207.8 37.2002H216.6L208.9 55.2002Z" fill="#6833A3"/>
<path opacity="0.4" d="M221.8 55.2002H212.9L220.6 37.2002H229.5L221.8 55.2002Z" fill="#6833A3"/>
<path opacity="0.4" d="M234.6 55.2002H225.7L233.4 37.2002H242.3L234.6 55.2002Z" fill="#6833A3"/>
<path d="M447.5 90.8002C447.5 94.9002 444.2 98.2002 440.1 98.2002H403.6C399.5 98.2002 396.2 94.9002 396.2 90.8002V64.1002C396.2 60.0002 399.5 56.7002 403.6 56.7002H440.1C444.2 56.7002 447.5 60.0002 447.5 64.1002V90.8002Z" stroke="#6833A3" stroke-miterlimit="10"/>
<path d="M429.1 75.5H414.5V79.4H429.1V75.5Z" fill="#6833A3"/>
<path d="M423.8 70.1001H419.9V84.7001H423.8V70.1001Z" fill="#6833A3"/>
<path d="M170.7 102.6V98.7001H165C164.8 97.9001 164.5 97.1001 164.1 96.4001L168.1 92.4001L165.3 89.6001L161.3 93.6001C160.6 93.2001 159.8 92.9001 159 92.7001V87.1001H155.1V92.7001C154.3 92.9001 153.5 93.2001 152.8 93.6001L148.8 89.6001L146 92.4001L150 96.4001C149.6 97.1001 149.3 97.9001 149.1 98.7001H143.5V102.6H149.1C149.3 103.4 149.6 104.2 150 104.9L146 108.9L148.8 111.7L152.8 107.7C153.5 108.1 154.3 108.4 155.1 108.6V114.2H159V108.6C159.8 108.4 160.6 108.1 161.3 107.7L165.3 111.7L168.1 108.9L164.1 104.9C164.5 104.2 164.8 103.4 165 102.6H170.7ZM157.1 104.4C155.1 104.4 153.4 102.7 153.4 100.7C153.4 98.7001 155.1 97.0001 157.1 97.0001C159.1 97.0001 160.8 98.7001 160.8 100.7C160.8 102.7 159.1 104.4 157.1 104.4Z" fill="#6833A3"/>
<path d="M280.1 49.6998V47.3998H276.7C276.6 46.8998 276.4 46.4998 276.1 45.9998L278.5 43.5998L276.8 41.8998L274.4 44.2998C274 43.9998 273.5 43.8998 273 43.6998V40.2998H270.7V43.6998C270.2 43.7998 269.8 43.9998 269.3 44.2998L266.9 41.8998L265.2 43.5998L267.6 45.9998C267.3 46.3998 267.2 46.8998 267 47.3998H263.6V49.6998H267C267.1 50.1998 267.3 50.5998 267.6 51.0998L265.2 53.4998L266.9 55.1998L269.3 52.7998C269.7 53.0998 270.2 53.1998 270.7 53.3998V56.7998H273V53.3998C273.5 53.2998 273.9 53.0998 274.4 52.7998L276.8 55.1998L278.5 53.4998L276.1 51.0998C276.4 50.6998 276.5 50.1998 276.7 49.6998H280.1ZM272 50.6998C270.8 50.6998 269.8 49.6998 269.8 48.4998C269.8 47.2998 270.8 46.2998 272 46.2998C273.2 46.2998 274.2 47.2998 274.2 48.4998C274.2 49.6998 273.2 50.6998 272 50.6998Z" fill="#BC74E1"/>
<path d="M369.5 77.2001H202.6C201.7 77.2001 200.7 77.3001 199.9 77.5001L199.5 75.6001L195.1 80.0001C194.8 80.3001 194.5 80.6001 194.2 80.9001L194.1 81.0001C192.4 83.0001 191.3 85.6001 191.3 88.5001V377.7C191.3 384 196.4 389.2 202.8 389.2H369.7C376 389.2 381.2 384.1 381.2 377.7V88.6001C380.9 82.3001 375.8 77.2001 369.5 77.2001Z" fill="#7CA1D6"/>
<path d="M385.3 373.4C385.3 379.7 380.2 384.9 373.8 384.9H207C200.7 384.9 195.5 379.8 195.5 373.4V84.2002C195.5 77.9002 200.6 72.7002 207 72.7002H373.9C380.2 72.7002 385.4 77.8002 385.4 84.2002V373.4H385.3Z" fill="url(#paint0_linear_1_428)"/>
<path d="M323.6 92.7002C323.6 94.1002 322.5 95.2002 321.1 95.2002H258.2C256.8 95.2002 255.7 94.1002 255.7 92.7002C255.7 91.3002 256.8 90.2002 258.2 90.2002H321.1C322.5 90.3002 323.6 91.4002 323.6 92.7002Z" fill="white"/>
<path d="M341.7 92.7004C341.7 95.1004 339.8 97.0004 337.4 97.0004C335 97.0004 333.1 95.1004 333.1 92.7004C333.1 90.3004 335 88.4004 337.4 88.4004C339.8 88.4004 341.7 90.4004 341.7 92.7004Z" fill="white"/>
<path d="M261.1 181.7C261.1 187.2 256.7 191.6 251.2 191.6H136.6C131.1 191.6 126.7 187.2 126.7 181.7V137.4C126.7 131.9 131.1 127.5 136.6 127.5H251.2C256.7 127.5 261.1 131.9 261.1 137.4V181.7Z" fill="#5B8CDD"/>
<path d="M264.4 178.4C264.4 183.9 260 188.3 254.5 188.3H139.9C134.4 188.3 130 183.9 130 178.4V134.1C130 128.6 134.4 124.2 139.9 124.2H254.5C260 124.2 264.4 128.6 264.4 134.1V178.4Z" fill="#A9C7F9"/>
<path d="M161.62 157.983V155.746L179.626 146.575V150.154L165.814 156.809L165.926 156.585V157.145L165.814 156.921L179.626 163.576V167.155L161.62 157.983ZM196.742 138.075L187.515 172.355H184.495L193.722 138.075H196.742ZM219.611 157.983L201.604 167.155V163.576L215.417 156.921L215.305 157.145V156.585L215.417 156.809L201.604 150.154V146.575L219.611 155.746V157.983Z" fill="white"/>
<path opacity="0.4" d="M373.1 118.4H281.2V124.3H373.1V118.4Z" fill="white"/>
<path opacity="0.4" d="M373.1 129.3H334.3V135.2H373.1V129.3Z" fill="white"/>
<path opacity="0.4" d="M373.1 157.9H357.4V163.8H373.1V157.9Z" fill="white"/>
<path opacity="0.4" d="M373.1 141.2H305.2V147.1H373.1V141.2Z" fill="white"/>
<path opacity="0.4" d="M346.9 157.9H285.3V163.8H346.9V157.9Z" fill="white"/>
<path opacity="0.4" d="M305.3 181.5V223.4H239.3V264.2" stroke="#402083" stroke-width="4" stroke-miterlimit="10"/>
<path opacity="0.4" d="M325.7 326.9V281.6H284.9" stroke="#402083" stroke-width="4" stroke-miterlimit="10"/>
<path d="M285.7 304.7C285.7 310.2 281.3 314.6 275.8 314.6H176.6C171.1 314.6 166.7 310.2 166.7 304.7V260.4C166.7 254.9 171.1 250.5 176.6 250.5H275.8C281.3 250.5 285.7 254.9 285.7 260.4V304.7Z" fill="#008487"/>
<path d="M289 301.4C289 306.9 284.6 311.3 279.1 311.3H179.9C174.4 311.3 170 306.9 170 301.4V257.1C170 251.6 174.4 247.2 179.9 247.2H279.1C284.6 247.2 289 251.6 289 257.1V301.4Z" fill="#00CBDC"/>
<path d="M215.76 273.953H212.828C212.655 273.11 212.352 272.369 211.918 271.731C211.493 271.093 210.973 270.557 210.358 270.124C209.752 269.683 209.078 269.352 208.337 269.131C207.597 268.91 206.824 268.8 206.021 268.8C204.555 268.8 203.228 269.17 202.038 269.911C200.856 270.652 199.914 271.743 199.213 273.185C198.52 274.627 198.173 276.396 198.173 278.492C198.173 280.588 198.52 282.356 199.213 283.798C199.914 285.24 200.856 286.332 202.038 287.072C203.228 287.813 204.555 288.183 206.021 288.183C206.824 288.183 207.597 288.073 208.337 287.852C209.078 287.632 209.752 287.305 210.358 286.871C210.973 286.43 211.493 285.89 211.918 285.252C212.352 284.606 212.655 283.865 212.828 283.03H215.76C215.539 284.267 215.137 285.374 214.554 286.351C213.971 287.328 213.246 288.16 212.379 288.845C211.513 289.523 210.539 290.039 209.46 290.393C208.388 290.748 207.242 290.925 206.021 290.925C203.956 290.925 202.12 290.421 200.513 289.412C198.906 288.404 197.641 286.97 196.719 285.11C195.797 283.251 195.336 281.045 195.336 278.492C195.336 275.939 195.797 273.733 196.719 271.873C197.641 270.014 198.906 268.58 200.513 267.571C202.12 266.562 203.956 266.058 206.021 266.058C207.242 266.058 208.388 266.235 209.46 266.59C210.539 266.945 211.513 267.465 212.379 268.15C213.246 268.828 213.971 269.655 214.554 270.632C215.137 271.601 215.539 272.708 215.76 273.953ZM227.209 286.339V270.738H229.857V286.339H227.209ZM220.732 279.863V277.215H236.333V279.863H220.732ZM249.148 286.339V270.738H251.795V286.339H249.148ZM242.671 279.863V277.215H258.272V279.863H242.671Z" fill="white"/>
<path d="M349.7 260H347.4V263.8H349.7V260Z" fill="white"/>
<path d="M349.7 253.1H347.4V256.9H349.7V253.1Z" fill="white"/>
<path d="M349.7 246.3H347.4V250.1H349.7V246.3Z" fill="white"/>
<path d="M349.7 280.5H347.4V284.3H349.7V280.5Z" fill="white"/>
<path d="M349.7 273.7H347.4V277.5H349.7V273.7Z" fill="white"/>
<path d="M349.7 266.9H347.4V270.7H349.7V266.9Z" fill="white"/>
<path d="M349.7 301H347.4V304.8H349.7V301Z" fill="white"/>
<path d="M349.7 294.2H347.4V298H349.7V294.2Z" fill="white"/>
<path d="M349.7 287.4H347.4V291.2H349.7V287.4Z" fill="white"/>
<path d="M349.7 321.6H347.4V325.4H349.7V321.6Z" fill="white"/>
<path d="M349.7 314.7H347.4V318.5H349.7V314.7Z" fill="white"/>
<path d="M349.7 307.9H347.4V311.7H349.7V307.9Z" fill="white"/>
<path d="M465.3 248.3C465.3 253.8 460.9 258.2 455.4 258.2H340.8C335.3 258.2 330.9 253.8 330.9 248.3V204C330.9 198.5 335.3 194.1 340.8 194.1H455.4C460.9 194.1 465.3 198.5 465.3 204V248.3Z" fill="#235098"/>
<path d="M468.5 245C468.5 250.5 464.1 254.9 458.6 254.9H343.9C338.4 254.9 334 250.5 334 245V200.7C334 195.2 338.4 190.8 343.9 190.8H458.5C464 190.8 468.4 195.2 468.4 200.7V245H468.5Z" fill="#4883ED"/>
<path d="M376.425 210.952H378.931V225.741C378.931 227.061 378.688 228.183 378.203 229.105C377.719 230.028 377.035 230.729 376.153 231.207C375.27 231.685 374.23 231.924 373.031 231.924C371.9 231.924 370.893 231.719 370.011 231.308C369.128 230.89 368.435 230.298 367.93 229.53C367.424 228.762 367.172 227.849 367.172 226.792H369.637C369.637 227.378 369.782 227.89 370.071 228.328C370.368 228.759 370.772 229.095 371.283 229.338C371.795 229.58 372.378 229.701 373.031 229.701C373.752 229.701 374.365 229.55 374.87 229.247C375.375 228.944 375.759 228.499 376.021 227.913C376.291 227.321 376.425 226.597 376.425 225.741V210.952ZM384.8 231.641H382.174L389.77 210.952H392.357L399.953 231.641H397.327L391.144 214.225H390.983L384.8 231.641ZM385.77 223.559H396.357V225.782H385.77V223.559ZM402.08 210.952L408.222 228.368H408.465L414.607 210.952H417.233L409.636 231.641H407.05L399.453 210.952H402.08ZM419.527 231.641H416.9L424.497 210.952H427.083L434.68 231.641H432.053L425.871 214.225H425.709L419.527 231.641ZM420.496 223.559H431.083V225.782H420.496V223.559Z" fill="white"/>
<path d="M245.2 212.6H241.8V214.9H245.2V212.6Z" fill="white"/>
<path d="M239.1 212.6H235.7V214.9H239.1V212.6Z" fill="white"/>
<path d="M233.1 212.6H229.7V214.9H233.1V212.6Z" fill="white"/>
<path d="M263.2 212.6H259.8V214.9H263.2V212.6Z" fill="white"/>
<path d="M257.2 212.6H253.8V214.9H257.2V212.6Z" fill="white"/>
<path d="M251.2 212.6H247.8V214.9H251.2V212.6Z" fill="white"/>
<path d="M281.3 212.6H277.9V214.9H281.3V212.6Z" fill="white"/>
<path d="M275.3 212.6H271.9V214.9H275.3V212.6Z" fill="white"/>
<path d="M269.3 212.6H265.9V214.9H269.3V212.6Z" fill="white"/>
<path d="M231 219.4H228.7V223.5H231V219.4Z" fill="white"/>
<path d="M231 226.7H228.7V230.8H231V226.7Z" fill="white"/>
<path d="M231 234H228.7V238.1H231V234Z" fill="white"/>
<path opacity="0.4" d="M362.1 336.6H225V357.4H362.1V336.6Z" fill="white"/>
<path d="M250.041 344.464H248.922C248.856 344.142 248.74 343.86 248.574 343.616C248.412 343.372 248.213 343.168 247.978 343.002C247.747 342.834 247.489 342.707 247.207 342.623C246.924 342.539 246.629 342.497 246.322 342.497C245.762 342.497 245.255 342.638 244.801 342.921C244.35 343.204 243.99 343.62 243.722 344.171C243.457 344.722 243.325 345.397 243.325 346.198C243.325 346.998 243.457 347.673 243.722 348.224C243.99 348.775 244.35 349.191 244.801 349.474C245.255 349.757 245.762 349.899 246.322 349.899C246.629 349.899 246.924 349.856 247.207 349.772C247.489 349.688 247.747 349.563 247.978 349.398C248.213 349.229 248.412 349.023 248.574 348.779C248.74 348.533 248.856 348.25 248.922 347.931H250.041C249.957 348.403 249.803 348.826 249.581 349.199C249.358 349.572 249.081 349.89 248.75 350.151C248.419 350.41 248.048 350.607 247.635 350.743C247.226 350.878 246.788 350.946 246.322 350.946C245.534 350.946 244.833 350.753 244.219 350.368C243.605 349.983 243.122 349.435 242.77 348.725C242.418 348.015 242.242 347.172 242.242 346.198C242.242 345.223 242.418 344.38 242.77 343.67C243.122 342.96 243.605 342.412 244.219 342.027C244.833 341.642 245.534 341.449 246.322 341.449C246.788 341.449 247.226 341.517 247.635 341.653C248.048 341.788 248.419 341.986 248.75 342.248C249.081 342.507 249.358 342.823 249.581 343.196C249.803 343.566 249.957 343.989 250.041 344.464ZM259.649 346.198C259.649 347.172 259.473 348.015 259.121 348.725C258.769 349.435 258.286 349.983 257.672 350.368C257.058 350.753 256.357 350.946 255.569 350.946C254.781 350.946 254.08 350.753 253.466 350.368C252.852 349.983 252.369 349.435 252.017 348.725C251.665 348.015 251.489 347.172 251.489 346.198C251.489 345.223 251.665 344.38 252.017 343.67C252.369 342.96 252.852 342.412 253.466 342.027C254.08 341.642 254.781 341.449 255.569 341.449C256.357 341.449 257.058 341.642 257.672 342.027C258.286 342.412 258.769 342.96 259.121 343.67C259.473 344.38 259.649 345.223 259.649 346.198ZM258.566 346.198C258.566 345.397 258.432 344.722 258.164 344.171C257.899 343.62 257.54 343.204 257.085 342.921C256.634 342.638 256.129 342.497 255.569 342.497C255.009 342.497 254.502 342.638 254.048 342.921C253.597 343.204 253.237 343.62 252.969 344.171C252.704 344.722 252.572 345.397 252.572 346.198C252.572 346.998 252.704 347.673 252.969 348.224C253.237 348.775 253.597 349.191 254.048 349.474C254.502 349.757 255.009 349.899 255.569 349.899C256.129 349.899 256.634 349.757 257.085 349.474C257.54 349.191 257.899 348.775 258.164 348.224C258.432 347.673 258.566 346.998 258.566 346.198ZM268.861 341.576V350.819H267.778L262.741 343.562H262.651V350.819H261.531V341.576H262.614L267.67 348.851H267.76V341.576H268.861ZM278.431 341.576V350.819H277.348L272.311 343.562H272.22V350.819H271.101V341.576H272.184L277.239 348.851H277.329V341.576H278.431ZM280.671 350.819V341.576H286.249V342.569H281.79V345.692H285.96V346.685H281.79V349.826H286.321V350.819H280.671ZM295.705 344.464H294.586C294.519 344.142 294.404 343.86 294.238 343.616C294.076 343.372 293.877 343.168 293.642 343.002C293.411 342.834 293.153 342.707 292.87 342.623C292.588 342.539 292.293 342.497 291.986 342.497C291.426 342.497 290.919 342.638 290.465 342.921C290.013 343.204 289.654 343.62 289.386 344.171C289.121 344.722 288.989 345.397 288.989 346.198C288.989 346.998 289.121 347.673 289.386 348.224C289.654 348.775 290.013 349.191 290.465 349.474C290.919 349.757 291.426 349.899 291.986 349.899C292.293 349.899 292.588 349.856 292.87 349.772C293.153 349.688 293.411 349.563 293.642 349.398C293.877 349.229 294.076 349.023 294.238 348.779C294.404 348.533 294.519 348.25 294.586 347.931H295.705C295.621 348.403 295.467 348.826 295.245 349.199C295.022 349.572 294.745 349.89 294.414 350.151C294.083 350.41 293.711 350.607 293.299 350.743C292.89 350.878 292.452 350.946 291.986 350.946C291.197 350.946 290.496 350.753 289.883 350.368C289.269 349.983 288.786 349.435 288.434 348.725C288.082 348.015 287.906 347.172 287.906 346.198C287.906 345.223 288.082 344.38 288.434 343.67C288.786 342.96 289.269 342.412 289.883 342.027C290.496 341.642 291.197 341.449 291.986 341.449C292.452 341.449 292.89 341.517 293.299 341.653C293.711 341.788 294.083 341.986 294.414 342.248C294.745 342.507 295.022 342.823 295.245 343.196C295.467 343.566 295.621 343.989 295.705 344.464ZM297.008 342.569V341.576H303.941V342.569H301.034V350.819H299.915V342.569H297.008ZM305.668 350.819V341.576H311.247V342.569H306.788V345.692H310.958V346.685H306.788V349.826H311.319V350.819H305.668ZM316.117 350.819H313.265V341.576H316.243C317.14 341.576 317.907 341.761 318.545 342.131C319.183 342.498 319.672 343.026 320.012 343.715C320.352 344.401 320.522 345.223 320.522 346.18C320.522 347.142 320.351 347.971 320.008 348.666C319.665 349.358 319.165 349.891 318.509 350.264C317.853 350.634 317.056 350.819 316.117 350.819ZM314.384 349.826H316.045C316.809 349.826 317.442 349.679 317.945 349.384C318.447 349.089 318.822 348.669 319.069 348.125C319.316 347.58 319.439 346.932 319.439 346.18C319.439 345.433 319.317 344.791 319.073 344.252C318.83 343.711 318.466 343.295 317.981 343.007C317.497 342.715 316.893 342.569 316.171 342.569H314.384V349.826Z" fill="white"/>
<path d="M306.363 54.5576V44.6608H309.707C310.484 44.6608 311.118 44.801 311.611 45.0812C312.107 45.3583 312.475 45.7336 312.713 46.2072C312.952 46.6808 313.071 47.2091 313.071 47.7922C313.071 48.3753 312.952 48.9053 312.713 49.3821C312.478 49.8589 312.114 50.239 311.621 50.5225C311.128 50.8028 310.497 50.943 309.727 50.943H307.33V49.8798H309.688C310.22 49.8798 310.646 49.788 310.969 49.6044C311.291 49.4208 311.524 49.1727 311.669 48.8602C311.818 48.5445 311.892 48.1885 311.892 47.7922C311.892 47.396 311.818 47.0416 311.669 46.7291C311.524 46.4166 311.289 46.1718 310.964 45.9946C310.638 45.8142 310.207 45.7239 309.669 45.7239H307.562V54.5576H306.363ZM314.151 44.6608H315.523L318.268 49.2806H318.384L321.129 44.6608H322.501L318.925 50.4791V54.5576H317.727V50.4791L314.151 44.6608ZM324.135 45.7239V44.6608H331.557V45.7239H328.445V54.5576H327.247V45.7239H324.135ZM333.407 54.5576V44.6608H334.605V49.068H339.882V44.6608H341.081V54.5576H339.882V50.1311H334.605V54.5576H333.407ZM351.83 49.6092C351.83 50.653 351.642 51.5551 351.265 52.3154C350.888 53.0757 350.371 53.662 349.714 54.0744C349.057 54.4867 348.306 54.6929 347.462 54.6929C346.618 54.6929 345.867 54.4867 345.21 54.0744C344.553 53.662 344.036 53.0757 343.659 52.3154C343.282 51.5551 343.093 50.653 343.093 49.6092C343.093 48.5654 343.282 47.6634 343.659 46.9031C344.036 46.1428 344.553 45.5564 345.21 45.1441C345.867 44.7317 346.618 44.5255 347.462 44.5255C348.306 44.5255 349.057 44.7317 349.714 45.1441C350.371 45.5564 350.888 46.1428 351.265 46.9031C351.642 47.6634 351.83 48.5654 351.83 49.6092ZM350.671 49.6092C350.671 48.7523 350.527 48.029 350.241 47.4395C349.957 46.8499 349.572 46.4037 349.086 46.1009C348.602 45.798 348.061 45.6466 347.462 45.6466C346.863 45.6466 346.32 45.798 345.833 46.1009C345.35 46.4037 344.965 46.8499 344.678 47.4395C344.395 48.029 344.253 48.7523 344.253 49.6092C344.253 50.4662 344.395 51.1894 344.678 51.779C344.965 52.3685 345.35 52.8147 345.833 53.1176C346.32 53.4204 346.863 53.5718 347.462 53.5718C348.061 53.5718 348.602 53.4204 349.086 53.1176C349.572 52.8147 349.957 52.3685 350.241 51.779C350.527 51.1894 350.671 50.4662 350.671 49.6092ZM361.693 44.6608V54.5576H360.534L355.141 46.7871H355.044V54.5576H353.846V44.6608H355.005L360.418 52.4507H360.514V44.6608H361.693Z" fill="#6833A3"/>
<path d="M459.4 161.2C459.4 163.9 457.2 166.1 454.5 166.1C451.8 166.1 449.6 163.9 449.6 161.2C449.6 158.5 451.8 156.3 454.5 156.3C457.2 156.2 459.4 158.4 459.4 161.2Z" stroke="#6833A3" stroke-width="3" stroke-miterlimit="10"/>
<path d="M479.5 121.3C479.5 123.3 477.9 124.9 475.9 124.9C473.9 124.9 472.3 123.3 472.3 121.3C472.3 119.3 473.9 117.7 475.9 117.7C477.9 117.7 479.5 119.3 479.5 121.3Z" stroke="#6833A3" stroke-width="2" stroke-miterlimit="10"/>
<path d="M120.3 79.3002C120.3 81.3002 118.7 82.9002 116.7 82.9002C114.7 82.9002 113.1 81.3002 113.1 79.3002C113.1 77.3002 114.7 75.7002 116.7 75.7002C118.7 75.7002 120.3 77.3002 120.3 79.3002Z" stroke="#6833A3" stroke-width="2" stroke-miterlimit="10"/>
<path d="M530.5 410.4V408.1H527.1C527 407.6 526.8 407.2 526.5 406.7L528.9 404.3L527.2 402.6L524.8 405C524.4 404.7 523.9 404.6 523.4 404.4V401H521.1V404.4C520.6 404.5 520.2 404.7 519.7 405L517.3 402.6L515.6 404.3L518 406.7C517.7 407.1 517.6 407.6 517.4 408.1H514V410.4H517.4C517.5 410.9 517.7 411.3 518 411.8L515.6 414.2L517.3 415.9L519.7 413.5C520.1 413.8 520.6 413.9 521.1 414.1V417.5H523.4V414.1C523.9 414 524.3 413.8 524.8 413.5L527.2 415.9L528.9 414.2L526.5 411.8C526.8 411.4 526.9 410.9 527.1 410.4H530.5ZM522.4 411.4C521.2 411.4 520.2 410.4 520.2 409.2C520.2 408 521.2 407 522.4 407C523.6 407 524.6 408 524.6 409.2C524.6 410.4 523.6 411.4 522.4 411.4Z" fill="#BC74E1"/>
<path d="M47.2 162.6C47.2 164.6 45.6 166.2 43.6 166.2C41.6 166.2 40 164.6 40 162.6C40 160.6 41.6 159 43.6 159C45.6 159 47.2 160.6 47.2 162.6Z" stroke="#6833A3" stroke-width="2" stroke-miterlimit="10"/>
<path d="M30.5 326.4V324.1H27.1C27 323.6 26.8 323.2 26.5 322.7L28.9 320.3L27.2 318.6L24.8 321C24.4 320.7 23.9 320.6 23.4 320.4V317H21.1V320.4C20.6 320.5 20.2 320.7 19.7 321L17.3 318.6L15.6 320.3L18 322.7C17.7 323.1 17.6 323.6 17.4 324.1H14V326.4H17.4C17.5 326.9 17.7 327.3 18 327.8L15.6 330.2L17.3 331.9L19.7 329.5C20.1 329.8 20.6 329.9 21.1 330.1V333.5H23.4V330.1C23.9 330 24.3 329.8 24.8 329.5L27.2 331.9L28.9 330.2L26.5 327.8C26.8 327.4 26.9 326.9 27.1 326.4H30.5ZM22.4 327.4C21.2 327.4 20.2 326.4 20.2 325.2C20.2 324 21.2 323 22.4 323C23.6 323 24.6 324 24.6 325.2C24.6 326.4 23.6 327.4 22.4 327.4Z" fill="#BC74E1"/>
<path d="M27.2 15.5V11.6H21.5C21.3 10.8 21 10 20.6 9.3L24.6 5.3L21.8 2.50001L17.8 6.50001C17.1 6.10001 16.3 5.8 15.5 5.6V0H11.6V5.6C10.8 5.8 10 6.10001 9.3 6.50001L5.3 2.50001L2.5 5.3L6.5 9.3C6.1 10 5.8 10.8 5.6 11.6H0V15.5H5.6C5.8 16.3 6.1 17.1 6.5 17.8L2.5 21.8L5.3 24.6L9.3 20.6C10 21 10.8 21.3 11.6 21.5V27.1H15.5V21.5C16.3 21.3 17.1 21 17.8 20.6L21.8 24.6L24.6 21.8L20.6 17.8C21 17.1 21.3 16.3 21.5 15.5H27.2ZM13.6 17.3C11.6 17.3 9.89999 15.6 9.89999 13.6C9.89999 11.6 11.6 9.9 13.6 9.9C15.6 9.9 17.3 11.6 17.3 13.6C17.3 15.6 15.6 17.3 13.6 17.3Z" fill="#6833A3"/>
<defs>
<linearGradient id="paint0_linear_1_428" x1="290.446" y1="384.84" x2="290.446" y2="72.758" gradientUnits="userSpaceOnUse">
<stop stop-color="#00416A"/>
<stop offset="1" stop-color="#006EB4"/>
</linearGradient>
</defs>
</svg>