<svg width="62" height="62" viewBox="0 0 62 62" fill="none" xmlns="http://www.w3.org/2000/svg">
<circle cx="31" cy="31.0002" r="20.3947" fill="white"/>
<path fill-rule="evenodd" clip-rule="evenodd" d="M27.4174 4.30464C23.6604 4.77394 19.205 6.46584 15.9734 8.65029L14.3561 9.74347L14.5023 8.82933C14.6228 8.07529 14.5655 7.87085 14.1753 7.66184C13.8321 7.47825 13.6047 7.48856 13.3482 7.699C12.86 8.09926 11.6527 12.3181 11.8492 12.9372C11.9978 13.4055 12.121 13.4252 13.9599 13.2713C17.126 13.0062 17.5788 12.866 17.6656 12.1235C17.7262 11.6048 17.6224 11.4517 17.1263 11.327C16.7883 11.2424 16.2332 11.2429 15.8927 11.3285C14.9735 11.559 15.345 11.1605 17.197 9.92946C26.7684 3.56643 39.7797 4.70851 48.2399 12.6546C52.8101 16.9471 55.3979 22.3015 56.1208 28.9613C56.3919 31.4583 56.4671 31.7243 56.9197 31.789C57.9354 31.9345 58.0872 31.3305 57.7784 28.3695C57.0829 21.6975 54.3194 16.089 49.4467 11.4615C43.4937 5.80792 35.6874 3.27186 27.4174 4.30464ZM28.2563 10.7751C23.3179 11.4215 18.235 14.3007 15.0844 18.2365C13.5548 20.1473 11.8699 23.5088 11.2105 25.9653C10.5003 28.6101 10.4919 33.3146 11.1928 35.9343C13.1658 43.3102 18.6734 48.8413 25.9923 50.7973C28.6796 51.5156 33.3442 51.5149 36.0459 50.7961C49.7307 47.1551 55.769 31.2464 47.8938 19.5809C43.5968 13.2157 35.9177 9.77223 28.2563 10.7751ZM30.1738 16.3781C30.1738 20.2002 30.1575 20.3328 29.6843 20.3328C28.965 20.3328 25.6261 19.6176 24.8313 19.2933L24.1458 19.0136L25.0405 17.2742C26.0364 15.3386 27.6998 13.4655 28.9754 12.8433C29.4367 12.6184 29.8952 12.4317 29.994 12.4288C30.0927 12.4257 30.1738 14.203 30.1738 16.3781ZM33.9154 13.4036C34.9398 14.1049 36.8429 16.6824 37.4778 18.2289L37.8442 19.1207L36.5857 19.4843C35.1486 19.8992 32.9579 20.3328 32.2983 20.3328C31.8803 20.3328 31.8515 20.0761 31.8515 16.362V12.391L32.3908 12.5599C32.6873 12.6527 33.3735 13.0324 33.9154 13.4036ZM24.686 14.5205C24.1705 15.2786 23.5011 16.4111 23.1983 17.0372C22.8959 17.6632 22.5335 18.1757 22.393 18.1757C22.056 18.1757 19.6278 16.5355 19.6278 16.3078C19.6278 15.8635 24.5664 13.18 25.442 13.1488C25.5417 13.1452 25.2016 13.7624 24.686 14.5205ZM38.7246 13.9928C40.1293 14.6107 42.3974 16.0403 42.3974 16.3078C42.3974 16.543 39.964 18.1757 39.6136 18.1757C39.463 18.1757 39.1987 17.8351 39.0263 17.419C38.8538 17.0027 38.1903 15.8618 37.5518 14.8839C36.2635 12.9104 36.2638 12.9104 38.7246 13.9928ZM21.8413 19.8534C21.9705 19.8534 21.999 20.042 21.905 20.2729C21.5393 21.1707 20.6407 26.0702 20.4765 28.0625L20.3037 30.1597H16.3706H12.4374V29.2393C12.4374 27.84 13.2933 24.7913 14.2367 22.8298C14.7012 21.8641 15.7266 20.2621 16.5151 19.2698L17.9489 17.4655L19.7779 18.6593C20.7838 19.3161 21.7123 19.8534 21.8413 19.8534ZM45.5068 19.2652C46.2973 20.2602 47.3241 21.8641 47.7886 22.8298C48.732 24.7913 49.5878 27.84 49.5878 29.2393V30.1597H45.6535H41.7194L41.5691 28.3021C41.4246 26.5172 40.4524 21.077 40.1447 20.3328C40.04 20.0794 40.317 19.8031 41.0838 19.3971C41.682 19.0802 42.5729 18.517 43.0635 18.1455C43.5539 17.774 43.981 17.4669 44.0124 17.4633C44.0438 17.4597 44.7161 18.2706 45.5068 19.2652ZM25.4324 21.2898C26.3806 21.5525 27.8352 21.8372 28.665 21.9221L30.1738 22.0767V26.1182V30.1597H26.0992C23.8582 30.1597 22.0246 30.1172 22.0246 30.0652C22.0246 28.155 23.2791 20.8121 23.6056 20.8121C23.6621 20.8121 24.4842 21.0271 25.4324 21.2898ZM39.0108 22.9093C39.3775 24.4845 40.0006 28.9891 40.0006 30.0652C40.0006 30.1172 38.1671 30.1597 35.9261 30.1597H31.8515V26.116V22.0724L33.4694 21.8979C34.3593 21.802 35.7343 21.5312 36.5253 21.2961C37.3162 21.0612 38.0892 20.856 38.2431 20.8404C38.4046 20.8241 38.7287 21.6968 39.0108 22.9093ZM4.2847 30.5235C4.02057 30.8416 4.01386 31.3935 4.24683 33.6276C5.05887 41.417 8.83167 48.0175 15.1731 52.7421C24.0629 59.3652 36.7801 59.6142 46.0518 53.3468L47.6692 52.2536L47.523 53.1678C47.4024 53.9218 47.4597 54.1262 47.8499 54.3352C48.1931 54.5188 48.4206 54.5085 48.6771 54.2981C49.1653 53.8978 50.3726 49.679 50.176 49.0599C50.0274 48.5915 49.9042 48.5719 48.0654 48.7258C44.7918 48.9997 44.4347 49.1196 44.4347 49.9431C44.4347 50.6346 44.464 50.6518 45.6077 50.6351L46.7805 50.6178L46.1436 51.1657C45.2393 51.9435 42.5355 53.487 40.8067 54.2128C31.1162 58.2797 19.8625 55.8855 12.6694 48.2265C8.70584 44.0065 6.52787 39.1144 5.89008 32.9989C5.6329 30.5319 5.56004 30.2728 5.10608 30.2081C4.83093 30.1688 4.46134 30.3107 4.2847 30.5235ZM20.4533 33.6949C20.6644 36.1059 21.2164 39.3744 21.662 40.8532C21.8775 41.568 21.9235 42.055 21.7804 42.1036C21.6514 42.1475 20.739 42.7103 19.7525 43.3541L17.9592 44.5249L16.8161 43.1113C14.3875 40.1076 12.8075 36.5431 12.5146 33.4061L12.3682 31.8374H16.3293H20.2905L20.4533 33.6949ZM30.1738 35.8789V39.9204L28.665 40.075C27.8352 40.1598 26.3806 40.4446 25.4324 40.7073C24.4842 40.97 23.6621 41.185 23.6056 41.185C23.2791 41.185 22.0246 33.8421 22.0246 31.9319C22.0246 31.8798 23.8582 31.8374 26.0992 31.8374H30.1738V35.8789ZM40.0006 31.9319C40.0006 33.8421 38.7462 41.185 38.4197 41.185C38.3631 41.185 37.541 40.97 36.5929 40.7073C35.6447 40.4446 34.1901 40.1598 33.3603 40.075L31.8515 39.9204V35.8789V31.8374H35.9261C38.1671 31.8374 40.0006 31.8798 40.0006 31.9319ZM49.5143 33.369C49.2154 36.5685 47.6778 40.0352 45.2012 43.0933L44.0503 44.5143L42.2647 43.349C41.2827 42.7079 40.365 42.1453 40.225 42.0986C40.0481 42.0396 40.0457 41.8167 40.2168 41.3666C40.5828 40.4041 41.3886 35.8183 41.565 33.6949L41.7194 31.8374H45.6883H49.6571L49.5143 33.369ZM30.1738 45.6351V49.6061L29.6345 49.446C28.025 48.9688 26.3427 47.2134 24.9698 44.5793L24.1393 42.9861L24.9394 42.659C25.8439 42.2894 28.5195 41.7209 29.5146 41.6868L30.1738 41.6643V45.6351ZM34.1443 41.9162C34.9266 42.055 36.0771 42.3325 36.7007 42.5334L37.8351 42.8984L37.4732 43.7793C36.4704 46.2211 34.0472 48.9187 32.3908 49.4371L31.8515 49.6061V45.6351C31.8515 41.1195 31.6344 41.4716 34.1443 41.9162ZM22.9989 44.5781C23.1715 44.9944 23.8349 46.1353 24.4734 47.1132C25.4935 48.6762 25.5681 48.872 25.0877 48.7301C23.426 48.2395 19.6278 46.124 19.6278 45.6893C19.6278 45.4541 22.0613 43.8214 22.4117 43.8214C22.5622 43.8214 22.8266 44.162 22.9989 44.5781ZM41.1422 44.6668C41.8328 45.1315 42.3965 45.59 42.3953 45.6854C42.39 46.1274 37.3467 48.8547 36.5349 48.8547C36.469 48.8547 36.932 48.0628 37.5641 47.0947C38.1959 46.1269 38.8538 44.9944 39.0263 44.5781C39.1987 44.162 39.463 43.8214 39.6136 43.8214C39.7641 43.8214 40.452 44.2018 41.1422 44.6668Z" fill="black" fill-opacity="0.1"/>
<circle cx="31" cy="31" r="25.6974" stroke="#006EB4" stroke-width="10.6053"/>
<path d="M16.4789 36.6055V27.4686H19.0242V32.8333L22.7964 27.4686H25.2242V36.6055H22.6789V31.2539L18.9198 36.6055H16.4789ZM27.1862 36.6055V27.4686H29.7314V32.8333L33.5037 27.4686H35.9314V36.6055H33.3862V31.2539L29.627 36.6055H27.1862ZM39.9166 36.6055V28.9436L40.4909 29.5179H37.1103V27.4686H45.2551V29.5179H41.8875L42.4618 28.9436V36.6055H39.9166Z" fill="#006EB4"/>
</svg>